<?xml version="1.0" standalone="no"?>
<!DOCTYPE svg PUBLIC "-//W3C//DTD SVG 1.1//EN" "http://www.w3.org/Graphics/SVG/1.1/DTD/svg11.dtd" >
<svg xmlns="http://www.w3.org/2000/svg" width="100%" height="100%">
<metadata>
Created by FontXChange 20110222 at Sat Aug 29 18:49:58 2015
 By o o
Copyright 2005, 2007 Adobe Systems Incorporated. All rights reserved.
</metadata>
<defs>
<font id="GaramondPremrPro-MedDisp" horiz-adv-x="527" >
  <font-face 
    font-family="GaramondPremrPro"
    font-weight="500"
    font-stretch="normal"
    units-per-em="1000"
    panose-1="2 2 5 2 6 5 6 2 4 3"
    ascent="725"
    descent="-275"
    x-height="362"
    cap-height="630"
    bbox="-145.897 -307 1383 848"
    underline-thickness="50"
    underline-position="-50"
    stemh="41"
    stemv="64"
    unicode-range="U+0020-FB06"
  />
<missing-glyph horiz-adv-x="500" 
d="M0 0v700h500v-700h-500zM250 395l170 255h-340zM280 350l170 -255v510zM80 50h340l-170 255zM50 605v-510l170 255z" />
    <glyph glyph-name="T_h" unicode="Th" horiz-adv-x="930" 
d="M297 625h216c49 0 75 5 86 12c7 4 13 9 18 19c4 5 8 10 12 10c3 0 5 -4 4 -17c-3 -28 -5 -69 -6 -93c0 -25 -4 -220 -4 -238c0 -4 3 -5 5 -4c12 12 39 31 58 40c17 9 42 17 67 17c34 0 68 -12 92 -45c11 -14 22 -45 23 -106c1 -73 0 -135 1 -177c1 -19 5 -26 34 -31
c11 -3 16 -6 16 -10s-8 -7 -16 -7c-27 0 -45 5 -74 5c-39 0 -46 -4 -71 -4c-12 0 -16 3 -16 6c0 5 5 6 15 9c27 5 30 13 33 43c2 23 5 69 5 168c0 25 -3 57 -14 76c-13 23 -36 36 -68 36c-37 0 -66 -18 -81 -33c-5 -5 -10 -15 -10 -34c0 -137 3 -199 6 -220
c3 -19 9 -30 31 -35c14 -3 21 -5 21 -10c0 -3 -6 -6 -16 -6c-28 0 -57 4 -83 4c-34 0 -48 -4 -69 -4c-11 0 -16 2 -16 6s4 6 16 9c28 7 34 11 36 47c2 39 4 132 4 286c0 150 -1 189 -2 227c0 10 -4 26 -11 27c-33 2 -185 5 -202 2c-5 -2 -7 -9 -7 -16c0 -38 -1 -259 -1 -316
c-1 -60 2 -177 6 -207c4 -33 13 -40 47 -50c12 -3 17 -5 17 -10c0 -6 -6 -7 -19 -7c-23 0 -58 6 -99 6c-56 0 -87 -6 -102 -6c-13 0 -19 5 -19 9c0 5 10 8 21 10c48 6 54 21 57 68c6 98 6 490 5 502c-2 14 -3 17 -7 18c-6 1 -40 3 -85 3c-38 0 -65 -3 -84 -6
s-28 -14 -44 -55c-4 -12 -10 -17 -14 -17s-4 8 -3 16c5 33 10 75 11 89c0 8 1 13 5 15c3 2 6 -1 9 -4c4 -5 13 -11 38 -13c16 -2 126 -4 228 -4z" />
    <glyph glyph-name="f_b" unicode="fb" horiz-adv-x="691" 
d="M69 67v239c0 9 -2 13 -5 14c-6 0 -17 0 -28 1c-6 1 -13 6 -13 9c0 2 5 5 12 10c7 4 16 9 25 15c6 4 9 10 9 14c0 51 5 119 18 160c18 53 48 104 107 137c29 18 61 24 84 24c25 0 44 -5 61 -14c4 -1 10 -2 14 0c7 3 12 5 18 9c9 4 11 4 14 4c2 0 4 -4 3 -17
c-2 -61 -5 -207 -5 -329c0 -5 3 -10 5 -8c23 14 60 33 103 33c57 0 100 -28 123 -55c30 -33 44 -80 44 -121c0 -61 -23 -106 -50 -134c-42 -44 -103 -69 -157 -69c-36 0 -82 10 -115 25c-7 3 -15 1 -28 -3c-5 -2 -7 2 -7 7l5 104c2 47 6 246 6 316c0 63 -1 139 -2 156
c-2 27 -7 42 -28 54c-16 11 -29 17 -49 17c-43 0 -78 -39 -88 -155c-2 -29 -3 -86 -3 -120c0 -9 0 -19 1 -25c0 -5 4 -7 12 -7c9 0 85 2 96 2c5 0 9 -8 9 -21s-3 -17 -14 -17c-18 0 -85 2 -99 2c-2 0 -5 -7 -5 -9c0 -40 2 -220 4 -248c2 -37 11 -45 20 -48s19 -4 32 -7
c12 -2 18 -5 18 -9c0 -5 -8 -7 -17 -7c-30 0 -47 4 -102 4c-23 0 -45 -3 -61 -4c-10 0 -15 2 -15 6s6 7 19 10c24 6 29 19 29 55zM582 167c0 45 -15 90 -40 122c-21 25 -58 48 -99 48c-28 0 -45 -8 -52 -14c-5 -4 -9 -14 -10 -23c-1 -18 -2 -105 -1 -146c0 -31 5 -75 14 -94
c8 -16 17 -28 32 -37c16 -10 39 -14 57 -14c48 0 99 57 99 158z" />
    <glyph glyph-name="f_f" unicode="ff" horiz-adv-x="483" 
d="M298 327h-151c-3 0 -5 -8 -5 -9c0 -40 2 -225 3 -253c2 -41 7 -47 39 -54c12 -2 16 -5 16 -9c0 -5 -6 -7 -16 -7c-22 0 -40 5 -79 5c-23 0 -52 -3 -69 -4c-9 0 -15 2 -15 6s3 6 16 10c27 6 32 19 32 55v243c0 9 -3 12 -7 13c-5 0 -18 1 -26 1c-7 0 -12 3 -12 7
c0 3 3 5 10 10c6 3 16 8 26 14c6 4 9 9 9 14c0 36 5 94 18 134c16 50 47 107 110 141c27 16 58 23 88 23c34 0 68 -10 91 -33c2 -2 6 -1 7 0c37 38 87 56 129 56c46 0 74 -22 74 -38c0 -11 -17 -26 -26 -31c-6 -4 -14 -2 -20 3c-16 14 -46 36 -77 36c-47 0 -76 -38 -84 -150
c-2 -30 -3 -72 -3 -98c0 -25 0 -40 2 -45c1 -4 2 -9 8 -9c8 0 86 1 97 1c8 0 11 -6 11 -19s-2 -16 -13 -16c-17 0 -85 2 -98 2c-4 0 -6 -8 -6 -9c0 -40 3 -222 4 -250c2 -40 10 -45 20 -48c8 -3 19 -4 32 -7c12 -2 18 -5 18 -9c0 -5 -8 -7 -17 -7c-30 0 -47 4 -102 4
c-23 0 -45 -3 -62 -4c-9 0 -15 2 -15 6s7 7 20 10c24 6 29 19 29 55v248c0 7 -2 12 -6 12zM244 642c-53 0 -89 -42 -99 -159c-2 -28 -4 -78 -3 -96c0 -7 0 -15 1 -21c0 -6 5 -8 15 -8h140c3 0 6 7 6 9c0 56 6 154 37 211c1 2 1 9 -1 11c-27 40 -65 53 -96 53z" />
    <glyph glyph-name="f_f_b" unicode="ffb" horiz-adv-x="925" 
d="M69 67v243c0 9 -3 12 -7 13c-5 0 -18 1 -26 1c-7 0 -12 3 -12 7c0 3 4 6 11 10c6 3 15 9 25 14c6 4 9 9 9 14c0 37 4 94 18 134c15 49 48 107 110 141c27 15 55 23 85 23c33 0 69 -9 92 -33c1 -1 6 -2 8 0c38 38 81 56 130 56c25 0 45 -5 62 -14c4 -1 10 -3 14 -1
c7 4 12 6 18 10c9 4 11 4 14 4c2 0 4 -4 3 -17c-3 -61 -5 -207 -5 -329c0 -5 3 -10 4 -8c24 14 61 33 104 33c57 0 99 -28 122 -55c31 -33 45 -80 45 -121c0 -61 -23 -106 -51 -134c-41 -44 -102 -69 -156 -69c-36 0 -82 10 -115 25c-7 3 -16 1 -29 -3c-4 -2 -7 2 -6 7
l5 104c2 47 5 246 6 316c0 63 -2 138 -3 155c-1 27 -7 41 -27 54c-16 12 -30 17 -49 17c-43 0 -78 -38 -88 -154c-2 -29 -3 -87 -3 -121c0 -9 0 -18 1 -24c0 -5 4 -7 12 -7c9 0 84 1 95 1c5 0 9 -5 9 -18s-3 -17 -13 -17c-18 0 -84 2 -98 2c-4 0 -6 -8 -6 -9
c0 -40 3 -222 4 -250c2 -40 10 -45 20 -48c8 -3 19 -4 32 -7c12 -2 18 -5 18 -9c0 -5 -8 -7 -17 -7c-30 0 -47 4 -102 4c-23 0 -45 -3 -62 -4c-9 0 -15 2 -15 6s7 7 20 10c24 6 29 19 29 55v248c0 6 -2 11 -6 11h-151c-3 0 -5 -7 -5 -8c0 -41 2 -225 3 -253
c2 -41 7 -47 39 -54c12 -2 16 -6 16 -9c0 -5 -7 -7 -16 -7c-23 0 -48 5 -87 5c-23 0 -44 -3 -61 -4c-9 0 -15 2 -15 6s3 6 16 10c27 6 32 19 32 55zM816 167h1c0 45 -15 90 -41 122c-21 25 -57 48 -98 48c-28 0 -45 -8 -52 -14c-5 -4 -10 -14 -10 -23
c-2 -18 -2 -105 -2 -146c1 -31 6 -75 15 -94c8 -16 17 -28 32 -37c16 -10 39 -14 57 -14c48 0 98 57 98 158zM243 642c-49 0 -88 -42 -98 -159c-2 -28 -4 -76 -3 -93c0 -8 0 -18 1 -24c0 -6 5 -8 15 -8h140c3 0 6 7 6 9c0 42 3 121 21 175c5 12 9 24 16 36c2 3 1 9 -1 11
c-26 38 -59 53 -97 53z" />
    <glyph glyph-name="f_f_h" unicode="ffh" horiz-adv-x="926" 
d="M68 67v243c0 9 -3 12 -7 13c-5 0 -18 1 -27 1c-6 0 -12 3 -12 7c0 3 5 6 12 10l25 14c6 4 9 9 9 14c0 36 4 94 18 134c15 49 48 107 110 141c27 15 54 23 85 23c33 0 69 -9 92 -33c1 -1 5 -2 7 0c38 38 85 56 131 56c25 0 45 -5 62 -14c4 -1 9 -3 13 -1c7 4 12 6 18 10
c8 4 10 4 13 4c2 0 4 -4 4 -21c-1 -24 -4 -333 -4 -351c0 -2 3 -4 6 -1c12 11 38 30 57 39c16 8 43 16 65 16c34 0 53 -9 68 -19c29 -20 46 -61 47 -120c2 -68 1 -147 4 -189c1 -16 5 -26 32 -31c13 -3 16 -6 16 -10s-8 -7 -16 -7c-27 0 -44 5 -74 5c-39 0 -44 -4 -69 -4
c-12 0 -18 3 -18 6c0 5 6 6 16 9c28 6 31 17 33 43c1 23 4 44 4 157c0 25 -3 66 -15 87c-13 23 -34 37 -67 37c-30 0 -62 -16 -77 -31c-11 -11 -12 -22 -13 -39c0 -119 4 -201 5 -223c3 -19 11 -26 32 -30c12 -2 21 -5 21 -9c0 -3 -6 -7 -16 -7c-28 0 -57 4 -83 4
c-34 0 -48 -4 -69 -4c-11 0 -16 2 -16 6s4 7 16 9c27 7 34 14 36 54c3 39 4 125 4 279c0 150 -1 217 -1 253c-2 23 -11 39 -29 50c-16 12 -30 17 -49 17c-43 0 -78 -38 -88 -154c-2 -29 -3 -89 -3 -123c0 -7 0 -16 1 -22c0 -5 4 -7 12 -7s84 1 95 1c5 0 9 -5 9 -18
s-3 -17 -13 -17c-18 0 -84 2 -98 2c-4 0 -6 -8 -6 -9c0 -40 3 -222 4 -250c2 -40 9 -47 42 -55c12 -3 17 -5 17 -9c0 -5 -7 -7 -17 -7c-29 0 -36 4 -91 4c-23 0 -45 -3 -62 -4c-9 0 -15 2 -15 6s7 7 20 10c24 6 29 19 29 55v248c0 7 -2 12 -6 12h-151c-3 0 -5 -8 -5 -9
c0 -40 2 -225 3 -253c1 -40 6 -47 39 -54c12 -2 16 -6 16 -9c0 -5 -7 -7 -16 -7c-23 0 -48 5 -87 5c-23 0 -45 -3 -61 -4c-9 0 -16 2 -16 6s4 6 17 10c27 6 32 19 32 55zM242 642c-49 0 -88 -42 -98 -159c-2 -28 -4 -78 -3 -95c0 -7 0 -16 1 -22c0 -6 5 -8 15 -8h140
c3 0 6 7 6 9c0 42 3 118 20 171c4 14 10 28 17 40c2 3 1 9 -1 11c-26 38 -59 53 -97 53z" />
    <glyph glyph-name="f_f_i" unicode="ffi" horiz-adv-x="678" 
d="M69 67v245c0 9 -3 11 -7 12c-5 1 -18 1 -26 1c-7 0 -12 3 -12 7s4 5 11 9l25 14c6 4 9 9 9 14c0 36 4 94 18 134c15 49 49 107 111 140c27 16 56 24 89 24c36 0 72 -13 95 -37c1 -1 5 -2 7 0c44 40 93 60 141 60c47 0 75 -17 87 -31c8 -8 11 -17 11 -21
c0 -23 -25 -38 -33 -38c-7 0 -15 5 -21 14c-28 34 -53 50 -85 50c-82 0 -106 -107 -109 -210c-1 -29 -2 -62 -1 -84c1 -8 1 -12 8 -12c13 0 96 0 127 1c45 2 79 10 88 15c5 3 7 5 10 5c2 0 4 -4 4 -14c0 -14 -2 -76 -2 -144c0 -101 1 -145 3 -171c1 -27 5 -34 29 -39
c12 -2 15 -5 15 -9c0 -3 -7 -5 -13 -5c-20 0 -42 3 -76 3c-32 0 -54 -3 -64 -3c-9 0 -18 1 -18 6s7 8 19 10c25 6 29 13 31 63c2 40 2 200 1 229c0 17 -3 22 -23 23c-31 1 -116 1 -134 1c-2 0 -5 -9 -5 -16c-1 -41 2 -218 3 -246c2 -44 9 -47 41 -54c12 -3 18 -5 18 -9
c0 -5 -8 -7 -17 -7c-30 0 -36 3 -91 3c-23 0 -45 -3 -61 -4c-10 0 -15 2 -15 6s6 7 19 10c24 6 29 19 29 55v250c0 7 -2 12 -6 12h-152c-3 0 -5 -8 -5 -9c0 -40 2 -227 3 -255c2 -39 7 -47 39 -54c12 -2 16 -6 16 -9c0 -5 -6 -7 -16 -7c-22 0 -48 5 -87 5
c-23 0 -44 -3 -61 -4c-9 0 -15 2 -15 6s3 6 16 10c27 6 32 19 32 55zM244 642c-49 0 -89 -42 -99 -159c-2 -28 -4 -77 -3 -95c0 -7 0 -16 1 -22c0 -6 5 -8 15 -8h142c3 0 6 7 6 9c0 67 11 151 41 208c2 3 1 9 -1 11c-26 38 -64 56 -102 56z" />
    <glyph glyph-name="f_f_j" unicode="ffj" horiz-adv-x="668" 
d="M69 67v245c0 9 -3 11 -7 12c-5 1 -18 1 -26 1c-7 0 -12 3 -12 7s4 5 11 9l25 14c6 4 9 9 9 14c0 36 4 94 18 134c15 49 49 107 111 140c27 16 56 24 89 24c36 0 72 -13 95 -37c1 -1 5 -2 7 0c43 41 90 60 138 60c47 0 72 -15 85 -29c8 -8 11 -17 11 -21
c0 -24 -25 -39 -33 -39c-7 0 -14 6 -21 15c-28 34 -56 48 -83 48c-21 0 -42 -7 -62 -31c-29 -34 -40 -104 -43 -161l-3 -53c0 -19 0 -38 1 -50c0 -4 2 -11 7 -11c12 0 92 0 124 1c45 2 76 10 85 15c5 3 7 5 9 5c3 0 5 -4 5 -14c0 -94 -2 -203 -2 -290c0 -51 -3 -98 -5 -121
c-8 -128 -87 -209 -144 -238c-10 -6 -25 -7 -25 0c0 3 4 6 11 10c61 32 86 112 88 205c1 51 4 111 3 167c-1 79 1 177 -5 212c-1 11 -3 17 -21 18c-32 1 -107 1 -125 1c-2 0 -5 -2 -5 -11c-1 -40 2 -223 3 -251c2 -44 9 -47 41 -54c12 -3 18 -5 18 -9c0 -5 -8 -7 -17 -7
c-30 0 -36 3 -91 3c-23 0 -45 -3 -61 -4c-10 0 -15 2 -15 6s6 7 19 10c24 6 29 19 29 55v250c0 7 -2 12 -6 12h-152c-3 0 -5 -8 -5 -9c0 -40 2 -227 3 -255c2 -39 7 -47 39 -54c12 -2 16 -6 16 -9c0 -5 -6 -7 -16 -7c-22 0 -48 5 -87 5c-23 0 -44 -3 -61 -4
c-9 0 -15 2 -15 6s3 6 16 10c27 6 32 19 32 55zM244 642c-49 0 -89 -42 -99 -159c-2 -28 -3 -74 -3 -92c0 -9 0 -19 1 -25c0 -6 5 -8 15 -8h142c3 0 6 7 6 9c0 67 9 150 42 208c2 3 1 9 -1 11c-26 38 -65 56 -103 56z" />
    <glyph glyph-name="f_f_k" unicode="ffk" horiz-adv-x="906" 
d="M69 67v243c0 9 -3 12 -7 13c-5 0 -18 1 -26 1c-7 0 -12 3 -12 7c0 3 4 6 11 10l25 14c6 4 9 9 9 14c0 36 4 94 18 134c15 49 48 107 110 141c27 15 55 23 85 23c33 0 69 -9 92 -33c1 -1 5 -2 7 0c38 38 85 56 131 56c25 0 45 -5 62 -14c4 -1 9 -3 14 -1l17 10
c9 4 11 4 13 4s5 -4 4 -17c0 -33 -5 -161 -5 -235c0 -30 -3 -128 -3 -223c0 -11 2 -16 5 -16c4 0 12 6 20 11c39 30 90 77 108 102c5 6 10 13 10 17c0 6 -7 13 -31 16c-9 2 -17 4 -17 9c0 4 8 7 16 7c16 0 37 -1 47 -1c22 0 65 5 92 5c11 0 16 -3 16 -6s-3 -6 -15 -9
c-34 -6 -52 -13 -91 -44c-25 -19 -69 -57 -89 -77c-2 -1 0 -5 1 -6c31 -41 103 -118 147 -164c27 -27 42 -40 72 -46c9 -3 14 -6 14 -10c0 -6 -8 -7 -17 -7c-40 0 -83 5 -116 5c-18 0 -31 -2 -45 -2c-12 0 -20 1 -20 6s5 7 23 11c16 5 19 13 10 27c-19 23 -86 97 -116 128
c-9 9 -16 17 -20 17c-3 0 -3 -6 -4 -10c-1 -18 -1 -56 -1 -105c1 -49 11 -52 39 -59c10 -2 16 -5 16 -9c0 -5 -9 -7 -20 -7c-28 0 -52 3 -78 3c-34 0 -58 -3 -67 -3c-10 0 -17 2 -17 7c0 3 6 6 14 8c30 7 36 16 38 49c4 73 5 156 5 234c1 78 3 221 3 302
c-2 23 -11 39 -29 50c-16 12 -30 17 -49 17c-43 0 -78 -38 -88 -154c-2 -29 -3 -89 -3 -123c0 -7 0 -16 1 -22c0 -5 4 -7 12 -7c9 0 84 1 95 1c5 0 9 -5 9 -18s-3 -17 -13 -17c-18 0 -84 2 -98 2c-4 0 -6 -8 -6 -9c0 -40 3 -222 4 -250c2 -40 9 -47 42 -55
c12 -3 17 -5 17 -9c0 -5 -7 -7 -16 -7c-30 0 -37 4 -92 4c-23 0 -45 -3 -62 -4c-9 0 -15 2 -15 6s7 7 20 10c24 6 29 19 29 55v248c0 7 -2 12 -6 12h-151c-3 0 -5 -8 -5 -9c0 -40 2 -225 3 -253c2 -40 6 -47 39 -54c12 -2 16 -6 16 -9c0 -5 -7 -7 -16 -7c-23 0 -48 5 -87 5
c-23 0 -44 -3 -61 -4c-9 0 -15 2 -15 6s3 6 16 10c27 6 32 19 32 55zM243 642c-49 0 -88 -42 -98 -159c-2 -28 -4 -78 -3 -95c0 -7 0 -16 1 -22c0 -6 5 -8 15 -8h140c3 0 6 7 6 9c0 42 3 118 20 171c4 14 10 28 17 40c2 3 1 9 -1 11c-26 38 -59 53 -97 53z" />
    <glyph glyph-name="f_f_l" unicode="ffl" horiz-adv-x="681" 
d="M69 67v244c0 9 -3 12 -7 12c-5 1 -18 1 -26 2c-7 0 -12 3 -12 7c0 3 4 5 11 10c6 3 15 7 25 13c6 4 9 9 9 14c0 36 5 94 18 134c16 52 47 107 110 141c27 16 58 23 88 23c31 0 66 -9 90 -33c2 -2 5 0 7 1c38 37 86 55 129 55c27 0 45 -7 59 -12c6 -3 12 -5 15 -4
c6 1 12 6 17 12c7 5 8 7 11 7s5 -4 5 -15c0 -17 -5 -167 -5 -284c0 -19 -1 -149 -1 -162c0 -91 0 -150 1 -169c2 -41 14 -46 37 -50c7 -1 15 -4 15 -8c0 -5 -8 -7 -20 -7c-17 0 -52 2 -73 2c-32 0 -63 -3 -70 -3c-11 0 -17 2 -17 7c0 4 4 5 17 9c27 5 32 13 36 53
c2 44 3 144 4 254c0 3 -2 6 -4 6c-38 0 -135 1 -155 1c-4 0 -6 -7 -6 -9c0 -40 3 -223 4 -251c2 -53 12 -46 49 -55c12 -2 17 -5 17 -9c0 -5 -7 -7 -16 -7c-30 0 -44 4 -99 4c-23 0 -45 -3 -62 -4c-9 0 -15 2 -15 6s7 7 20 10c24 6 29 19 29 55v249c0 6 -2 11 -6 11h-151
c-3 0 -5 -7 -5 -8c0 -41 2 -226 3 -254c2 -40 6 -47 39 -54c12 -2 16 -6 16 -9c0 -5 -7 -7 -16 -7c-23 0 -48 5 -87 5c-23 0 -44 -3 -61 -4c-9 0 -15 2 -15 6s3 6 16 10c27 6 32 19 32 55zM467 665c-46 0 -78 -43 -87 -155c-2 -29 -3 -76 -3 -105c0 -22 0 -32 1 -38
c0 -3 2 -9 8 -9h151c3 0 5 4 5 6c0 86 2 185 1 226c-1 27 -4 38 -15 50c-14 17 -35 25 -61 25zM244 642c-53 0 -89 -42 -99 -159c-2 -28 -4 -77 -3 -94c0 -8 0 -17 1 -23c0 -6 5 -8 15 -8h139c3 0 7 7 7 9c0 42 3 121 21 175c5 12 9 24 16 36c1 2 1 9 -1 11
c-27 40 -65 53 -96 53z" />
    <glyph glyph-name="f_f_t" unicode="fft" horiz-adv-x="737" 
d="M69 67v243c0 9 -3 12 -7 13c-5 0 -18 1 -26 1c-7 0 -12 3 -12 7c0 3 3 5 10 10c6 3 16 8 26 14c6 4 9 9 9 14c0 36 5 94 18 134c16 52 47 107 110 141c27 16 58 23 88 23c34 0 66 -10 89 -33c2 -2 6 -1 8 0c15 15 31 26 50 36c25 14 55 20 80 20c33 0 74 -14 74 -38
c0 -11 -17 -26 -26 -31c-6 -4 -14 -2 -20 3c-16 14 -45 37 -76 37c-47 0 -76 -39 -84 -151c-2 -30 -4 -72 -4 -98c0 -25 1 -40 2 -45c1 -4 2 -9 9 -9h129c6 0 11 0 19 6c17 11 31 32 48 51c10 12 18 9 18 4c0 -7 -1 -42 -1 -52c0 -3 1 -9 5 -9c19 0 96 3 116 3
c2 0 7 -5 7 -13c0 -18 -6 -25 -10 -25c-34 0 -88 2 -115 2c-1 0 -4 -3 -4 -7c0 -19 1 -180 2 -209c1 -30 4 -41 11 -51c14 -21 35 -27 57 -27s42 8 53 13c8 6 11 4 11 0c0 -5 -8 -16 -22 -26c-25 -18 -53 -27 -82 -27c-45 0 -73 13 -91 45c-8 13 -12 40 -12 64v209
c0 11 -4 16 -10 17h-133c-4 0 -6 -8 -6 -9c0 -40 3 -222 4 -250c2 -40 10 -45 20 -48c8 -3 19 -4 32 -7c12 -2 18 -5 18 -9c0 -5 -8 -7 -17 -7c-30 0 -47 4 -102 4c-23 0 -45 -3 -62 -4c-9 0 -15 2 -15 6s7 7 20 10c24 6 29 19 29 55v248c0 7 -2 12 -6 12h-151
c-3 0 -5 -8 -5 -9c0 -40 2 -225 3 -253c2 -41 7 -47 39 -54c12 -2 16 -5 16 -9c0 -5 -6 -7 -16 -7c-22 0 -48 5 -87 5c-23 0 -44 -3 -61 -4c-9 0 -15 2 -15 6s3 6 16 10c27 6 32 19 32 55zM244 642c-53 0 -89 -43 -99 -160c-2 -28 -3 -73 -3 -91c0 -8 0 -18 1 -25
c0 -6 5 -8 15 -8h140c3 0 6 7 6 9c0 41 3 117 20 170c4 14 10 28 17 41c1 2 1 9 -1 11c-27 40 -65 53 -96 53z" />
    <glyph glyph-name="f_h" unicode="fh" horiz-adv-x="690" 
d="M69 67v239c0 9 -2 13 -5 14c-6 0 -17 0 -28 1c-6 1 -13 6 -13 9c0 2 5 5 12 10c7 4 16 9 25 15c6 4 9 10 9 14c0 51 5 119 18 160c18 53 48 104 108 137c28 18 60 24 83 24c25 0 44 -5 61 -14c4 -1 9 -2 14 1c6 3 11 4 18 8c8 4 11 4 13 4s4 -4 4 -17
c-2 -37 -5 -220 -4 -355c0 -2 2 -4 5 -1c12 11 38 30 57 39c17 8 44 16 65 16c34 0 55 -11 71 -21c28 -20 43 -57 45 -111c1 -41 0 -74 1 -111c0 -24 1 -62 2 -85c2 -16 5 -26 32 -31c13 -3 17 -6 17 -10s-9 -7 -17 -7c-27 0 -44 5 -74 5c-38 0 -44 -4 -69 -4
c-12 0 -17 3 -17 6c0 5 6 6 16 9c27 6 30 17 32 43c2 23 4 44 4 157c0 25 -2 67 -14 88c-13 22 -35 36 -67 36c-31 0 -63 -16 -78 -31c-11 -11 -12 -22 -12 -39c-1 -119 4 -201 6 -223c3 -19 10 -26 30 -30c13 -2 21 -5 21 -9c0 -3 -6 -7 -16 -7c-28 0 -57 4 -83 4
c-34 0 -48 -4 -69 -4c-11 0 -16 2 -16 6s4 7 16 9c28 7 34 15 36 54s4 125 4 279c0 150 -1 215 -2 252c-2 27 -7 40 -28 52c-16 11 -29 17 -48 17c-44 0 -79 -39 -89 -155c-2 -30 -4 -91 -3 -124c0 -7 0 -16 1 -21c0 -5 4 -7 12 -7c9 0 85 2 96 2c5 0 9 -8 9 -21
s-3 -17 -14 -17c-18 0 -85 2 -99 2c-2 0 -5 -7 -5 -9c0 -40 2 -220 4 -248c2 -37 11 -45 20 -48s19 -4 32 -7c12 -2 18 -5 18 -9c0 -5 -8 -7 -17 -7c-30 0 -47 4 -102 4c-23 0 -45 -3 -61 -4c-10 0 -15 2 -15 6s6 7 19 10c24 6 29 19 29 55z" />
    <glyph glyph-name="f_i" unicode="fi" horiz-adv-x="443" 
d="M297 690c44 0 70 -15 83 -28c10 -9 13 -19 13 -25c0 -23 -25 -37 -33 -37c-7 0 -15 5 -21 14c-28 34 -53 50 -85 50c-25 0 -46 -8 -68 -35c-29 -37 -41 -112 -43 -175c-1 -29 -2 -62 -1 -84c1 -8 1 -12 8 -12c15 0 106 0 130 1c44 2 78 10 87 15c5 3 8 5 10 5
c3 -1 4 -5 4 -14c0 -14 -1 -76 -1 -144c0 -101 1 -145 2 -171c1 -27 5 -34 29 -39c11 -2 14 -5 14 -9c0 -3 -6 -5 -12 -5c-20 0 -42 3 -76 3c-32 0 -54 -2 -64 -2c-9 0 -18 0 -18 6c0 3 7 7 20 9c24 6 28 14 31 64c2 40 1 199 1 228c-1 17 -3 21 -24 22c-31 1 -118 1 -136 1
c-2 0 -5 -9 -5 -16c-1 -21 0 -83 1 -143c0 -62 2 -99 4 -118c2 -27 18 -35 39 -38c12 -3 18 -6 18 -10s-8 -6 -16 -6c-18 0 -48 3 -93 3c-24 0 -47 -3 -58 -4c-6 0 -16 1 -16 6c0 3 5 6 16 10c22 6 28 10 31 40c2 44 1 225 1 258c0 11 -5 13 -7 14l-25 2c-7 1 -13 4 -13 6
c0 4 3 5 11 9c5 3 20 9 28 14c3 2 6 6 6 12c0 22 3 94 19 146c13 46 44 106 105 142c32 23 67 35 104 35z" />
    <glyph glyph-name="f_j" unicode="fj" horiz-adv-x="431" 
d="M289 690c54 0 95 -22 95 -52c0 -23 -25 -37 -34 -37c-6 0 -14 6 -20 14c-28 34 -53 49 -81 49c-26 0 -43 -8 -62 -30c-28 -35 -41 -107 -44 -163l-2 -50c-1 -19 0 -39 1 -51c1 -4 2 -12 7 -12c12 0 93 0 124 1c45 2 76 10 85 15c5 3 7 5 10 5s4 -4 4 -14
c0 -94 -2 -203 -2 -290c0 -51 -3 -98 -4 -121c-9 -128 -88 -209 -144 -238c-11 -6 -26 -7 -26 0c0 3 4 6 11 10c61 32 86 112 88 205c3 91 3 215 2 288c-1 59 -2 82 -4 91c-1 11 -3 17 -22 18c-31 1 -106 1 -124 1c-2 0 -5 -9 -5 -16c0 -152 3 -238 5 -262
c2 -27 18 -35 39 -38c12 -3 18 -6 18 -10s-8 -6 -16 -6c-18 0 -48 3 -93 3c-24 0 -47 -3 -58 -4c-6 0 -16 1 -16 6c0 3 5 6 16 10c22 6 28 10 31 40c2 44 1 225 1 259c0 11 -5 13 -7 14c-9 0 -20 1 -27 2s-11 3 -11 5c0 4 4 7 10 10c5 3 21 9 29 14c3 2 6 6 6 12
c0 21 3 93 19 145c13 46 45 110 107 146c31 22 66 31 94 31z" />
    <glyph glyph-name="f_k" unicode="fk" horiz-adv-x="670" 
d="M279 690c24 0 43 -5 60 -14c4 -1 9 -2 14 1c6 3 12 4 18 8c9 4 11 4 14 4c2 0 4 -4 3 -17c0 -60 -10 -252 -10 -458c0 -11 2 -16 5 -16c4 0 12 6 19 11c40 30 90 77 108 102c6 6 10 13 10 17c0 6 -6 13 -30 16c-9 2 -17 4 -17 9c0 4 8 7 16 7c16 0 37 -1 47 -1
c21 0 64 5 92 5c11 0 16 -3 16 -6s-3 -6 -15 -8c-34 -7 -52 -14 -91 -44c-25 -20 -69 -58 -89 -78c-2 -1 -1 -5 0 -6c32 -41 104 -118 148 -164c27 -27 42 -40 71 -46c10 -3 15 -6 15 -10c0 -6 -9 -7 -18 -7c-39 0 -81 5 -115 5c-18 0 -30 -2 -45 -2c-11 0 -19 1 -19 6
s5 7 22 11c17 5 20 13 11 27c-20 23 -87 97 -117 128c-9 9 -16 17 -20 17c-3 0 -3 -6 -4 -10c-1 -18 -1 -56 -1 -105c1 -49 10 -52 39 -59c10 -2 16 -5 16 -9c0 -5 -10 -7 -20 -7c-28 0 -52 3 -78 3c-34 0 -58 -3 -68 -3s-16 2 -16 7c0 3 6 6 13 8c31 7 37 16 39 49
c4 73 5 155 5 233c1 79 3 230 3 302c-2 27 -7 40 -28 52c-16 11 -29 17 -48 17c-44 0 -79 -39 -89 -155c-2 -29 -3 -86 -3 -120c0 -9 0 -19 1 -25c0 -5 4 -7 12 -7c9 0 85 2 96 2c5 0 9 -8 9 -21s-3 -17 -14 -17c-18 0 -85 2 -99 2c-2 0 -5 -7 -5 -9c0 -40 2 -220 4 -248
c2 -37 11 -45 20 -48s19 -4 32 -7c12 -2 18 -5 18 -9c0 -5 -8 -7 -17 -7c-30 0 -47 4 -102 4c-23 0 -45 -3 -61 -4c-10 0 -15 2 -15 6s6 7 19 10c24 6 29 19 29 55v239c0 9 -2 13 -5 14c-6 0 -17 0 -28 1c-6 1 -13 6 -13 9c0 2 5 5 12 10c7 4 16 9 25 15c6 4 9 10 9 14
c0 51 5 119 18 160c18 53 48 104 108 137c28 18 60 24 84 24z" />
    <glyph glyph-name="f_l" unicode="fl" horiz-adv-x="444" 
d="M69 67v239c0 9 -2 13 -5 14c-6 0 -17 0 -28 1c-6 1 -13 6 -13 9c0 2 5 5 12 10c7 4 16 9 25 15c6 4 9 10 9 14c0 51 5 119 18 160c18 53 48 104 108 137c25 16 54 24 80 24c23 0 42 -5 60 -12c7 -3 14 -5 17 -4c6 1 12 6 17 12c7 5 8 7 11 7c4 0 5 -4 5 -15
c0 -17 -5 -167 -5 -284l-1 -151c-1 -132 0 -168 1 -186c1 -36 10 -40 36 -44c5 -2 13 -4 13 -8c0 -5 -8 -7 -21 -7c-19 0 -56 2 -73 2c-26 0 -49 -2 -67 -2c-12 0 -18 1 -18 6s5 6 17 9c26 6 33 11 36 55c2 37 4 214 5 327c0 68 2 150 1 197c-1 27 -5 36 -16 48
c-15 17 -34 25 -59 25c-44 0 -79 -39 -89 -155c-2 -29 -3 -87 -3 -121c0 -8 0 -18 1 -24c0 -5 4 -7 12 -7c9 0 85 2 96 2c5 0 9 -8 9 -21s-3 -17 -14 -17c-18 0 -85 2 -99 2c-2 0 -5 -7 -5 -9c0 -40 2 -220 4 -248c2 -35 7 -44 19 -49c6 -2 13 -3 22 -6c12 -2 18 -5 18 -9
c0 -5 -8 -7 -17 -7c-30 0 -23 4 -78 4c-23 0 -58 -3 -74 -4c-10 0 -15 2 -15 6s6 7 19 10c24 6 29 19 29 55z" />
    <glyph glyph-name="f_t" unicode="ft" horiz-adv-x="512" 
d="M69 67v239c0 9 -5 12 -12 13l-20 2c-8 0 -14 2 -14 9c0 2 6 5 13 9c13 8 33 17 33 30c0 51 4 119 18 160c25 81 97 161 193 161c42 0 71 -22 71 -37c0 -11 -17 -27 -27 -32c-16 -9 -44 34 -90 39c-6 1 -11 1 -16 1c-38 -6 -68 -42 -74 -162c-2 -41 -3 -94 -2 -118
c1 -10 -2 -23 13 -23c8 0 122 2 145 2c3 0 7 1 12 4c20 12 47 48 59 56c3 2 6 2 6 -1c0 -7 -1 -42 -1 -52c0 -3 1 -9 5 -9c18 0 96 3 116 3c2 0 7 -5 7 -13c0 -18 -6 -28 -11 -28c-33 0 -87 3 -114 3c-1 0 -4 -4 -4 -8c-1 -18 2 -166 2 -203c0 -64 29 -81 68 -81
c44 0 64 26 64 13c0 -24 -65 -53 -106 -53c-64 0 -102 29 -102 109v201c0 9 0 17 -6 20c-18 4 -131 2 -148 2c-2 0 -5 -7 -5 -9c0 -40 2 -219 4 -247c2 -37 11 -45 20 -48c14 -5 50 -7 50 -16c0 -5 -8 -7 -17 -7c-31 0 -48 4 -102 4c-23 0 -45 -3 -61 -4c-10 0 -15 2 -15 6
s6 7 19 10c24 6 29 19 29 55z" />
    <glyph glyph-name="longs_b" unicode="&#x17f;b" horiz-adv-x="672" 
d="M271 690c18 0 41 -4 59 -12c5 -2 7 -2 11 1c6 5 10 9 16 13c4 3 6 4 8 4c3 0 4 -4 4 -17c-3 -61 -5 -214 -5 -336c0 -5 3 -10 5 -8c23 14 61 33 103 33c58 0 100 -28 123 -55c31 -33 45 -80 45 -121c0 -61 -23 -106 -51 -134c-42 -44 -103 -69 -157 -69
c-36 0 -82 10 -114 25c-8 3 -16 1 -29 -3c-4 -2 -7 2 -6 7c0 21 2 55 4 104c2 47 6 246 6 316c0 63 0 151 -1 168c-2 20 -3 30 -11 37c-15 16 -32 20 -51 20c-43 0 -74 -36 -84 -152c-2 -31 -5 -112 -4 -178c-1 -40 2 -238 4 -266c2 -36 7 -43 17 -48l25 -7
c12 -2 18 -5 18 -9c0 -5 -7 -7 -17 -7c-30 0 -37 4 -92 4c-23 0 -45 -3 -61 -4c-10 0 -15 2 -15 6s6 7 19 10c24 6 29 19 29 55v239c0 9 -2 13 -5 14c-6 0 -17 0 -28 1c-6 1 -13 6 -13 9c0 2 5 5 12 10c7 4 16 9 25 15c6 4 9 10 9 14c0 51 5 119 18 160
c18 53 48 106 108 139c27 16 49 22 76 22zM563 167c0 45 -14 90 -40 122c-21 25 -57 48 -98 48c-28 0 -45 -8 -53 -14c-4 -4 -9 -14 -9 -23c-2 -18 -3 -105 -2 -146c0 -31 5 -75 15 -94c8 -16 17 -28 31 -37c16 -10 39 -14 58 -14c48 0 98 57 98 158z" />
    <glyph glyph-name="longs_h" unicode="&#x17f;h" horiz-adv-x="699" 
d="M97 0c-23 0 -45 -3 -61 -4c-10 0 -15 2 -15 6s6 7 19 10c24 6 29 19 29 55v239c0 9 -2 13 -5 14c-6 0 -17 0 -28 1c-6 1 -13 6 -13 9c0 2 5 5 12 10c7 4 16 9 25 15c6 4 9 10 9 14c0 51 5 119 18 160c18 53 50 108 108 140c27 16 50 21 77 21c17 0 40 -4 58 -12
c5 -2 7 -2 11 1l15 13c5 3 6 4 9 4c2 0 4 -6 4 -19c-1 -24 -3 -342 -2 -360c0 -2 2 -4 5 -1c12 11 37 29 57 38c17 9 41 16 66 17c32 0 55 -11 70 -21c28 -20 43 -57 45 -111c1 -42 0 -76 1 -114c0 -23 1 -60 2 -82c2 -16 6 -26 32 -31c13 -3 17 -6 17 -10s-8 -7 -17 -7
c-26 0 -44 5 -74 5c-38 0 -44 -4 -69 -4c-12 0 -17 3 -17 6c0 5 6 6 16 9c27 6 30 17 32 43c2 23 4 44 4 157c0 25 -2 67 -14 88c-13 22 -34 36 -67 36c-31 0 -63 -16 -78 -31c-11 -11 -12 -22 -12 -39c-1 -119 4 -201 6 -223c3 -19 10 -26 30 -30c13 -2 21 -5 21 -9
c0 -3 -6 -7 -16 -7c-28 0 -57 4 -83 4c-34 0 -48 -4 -68 -4c-11 0 -17 2 -17 6s5 7 17 9c27 7 33 15 35 54s4 170 4 324c0 116 -1 182 -2 217c-1 18 -6 31 -12 37c-15 16 -32 21 -51 21c-43 0 -72 -37 -83 -153c-4 -44 -6 -112 -5 -178c-1 -40 2 -238 4 -266
c3 -45 4 -46 37 -55c12 -2 18 -5 18 -9c0 -5 -7 -7 -17 -7c-30 0 -32 4 -87 4z" />
    <glyph glyph-name="longs_i" unicode="&#x17f;i" horiz-adv-x="423" 
d="M69 67v239c0 9 -2 13 -5 14c-6 0 -17 0 -28 1c-6 1 -13 6 -13 9c0 2 5 5 12 10c7 4 16 9 25 15c6 4 9 10 9 14c0 51 6 115 19 156c20 61 56 111 112 141c29 17 62 24 89 24c37 0 64 -14 77 -28c7 -8 10 -16 10 -22c0 -17 -19 -35 -33 -37c-6 -1 -18 9 -21 13
c-29 36 -53 47 -85 47c-43 0 -78 -39 -90 -154c-3 -40 -5 -98 -5 -194c0 -40 2 -220 4 -248c3 -48 3 -47 37 -55c12 -2 18 -5 18 -9c0 -5 -8 -7 -17 -7c-30 0 -32 4 -87 4c-23 0 -45 -3 -61 -4c-10 0 -15 2 -15 6s6 7 19 10c24 6 29 19 29 55zM253 335h-1c0 3 6 6 15 8
c32 6 59 16 74 25c8 5 13 7 16 7s5 -3 5 -14s-1 -79 -1 -138c0 -90 0 -166 2 -182c2 -19 11 -25 28 -29c11 -3 15 -5 15 -9c0 -5 -8 -7 -16 -7c-13 0 -48 4 -77 4c-35 0 -53 -2 -64 -2c-7 0 -14 2 -14 6s5 7 19 10c22 5 32 15 32 54c0 30 3 202 3 212c0 23 -3 29 -29 45
c-5 4 -7 6 -7 10z" />
    <glyph glyph-name="longs_k" unicode="&#x17f;k" horiz-adv-x="652" 
d="M272 690c17 0 39 -4 57 -12c5 -2 8 -2 12 1c5 5 9 9 15 13c4 3 6 4 8 4c3 0 4 -6 4 -19c-1 -25 -4 -106 -4 -186c-1 -62 -5 -185 -4 -277c0 -11 2 -16 5 -16c4 0 11 6 19 11c39 30 90 77 108 102c5 6 10 13 10 17c0 6 -7 13 -31 16c-9 2 -16 4 -16 9c0 4 7 7 16 7
c16 0 37 -1 47 -1c21 0 64 5 92 5c11 0 15 -3 15 -6s-2 -6 -14 -8c-34 -7 -53 -14 -92 -44c-25 -20 -68 -58 -88 -78c-2 -1 -1 -5 0 -6c31 -41 103 -118 148 -164c26 -27 42 -40 71 -46c9 -3 15 -6 15 -10c0 -6 -9 -7 -18 -7c-39 0 -82 5 -116 5c-17 0 -30 -2 -45 -2
c-11 0 -19 1 -19 6s5 7 22 11c17 5 20 13 11 27c-20 23 -86 97 -116 128c-10 9 -17 17 -20 17s-4 -6 -4 -10c-2 -18 -1 -56 -1 -105c1 -49 10 -52 38 -59c11 -2 17 -5 17 -9c0 -5 -10 -7 -20 -7c-28 0 -52 3 -78 3c-34 0 -59 -3 -68 -3c-10 0 -17 2 -17 7c0 3 6 6 14 8
c30 7 36 16 38 49c4 73 5 155 6 233c1 82 4 234 3 312c-2 18 -6 31 -12 37c-15 16 -31 21 -50 21c-43 0 -72 -37 -83 -153c-4 -44 -6 -112 -5 -178c-1 -40 2 -238 4 -266c3 -45 4 -46 37 -55c12 -2 18 -5 18 -9c0 -5 -7 -7 -17 -7c-30 0 -32 4 -87 4c-23 0 -45 -3 -61 -4
c-10 0 -15 2 -15 6s6 7 19 10c24 6 29 19 29 55v239c0 9 -2 13 -5 14c-6 0 -17 0 -28 1c-6 1 -13 6 -13 9c0 2 5 5 12 10c7 4 16 9 25 15c6 4 9 10 9 14c0 51 6 120 20 160c17 54 48 108 106 140c27 16 50 21 77 21z" />
    <glyph glyph-name="longs_l" unicode="&#x17f;l" horiz-adv-x="427" 
d="M69 67v239c0 9 -2 13 -5 14c-6 0 -17 0 -28 1c-6 1 -13 6 -13 9c0 2 5 5 12 10c7 4 16 9 25 15c6 4 9 10 9 14c0 51 5 119 18 160c18 53 49 107 109 140c27 16 49 21 76 21c17 0 40 -4 58 -12c5 -2 7 -2 11 1c6 5 9 9 15 13c4 3 6 4 8 4c3 0 4 -6 4 -19
c0 -7 -5 -179 -5 -335v-99c0 -132 2 -168 3 -186c1 -36 8 -40 34 -44c6 -2 13 -4 13 -8c0 -5 -7 -7 -20 -7c-20 0 -57 2 -73 2c-27 0 -50 -2 -68 -2c-12 0 -18 1 -18 6s5 6 17 9c26 6 33 11 36 55c3 37 5 232 6 346c0 78 0 153 -1 192c-2 18 -5 31 -11 37
c-15 16 -32 21 -51 21c-43 0 -73 -37 -83 -153c-4 -44 -5 -112 -5 -178c0 -40 2 -238 4 -266c3 -45 4 -46 37 -55c12 -2 18 -5 18 -9c0 -5 -7 -7 -17 -7c-30 0 -32 4 -87 4c-23 0 -45 -3 -61 -4c-10 0 -15 2 -15 6s6 7 19 10c24 6 29 19 29 55z" />
    <glyph glyph-name="longs_longs" unicode="&#x17f;&#x17f;" horiz-adv-x="436" 
d="M73 67v243c0 9 -3 12 -7 13c-5 0 -18 1 -27 1c-6 0 -12 3 -12 7c0 3 4 5 11 10l25 14c7 4 10 9 10 14c0 36 5 93 18 134c17 51 48 107 111 141c27 16 56 23 84 23c32 0 64 -9 87 -30c2 -2 6 -1 8 0c38 37 82 53 126 53c46 0 74 -22 74 -38c0 -11 -17 -26 -27 -31
c-6 -4 -13 -2 -19 3c-16 14 -47 36 -78 36c-46 0 -76 -37 -83 -149c-3 -58 -3 -143 -2 -194c0 -41 2 -222 3 -250c2 -43 6 -48 37 -55c12 -2 17 -5 17 -9c0 -5 -7 -7 -17 -7c-29 0 -31 4 -85 4c-23 0 -46 -3 -62 -4c-9 0 -15 2 -15 6s6 7 19 10c25 6 30 19 30 55v242
c0 9 -4 12 -8 12c-5 1 -17 1 -26 2c-7 0 -12 3 -12 7c0 3 4 5 11 10c6 3 15 9 25 14c6 4 10 9 10 14c0 68 9 157 39 214c1 3 1 9 -1 11c-26 40 -61 49 -88 49c-53 0 -91 -42 -100 -159c-2 -31 -3 -131 -3 -165c0 -40 2 -225 3 -253c1 -41 7 -47 39 -54c12 -2 16 -5 16 -9
c0 -5 -6 -7 -16 -7c-22 0 -48 5 -87 5c-23 0 -45 -3 -61 -4c-9 0 -16 2 -16 6s4 6 17 10c27 6 32 19 32 55z" />
    <glyph glyph-name="longs_longs_i" unicode="&#x17f;&#x17f;i" horiz-adv-x="648" 
d="M69 67v243c0 9 -3 12 -7 13c-5 0 -18 1 -26 1c-7 0 -12 3 -12 7c0 3 3 5 10 10c6 3 16 8 26 14c6 4 9 9 9 14c0 36 5 93 18 134c17 51 48 107 111 141c27 16 56 23 84 23c32 0 64 -9 87 -30c2 -2 6 -1 8 0c38 37 83 53 126 53c46 0 74 -22 74 -38c0 -11 -17 -26 -27 -31
c-6 -4 -13 -2 -19 3c-16 14 -47 36 -78 36c-46 0 -76 -37 -83 -149c-3 -58 -4 -143 -3 -194c0 -41 2 -222 3 -250c2 -43 6 -48 37 -55c12 -2 18 -5 18 -9c0 -5 -8 -7 -17 -7c-30 0 -30 4 -85 4c-23 0 -46 -3 -62 -4c-9 0 -15 2 -15 6s6 7 19 10c25 6 30 19 30 55v242
c0 9 -4 12 -8 12c-5 1 -17 1 -26 2c-6 0 -12 3 -12 7c0 3 4 5 11 10c6 3 15 9 25 14c6 4 10 9 10 14c0 68 9 157 39 214c2 3 1 9 -1 11c-26 40 -61 49 -88 49c-53 0 -91 -42 -100 -159c-2 -31 -4 -131 -4 -165c0 -40 3 -225 4 -253c1 -41 7 -47 39 -54c12 -2 16 -5 16 -9
c0 -5 -7 -7 -16 -7c-23 0 -48 5 -87 5c-23 0 -44 -3 -61 -4c-9 0 -15 2 -15 6s3 6 16 10c27 6 32 19 32 55zM478 335c0 3 6 6 15 8c31 6 59 16 74 25c8 5 13 7 16 7s5 -3 5 -14s-2 -79 -2 -138c0 -90 1 -166 3 -182c2 -19 11 -25 28 -29c11 -3 15 -5 15 -9
c0 -5 -8 -7 -16 -7c-13 0 -49 4 -77 4c-35 0 -53 -2 -64 -2c-7 0 -14 2 -14 6s5 7 18 10c23 5 33 15 33 54c0 30 3 202 3 212c0 23 -3 29 -29 45c-5 4 -8 6 -8 10z" />
    <glyph glyph-name="longs_longs_l" unicode="&#x17f;&#x17f;l" horiz-adv-x="652" 
d="M68 67v243c0 9 -3 12 -7 13c-5 0 -18 1 -27 1c-6 0 -12 3 -12 7c0 3 4 5 11 10c6 3 16 8 26 14c6 4 9 9 9 14c0 36 5 93 18 134c17 51 48 107 111 141c27 16 56 23 84 23c32 0 63 -9 86 -30c2 -2 5 0 7 1c38 38 79 52 122 52c17 0 41 -4 58 -12c5 -2 8 -2 12 1
c5 5 8 9 14 13c5 3 6 4 8 4c3 0 4 -6 4 -19c0 -7 -4 -179 -4 -335v-99c0 -132 1 -168 2 -186c1 -36 9 -40 34 -44c6 -2 13 -4 13 -8c0 -5 -7 -7 -20 -7c-20 0 -56 2 -73 2c-26 0 -50 -2 -68 -2c-12 0 -18 1 -18 6s5 6 17 9c26 5 32 11 35 54c3 38 6 233 7 347
c0 78 0 153 -1 192c-1 18 -4 31 -11 37c-15 16 -32 21 -52 21c-43 0 -71 -37 -82 -153c-3 -44 -5 -112 -5 -178c0 -78 3 -237 4 -265c2 -43 6 -48 37 -55c12 -3 17 -5 17 -9c0 -5 -7 -7 -16 -7c-30 0 -31 3 -86 3c-23 0 -46 -3 -62 -4c-9 0 -15 2 -15 6s6 7 19 10
c25 6 30 19 30 55v242c0 9 -4 12 -8 12c-5 1 -17 1 -26 2c-7 0 -12 3 -12 7c0 3 4 5 11 10c6 3 15 9 25 14c6 4 10 9 10 14c0 68 9 157 39 214c2 3 1 9 -1 11c-26 40 -61 49 -88 49c-53 0 -91 -42 -100 -159c-2 -31 -3 -131 -3 -165c0 -40 2 -225 3 -253c1 -41 7 -47 39 -54
c12 -2 16 -5 16 -9c0 -5 -6 -7 -16 -7c-22 0 -48 5 -87 5c-23 0 -45 -3 -61 -4c-9 0 -16 2 -16 6s4 6 17 10c27 6 32 19 32 55z" />
    <glyph glyph-name="longs_t" unicode="&#x17f;t" horiz-adv-x="503" 
d="M69 67v239c0 9 -2 13 -5 14c-6 0 -17 0 -28 1c-6 1 -13 6 -13 9c0 2 5 5 12 10c7 4 16 9 25 15c6 4 9 10 9 14c0 51 4 114 18 155c17 53 44 100 104 132c18 10 42 18 65 18c40 0 72 -13 93 -46c14 -21 20 -53 20 -74c0 -34 -1 -130 -1 -186c0 -3 1 -9 5 -9
c18 0 95 2 114 2c2 0 7 -5 7 -13c0 -17 -6 -25 -10 -25h-115c-1 0 -4 -3 -4 -7c0 -19 0 -176 1 -206s5 -42 12 -52c14 -21 35 -27 58 -27c21 0 42 8 52 13c8 6 11 4 11 0c0 -5 -8 -16 -22 -26c-25 -18 -54 -27 -83 -27c-46 0 -75 13 -93 45c-8 13 -12 40 -12 64l1 207
c0 8 -2 13 -5 14c-6 0 -15 0 -26 1c-7 1 -11 4 -11 6c0 3 3 6 10 10l26 17c6 4 9 10 9 14c3 31 6 119 6 164c0 34 -7 65 -15 78c-13 23 -29 38 -60 38c-53 0 -72 -68 -80 -174c-2 -37 -2 -134 -2 -173c0 -53 2 -196 4 -235c2 -37 11 -45 20 -48s19 -4 32 -7
c12 -2 17 -5 17 -9c0 -5 -7 -7 -16 -7c-30 0 -47 4 -102 4c-23 0 -45 -3 -61 -4c-10 0 -15 2 -15 6s6 7 19 10c24 6 29 19 29 55z" />
    <glyph glyph-name="Tcommaaccent_h" unicode="&#x162;h" horiz-adv-x="930" 
d="M297 625h216c49 0 75 5 86 12c7 4 13 9 18 19c4 5 8 10 12 10c3 0 5 -4 4 -17c-3 -28 -5 -69 -6 -93c0 -25 -4 -220 -4 -238c0 -4 3 -5 5 -4c12 12 39 31 58 40c17 9 42 17 67 17c34 0 68 -12 92 -45c11 -14 22 -45 23 -106c1 -73 0 -135 1 -177c1 -19 5 -26 34 -31
c11 -3 16 -6 16 -10s-8 -7 -16 -7c-27 0 -45 5 -74 5c-39 0 -46 -4 -71 -4c-12 0 -16 3 -16 6c0 5 5 6 15 9c27 5 30 13 33 43c2 23 5 69 5 168c0 25 -3 57 -14 76c-13 23 -36 36 -68 36c-37 0 -66 -18 -81 -33c-5 -5 -10 -15 -10 -34c0 -137 3 -199 6 -220
c3 -19 9 -30 31 -35c14 -3 21 -5 21 -10c0 -3 -6 -6 -16 -6c-28 0 -57 4 -83 4c-34 0 -48 -4 -69 -4c-11 0 -16 2 -16 6s4 6 16 9c28 7 34 11 36 47c2 39 4 132 4 286c0 150 -1 189 -2 227c0 10 -4 26 -11 27c-33 2 -185 5 -202 2c-5 -2 -7 -9 -7 -16c0 -38 -1 -259 -1 -316
c-1 -60 2 -177 6 -207c4 -33 13 -40 47 -50c12 -3 17 -5 17 -10c0 -6 -6 -7 -19 -7c-23 0 -58 6 -99 6c-56 0 -87 -6 -102 -6c-13 0 -19 5 -19 9c0 5 10 8 21 10c48 6 54 21 57 68c6 98 6 490 5 502c-2 14 -3 17 -7 18c-6 1 -40 3 -85 3c-38 0 -65 -3 -84 -6
s-28 -14 -44 -55c-4 -12 -10 -17 -14 -17s-4 8 -3 16c5 33 10 75 11 89c0 8 1 13 5 15c3 2 6 -1 9 -4c4 -5 13 -11 38 -13c16 -2 126 -4 228 -4zM275 -38c24 0 50 -21 50 -56c0 -58 -65 -81 -72 -81c-6 0 -12 -1 -12 4c0 2 5 5 11 7c24 11 41 28 41 51c0 17 -11 24 -22 28
c-14 4 -25 9 -25 23s15 24 29 24z" />
    <glyph glyph-name="Tcaron_h" unicode="&#x164;h" horiz-adv-x="930" 
d="M297 625h216c49 0 75 5 86 12c7 4 13 9 18 19c4 5 8 10 12 10c3 0 5 -4 4 -17c-3 -28 -5 -69 -6 -93c0 -25 -4 -220 -4 -238c0 -4 3 -5 5 -4c12 12 39 31 58 40c17 9 42 17 67 17c34 0 68 -12 92 -45c11 -14 22 -45 23 -106c1 -73 0 -135 1 -177c1 -19 5 -26 34 -31
c11 -3 16 -6 16 -10s-8 -7 -16 -7c-27 0 -45 5 -74 5c-39 0 -46 -4 -71 -4c-12 0 -16 3 -16 6c0 5 5 6 15 9c27 5 30 13 33 43c2 23 5 69 5 168c0 25 -3 57 -14 76c-13 23 -36 36 -68 36c-37 0 -66 -18 -81 -33c-5 -5 -10 -15 -10 -34c0 -137 3 -199 6 -220
c3 -19 9 -30 31 -35c14 -3 21 -5 21 -10c0 -3 -6 -6 -16 -6c-28 0 -57 4 -83 4c-34 0 -48 -4 -69 -4c-11 0 -16 2 -16 6s4 6 16 9c28 7 34 11 36 47c2 39 4 132 4 286c0 150 -1 189 -2 227c0 10 -4 26 -11 27c-33 2 -185 5 -202 2c-5 -2 -7 -9 -7 -16c0 -38 -1 -259 -1 -316
c-1 -60 2 -177 6 -207c4 -33 13 -40 47 -50c12 -3 17 -5 17 -10c0 -6 -6 -7 -19 -7c-23 0 -58 6 -99 6c-56 0 -87 -6 -102 -6c-13 0 -19 5 -19 9c0 5 10 8 21 10c48 6 54 21 57 68c6 98 6 490 5 502c-2 14 -3 17 -7 18c-6 1 -40 3 -85 3c-38 0 -65 -3 -84 -6
s-28 -14 -44 -55c-4 -12 -10 -17 -14 -17s-4 8 -3 16c5 33 10 75 11 89c0 8 1 13 5 15c3 2 6 -1 9 -4c4 -5 13 -11 38 -13c16 -2 126 -4 228 -4zM290 654c-4 0 -11 6 -20 17c-20 25 -64 65 -86 86c-9 8 -1 9 3 8c28 -8 80 -44 102 -60c4 -3 8 0 10 2c28 18 77 51 100 59
c6 2 17 1 5 -8c-17 -14 -64 -56 -94 -89c-9 -9 -16 -15 -20 -15z" />
    <glyph glyph-name="gamma_gamma" unicode="&#x3b3;&#x3b3;" horiz-adv-x="737" 
d="M448 376c38 0 83 -11 103 -124c8 -39 15 -127 13 -186c0 -9 5 -8 9 0c24 53 65 140 85 193c22 54 28 94 32 121c1 2 9 4 12 3c12 -8 26 -27 29 -43c4 -16 -3 -39 -7 -48c-27 -63 -81 -152 -114 -209c-20 -37 -32 -66 -38 -101c-1 -7 -3 -28 -3 -44
c-4 -54 -15 -181 -17 -191c-1 -8 -9 -14 -14 -14c-17 0 -39 22 -49 40c-5 11 -5 22 -4 31c3 24 27 102 50 168c4 12 12 52 12 70c5 113 -25 263 -110 263c-71 0 -132 -97 -178 -226c-14 -40 -20 -62 -27 -97c-2 -7 -4 -24 -5 -40c-4 -57 -18 -205 -22 -217
c-2 -7 -9 -13 -14 -13c-17 0 -39 22 -49 40c-5 11 -5 22 -4 31c3 24 35 123 57 189c5 12 12 52 12 70c5 136 -33 261 -117 261c-35 0 -59 -21 -78 -48c-2 -2 -7 -5 -8 -4c-2 0 -4 5 -4 8c1 16 9 41 18 57c18 28 51 60 92 60c38 0 85 -14 106 -127c7 -39 12 -122 10 -175
c0 -10 4 -9 8 -1c28 80 106 303 214 303z" />
    <glyph glyph-name="lambda_lambda" unicode="&#x3bb;&#x3bb;" horiz-adv-x="693" 
d="M82 666c46 0 77 -34 105 -141c14 -54 72 -357 91 -416c13 -44 26 -57 42 -57c11 0 24 18 38 46c41 79 94 187 103 208c11 21 30 50 35 55c3 4 5 11 3 17c-10 56 -25 114 -47 159c-26 50 -58 91 -115 91c-37 0 -57 -9 -83 -26c-3 -3 -8 0 -7 6c1 7 6 17 14 28
c21 33 60 54 100 54c65 0 98 -52 129 -153c16 -55 74 -360 93 -419c13 -42 29 -58 65 -58c15 0 33 6 46 12c2 2 4 -3 4 -7c-1 -14 -5 -31 -12 -44c-13 -24 -34 -38 -53 -38c-36 0 -49 47 -62 88c-15 58 -50 207 -51 216c-1 3 -2 6 -4 6s-4 -3 -4 -5
c-7 -18 -106 -244 -120 -265c-14 -23 -30 -40 -53 -40c-42 0 -62 45 -74 86c-17 59 -51 208 -52 217c-1 3 -2 6 -4 6s-4 -3 -4 -5c-8 -22 -97 -258 -105 -273c-4 -11 -18 -29 -25 -29c-6 0 -36 8 -49 18c-4 3 -8 13 -6 15c9 21 123 261 133 283s30 56 36 61c3 4 5 11 3 17
c-10 56 -16 97 -35 142c-26 57 -60 81 -100 81c-24 0 -44 -7 -58 -13c-4 -1 -8 2 -7 8c1 7 5 18 13 28c16 21 41 41 77 41z" />
    <glyph glyph-name=".notdef" horiz-adv-x="500" 
d="M0 0v700h500v-700h-500zM250 395l170 255h-340zM280 350l170 -255v510zM80 50h340l-170 255zM50 605v-510l170 255z" />
    <glyph glyph-name="space" unicode=" " horiz-adv-x="146" 
 />
    <glyph glyph-name="exclam" unicode="!" horiz-adv-x="252" 
d="M153 168c-6 0 -10 6 -12 28c-10 98 -36 246 -38 311c-1 32 19 76 49 76c33 0 50 -37 50 -73c0 -51 -31 -248 -38 -312c-2 -22 -6 -30 -11 -30zM154 -11c-22 0 -49 18 -49 48s25 51 49 51c32 0 44 -34 44 -51c0 -31 -27 -48 -44 -48z" />
    <glyph glyph-name="quotedbl" unicode="&#x22;" horiz-adv-x="226" 
d="M78 666c8 0 10 -10 10 -31c0 -24 -11 -107 -20 -131c-2 -7 -8 -23 -11 -24c-5 -3 -8 0 -8 3c-2 46 -9 112 -14 137c-1 2 0 11 3 15c8 11 31 31 40 31zM181 672c8 0 10 -11 10 -31c0 -24 -11 -108 -20 -133c-2 -7 -8 -22 -11 -23c-5 -4 -8 0 -8 3c-2 46 -9 113 -14 138
c-1 1 0 10 3 14c8 11 30 32 40 32z" />
    <glyph glyph-name="numbersign" unicode="#" horiz-adv-x="403" 
d="M363 408c-1 -6 -9 -29 -16 -29l-59 -4c-1 0 -6 -3 -7 -9l-23 -90c-1 -2 1 -6 3 -5l60 2c3 0 11 -2 9 -8c-1 -13 -9 -36 -18 -36l-62 -3c-5 0 -7 -5 -7 -6l-36 -139c-2 -6 -7 -13 -11 -13c-5 0 -10 5 -8 13l34 136c1 4 -3 6 -6 6l-76 -4c-2 0 -7 -5 -7 -7l-40 -145
c-2 -7 -6 -9 -8 -9c-6 0 -12 8 -11 11l37 143c1 4 -2 6 -4 6l-63 -2c-3 0 -5 6 -5 8c2 18 10 36 17 36l59 4c3 0 5 1 7 5l22 91c1 5 -1 9 -6 8l-59 -2c0 -1 -8 0 -5 16c1 6 9 25 14 26l64 5c5 0 9 2 8 5l32 123c1 6 11 11 17 11c4 0 4 -6 4 -9l-31 -124c-1 -2 2 -4 3 -4
l81 5c4 0 6 3 8 7l34 122c1 5 8 12 12 12c5 0 8 -6 6 -14l-30 -119c-1 -6 3 -7 5 -7l56 2c4 0 8 -9 6 -15zM260 368c1 3 -2 6 -5 5l-82 -4c-4 0 -7 -3 -7 -6l-24 -92c0 -2 2 -7 6 -6l79 4c3 0 7 1 8 6z" />
    <glyph glyph-name="dollar" unicode="$" horiz-adv-x="420" 
d="M220 264l-21 -214c0 -2 -1 -4 2 -4c55 4 108 42 108 112c0 39 -21 74 -85 109c-3 1 -4 -2 -4 -3zM213 372l20 200c0 1 0 2 -3 2c-60 -5 -99 -42 -99 -105c0 -49 34 -77 76 -100c3 -2 5 0 6 3zM236 591l7 64c0 1 6 5 11 5c3 0 5 -5 5 -6l-6 -61c0 -3 1 -6 4 -6
c41 -3 76 -14 82 -15c7 -3 11 -13 13 -24c4 -17 7 -32 7 -44c0 -13 -2 -22 -6 -22s-5 3 -8 11c-12 45 -55 74 -90 79c-3 1 -5 -3 -5 -4l-21 -204c0 -1 1 -6 4 -7c80 -43 144 -88 144 -176c0 -51 -29 -90 -62 -113c-26 -18 -76 -34 -116 -36c-1 0 -4 -1 -4 -5l-8 -71
c0 -3 -7 -7 -11 -7c-3 0 -6 4 -6 8l7 69c0 1 1 5 -2 5c-33 1 -81 15 -111 24c-6 1 -11 8 -15 27c-2 14 -9 49 -9 59c0 9 2 14 7 14c3 0 8 -9 14 -22c20 -48 67 -85 116 -87c2 0 3 4 3 5l23 221c0 4 -2 5 -4 6c-71 43 -130 87 -130 170c0 39 18 73 48 99c28 24 64 36 115 40
c1 0 3 1 4 4z" />
    <glyph glyph-name="percent" unicode="%" horiz-adv-x="553" 
d="M427 66c41 1 46 82 46 122s-10 136 -57 136c-41 0 -47 -80 -47 -121s12 -139 58 -137zM419 51c-72 0 -107 75 -107 137c0 36 7 71 27 100c20 33 51 50 87 50c74 0 104 -81 104 -136c0 -42 -8 -77 -25 -102c-20 -32 -52 -49 -86 -49zM470 588c7 0 4 -11 -1 -19
c-120 -186 -216 -335 -331 -508c-5 -8 -18 -13 -20 -10c-3 5 3 15 9 25c114 169 212 324 319 489c13 20 18 23 24 23zM165 302c42 1 46 83 46 122c0 40 -9 136 -57 136c-41 0 -47 -79 -47 -120c0 -42 13 -140 58 -138zM157 288c-73 0 -107 76 -107 138c0 36 8 70 27 100
c21 31 50 49 87 49c72 0 104 -81 104 -137c0 -43 -8 -78 -26 -103c-22 -33 -55 -47 -85 -47z" />
    <glyph glyph-name="ampersand" unicode="&#x26;" horiz-adv-x="738" 
d="M258 582c82 0 125 -56 125 -103c0 -35 -25 -54 -37 -64s-42 -27 -62 -41c-4 -3 -2 -7 1 -8c73 -50 163 -149 180 -166c4 -4 7 -2 10 2c8 12 51 74 110 173c14 23 -2 34 -32 39c-17 2 -20 8 -20 10c0 5 7 9 24 7c52 -4 95 5 145 9c18 2 23 -1 23 -4c0 -5 -3 -9 -19 -14
c-34 -8 -55 -13 -96 -65c-25 -32 -92 -126 -123 -172c-3 -6 -2 -8 2 -13c74 -110 113 -133 161 -133c23 0 36 4 52 9c9 2 13 0 13 -3c0 -6 -8 -13 -25 -23c-21 -18 -71 -33 -118 -33c-43 0 -66 14 -82 35c-20 28 -41 60 -57 80c-2 3 -5 5 -8 2c-10 -14 -45 -61 -70 -77
c-48 -32 -87 -45 -133 -45c-43 0 -97 18 -135 57c-21 22 -51 69 -51 121c0 38 13 76 52 113c30 28 76 58 93 69c4 2 3 8 1 9c-39 40 -57 74 -56 110c0 32 17 65 49 91c23 18 61 28 83 28zM270 39c70 0 107 31 142 79c3 4 5 11 3 15c-49 71 -187 182 -208 197
c-3 3 -10 3 -12 1c-36 -28 -77 -69 -77 -140c-1 -91 88 -152 152 -152zM252 566c-32 0 -59 -34 -59 -78c0 -39 37 -83 65 -103c4 -3 8 -3 12 -1c22 22 49 52 49 97c0 35 -22 85 -67 85z" />
    <glyph glyph-name="quoteright" unicode="&#x2019;" horiz-adv-x="144" 
d="M57 668c38 0 65 -33 65 -72c0 -72 -77 -100 -93 -100c-6 0 -10 2 -10 5c0 1 4 5 10 8c29 14 55 36 55 68c0 20 -11 33 -39 40c-12 4 -21 10 -21 23c0 15 15 28 33 28z" />
    <glyph glyph-name="parenleft" unicode="(" horiz-adv-x="291" 
d="M92 262c0 -197 57 -320 146 -430c8 -9 10 -14 6 -18c-2 -3 -7 -5 -15 -5c-6 0 -17 2 -28 16c-101 124 -143 266 -143 416c0 198 89 356 158 428c8 8 18 15 24 15c4 0 7 -1 8 -4s-1 -7 -9 -15c-87 -93 -147 -252 -147 -403z" />
    <glyph glyph-name="parenright" unicode=")" horiz-adv-x="291" 
d="M199 231c0 197 -54 317 -146 430c-8 9 -10 14 -6 18c3 3 7 5 16 5c5 0 17 -2 27 -16c101 -122 143 -266 143 -417c0 -197 -88 -355 -158 -427c-8 -8 -18 -15 -24 -15c-3 0 -6 1 -8 4c0 3 2 7 9 15c88 93 147 252 147 403z" />
    <glyph glyph-name="asterisk" unicode="*" horiz-adv-x="282" 
d="M125 615c2 0 4 -4 6 -11c6 -21 14 -54 18 -71c1 -6 3 -5 5 -1c6 9 33 45 41 55c6 7 9 8 11 8c4 0 1 -8 -1 -12c-6 -14 -36 -60 -38 -64c-1 -2 0 -4 2 -4c7 2 76 11 79 11c5 0 12 -1 12 -4c0 -2 -4 -5 -10 -7c-12 -4 -56 -15 -78 -18c-3 0 -3 -2 -1 -3
c14 -9 39 -27 55 -40c9 -8 12 -10 12 -16c0 -4 -8 -1 -16 3c-25 14 -58 35 -64 38c-1 0 -2 -1 -2 -3l7 -43c3 -22 4 -31 4 -36c0 -3 -3 -11 -6 -11c-1 0 -4 1 -6 9c-2 5 -12 46 -18 79c0 4 -3 4 -4 2c-20 -30 -44 -59 -49 -63c-4 -4 -5 -6 -9 -6c-7 0 -2 11 10 31
c12 16 28 39 32 47c1 1 2 4 -3 3c-5 0 -62 -8 -71 -8c-8 0 -13 1 -13 5c0 2 4 7 13 9c25 6 39 9 69 14c4 1 3 2 2 3c-21 15 -54 39 -65 53c-4 5 1 7 7 5c4 -1 52 -29 72 -44c1 -1 2 0 2 2c-5 31 -9 66 -9 77c-1 7 2 11 4 11z" />
    <glyph glyph-name="plus" unicode="+" horiz-adv-x="410" 
d="M190 353c0 6 20 10 23 10c4 0 10 1 10 -12v-140c0 -2 2 -7 5 -7h140c3 0 5 -1 5 -7c0 -11 -4 -22 -8 -22l-137 -1c-3 0 -5 -6 -5 -11l-1 -145c0 -4 -12 -9 -23 -9c-2 0 -10 0 -10 6v152c0 6 -1 7 -4 7l-142 1c-5 0 -6 2 -6 6c0 9 5 22 11 22l136 1c4 0 5 6 5 8z" />
    <glyph glyph-name="comma" unicode="," horiz-adv-x="161" 
d="M72 86c33 0 60 -31 60 -77c0 -70 -70 -103 -90 -104c-8 -1 -13 0 -13 3s4 5 9 8c26 10 55 31 55 71c0 18 -11 27 -28 31c-18 4 -32 10 -32 32c0 21 20 36 39 36z" />
    <glyph glyph-name="hyphen" unicode="-" horiz-adv-x="234" 
d="M45 207c7 1 133 16 154 17c2 0 5 -3 5 -6c0 -4 -1 -22 -6 -30c-1 -3 -8 -6 -9 -6c-10 -2 -140 -12 -149 -12c-7 0 -9 2 -9 6c0 3 1 18 5 25c2 3 5 5 9 6z" />
    <glyph glyph-name="period" unicode="." horiz-adv-x="161" 
d="M80 -12c-25 0 -45 23 -45 47c0 27 22 48 47 48c28 0 44 -25 44 -47c0 -32 -26 -48 -46 -48z" />
    <glyph glyph-name="slash" unicode="/" horiz-adv-x="370" 
d="M36 -58c91 232 181 479 269 711c2 4 16 14 22 14c5 0 7 -4 0 -21c-88 -231 -242 -649 -267 -702c-4 -8 -15 -18 -22 -18c-4 0 -7 1 -2 16z" />
    <glyph glyph-name="zero" unicode="0" horiz-adv-x="420" 
d="M216 600c128 0 170 -181 170 -296c0 -174 -51 -259 -100 -293c-21 -15 -46 -24 -74 -24c-129 0 -177 178 -177 297c0 154 39 253 117 300c19 11 40 16 64 16zM206 585c-15 0 -30 -9 -41 -26c-23 -38 -46 -104 -46 -237c0 -156 25 -319 100 -319c17 0 36 6 53 47
c15 39 30 127 30 228c0 153 -33 307 -96 307z" />
    <glyph glyph-name="one" unicode="1" horiz-adv-x="420" 
d="M114 558c0 4 6 7 13 8c35 5 86 15 107 25c9 5 18 9 22 9c2 0 4 -1 4 -7c0 -12 -1 -85 -2 -150c-2 -84 0 -308 1 -356c2 -62 5 -69 53 -77c10 -2 15 -5 15 -9s-6 -6 -18 -6c-42 0 -64 5 -104 5c-43 0 -60 -5 -90 -5c-10 0 -17 2 -17 7c0 4 7 7 16 8c49 9 56 14 58 77
c3 37 5 90 5 259c0 121 -1 151 -3 177c-1 10 -5 21 -11 23c-11 2 -22 3 -35 6c-6 1 -14 3 -14 6z" />
    <glyph glyph-name="two" unicode="2" horiz-adv-x="420" 
d="M194 600c93 0 143 -74 143 -147c0 -53 -21 -109 -72 -176c-53 -72 -115 -143 -158 -195c-2 -3 -1 -8 3 -9c19 -5 66 -5 154 -5c40 0 75 2 83 2c17 3 30 6 47 33c6 10 10 13 12 13c5 0 4 -11 -1 -21c-10 -22 -29 -80 -30 -87c-3 -10 -12 -12 -18 -12c-19 0 -168 4 -209 4
c-22 0 -92 -1 -101 -1c-16 0 -26 1 -27 5c-2 3 5 12 11 17c44 45 98 112 144 177c55 77 85 144 85 219c0 71 -42 123 -104 123c-41 0 -74 -16 -107 -55c-8 -9 -12 -12 -15 -12c-5 0 -3 10 2 19c15 28 38 55 62 74c22 18 62 34 96 34z" />
    <glyph glyph-name="three" unicode="3" horiz-adv-x="420" 
d="M176 552c-33 0 -67 -20 -95 -56c-8 -9 -10 -10 -13 -10c-4 0 -4 7 0 15c30 57 94 99 153 99c80 0 115 -59 115 -107c0 -62 -49 -107 -97 -140c-6 -4 -1 -6 1 -6h11c36 0 76 -17 99 -40c26 -27 41 -60 41 -105c0 -78 -50 -165 -152 -221c-38 -22 -83 -35 -118 -35
c-43 0 -81 18 -81 42c0 6 15 23 25 28c3 1 8 1 13 -4c16 -17 54 -33 90 -33c31 0 56 8 79 23c31 23 70 76 70 145c0 55 -21 96 -43 118c-26 26 -56 35 -80 35c-13 0 -33 -4 -47 -10c-10 -3 -15 -5 -15 1c0 4 3 9 9 13c9 5 20 10 36 20c63 35 87 79 87 129
c0 58 -32 99 -88 99z" />
    <glyph glyph-name="four" unicode="4" horiz-adv-x="420" 
d="M329 398v-180c0 -3 2 -6 4 -6c29 0 60 1 80 2c1 0 3 -2 3 -5c0 -4 -4 -26 -12 -27h-71c-2 0 -4 -4 -4 -7c0 -21 0 -69 1 -94c2 -49 1 -62 38 -67c12 -3 17 -5 17 -10c0 -2 -4 -7 -18 -7c-21 0 -56 3 -82 3c-36 0 -59 -3 -88 -3c-10 0 -16 3 -16 5c0 5 6 8 17 10
c44 7 45 15 49 77c2 24 2 67 2 83c0 3 -1 9 -5 9c-100 0 -200 -2 -222 -3c-7 0 -11 3 -11 6c0 5 2 8 14 25l294 423c7 10 10 12 15 13h8c13 1 11 -6 3 -17l-289 -407c-1 -3 -1 -6 4 -7c10 -3 86 -3 184 -3c2 0 5 3 5 5v165c0 7 0 17 8 23c9 7 45 21 63 21c7 0 9 -8 9 -27z
" />
    <glyph glyph-name="five" unicode="5" horiz-adv-x="420" 
d="M318 605c6 4 8 -4 6 -8c-9 -16 -23 -40 -31 -64c-2 -5 -8 -11 -15 -13c-31 -6 -129 -13 -168 -17c-4 0 -9 -5 -11 -8c-6 -11 -18 -52 -19 -58c0 -7 2 -11 11 -14c38 -11 122 -41 171 -70c73 -43 108 -105 108 -168c0 -79 -40 -132 -84 -168c-65 -52 -157 -72 -199 -72
h-18c-6 2 -9 4 -9 7c0 4 4 6 18 8c99 15 220 77 220 195c0 61 -33 112 -104 143c-49 22 -105 36 -140 46c-4 2 -5 9 -5 16c1 34 43 171 60 202c4 6 12 12 15 12l133 18c26 3 50 6 61 13z" />
    <glyph glyph-name="six" unicode="6" horiz-adv-x="420" 
d="M412 641c8 0 12 -2 12 -4c0 -3 -2 -7 -12 -10c-179 -80 -297 -278 -297 -438c0 -66 11 -110 34 -139c20 -29 53 -44 83 -44c42 0 91 35 91 130c0 74 -34 135 -103 135c-28 0 -54 -18 -61 -23c-5 -3 -14 -8 -14 -1c0 3 3 10 9 16c11 10 43 31 64 42c17 9 38 15 56 15
c74 0 118 -61 118 -136c0 -67 -30 -123 -80 -162c-22 -17 -63 -35 -106 -35c-111 0 -176 82 -176 198c0 137 89 282 224 382c49 35 129 74 158 74z" />
    <glyph glyph-name="seven" unicode="7" horiz-adv-x="420" 
d="M199 588c101 0 122 1 131 1c32 1 58 2 66 2c4 0 11 -1 11 -4c1 -3 -1 -7 -3 -9c-11 -15 -42 -74 -77 -147l-223 -476c-3 -5 -9 -11 -11 -11c-6 0 -11 6 -11 13s8 23 17 41c77 158 171 353 241 504c2 5 0 9 -3 9c-13 2 -43 3 -121 3c-54 0 -101 0 -130 -2
c-33 -2 -38 -5 -53 -27c-4 -6 -10 -12 -13 -12c-5 0 -7 8 -1 20c7 13 24 51 28 81c2 9 3 15 5 18c3 3 8 3 13 2c15 -4 57 -6 134 -6z" />
    <glyph glyph-name="eight" unicode="8" horiz-adv-x="420" 
d="M216 611c87 0 153 -57 153 -140c0 -40 -20 -73 -54 -102c-15 -13 -31 -26 -57 -44c-2 -2 -2 -3 0 -6c64 -50 112 -102 112 -176c0 -57 -30 -99 -68 -126c-28 -21 -67 -31 -93 -31c-83 0 -160 57 -160 144c0 53 32 89 66 116c17 14 35 25 49 35c1 0 1 4 0 5
c-40 33 -111 94 -111 174c0 47 20 91 65 122c28 17 62 29 98 29zM201 596c-38 0 -82 -44 -82 -108c0 -58 72 -122 120 -154c4 -2 7 0 8 1c23 17 60 68 60 129c0 55 -36 132 -106 132zM217 2c18 0 33 4 47 13c25 16 42 46 42 90c0 65 -64 122 -121 168c-3 2 -8 0 -9 -1
c-35 -27 -63 -75 -63 -130c0 -92 63 -140 104 -140z" />
    <glyph glyph-name="nine" unicode="9" horiz-adv-x="420" 
d="M226 600c117 0 167 -116 167 -201c0 -179 -112 -328 -231 -410c-54 -37 -101 -49 -113 -49c-6 0 -9 0 -9 3s3 6 11 9c45 25 89 59 142 123c53 62 117 192 117 309c0 90 -35 193 -119 193c-18 0 -35 -6 -48 -17c-22 -20 -42 -53 -42 -104c0 -101 59 -141 115 -141
c20 0 41 5 64 22c5 2 9 3 9 -2c0 -6 -9 -16 -19 -25c-26 -23 -74 -47 -108 -47c-77 0 -131 65 -131 144c0 61 30 127 104 169c35 20 64 24 91 24z" />
    <glyph glyph-name="colon" unicode=":" horiz-adv-x="230" 
d="M114 -12c-24 0 -43 22 -43 47c0 26 21 46 45 46c28 0 43 -24 43 -45c0 -32 -25 -48 -45 -48zM114 243c-24 0 -43 22 -43 47c0 26 21 46 45 46c28 0 43 -25 43 -46c0 -31 -25 -47 -45 -47z" />
    <glyph glyph-name="semicolon" unicode=";" horiz-adv-x="230" 
d="M114 243c-24 0 -43 23 -43 47c0 26 21 46 45 46c28 0 43 -25 43 -45c0 -32 -25 -48 -45 -48zM105 85c34 0 60 -31 60 -77c0 -71 -71 -101 -90 -103c-7 -1 -12 0 -12 4c0 2 3 4 9 6c23 12 55 30 55 71c0 19 -12 26 -28 31c-18 6 -32 12 -32 33c0 20 19 35 38 35z" />
    <glyph glyph-name="less" unicode="&#x3c;" horiz-adv-x="410" 
d="M340 69c1 -1 2 -4 1 -8s-7 -15 -12 -19c-1 -2 -8 -1 -12 1l-220 120c-24 14 -29 17 -29 21c0 3 2 7 9 11c6 4 16 10 241 140c7 4 11 3 13 1c4 -4 9 -14 10 -18c0 -2 0 -5 -4 -8l-211 -119c-3 -2 -6 -5 -1 -8z" />
    <glyph glyph-name="equal" unicode="=" horiz-adv-x="410" 
d="M368 141c3 0 5 -2 5 -8c0 -12 -5 -21 -8 -21h-320c-7 0 -9 3 -9 6c0 10 5 23 9 23h323zM369 266c1 0 4 -2 4 -8c0 -9 -4 -21 -7 -21h-322c-4 0 -6 5 -6 6c0 10 5 22 10 22c107 1 215 2 321 1z" />
    <glyph glyph-name="greater" unicode="&#x3e;" horiz-adv-x="410" 
d="M70 310c-1 1 -2 4 -1 8s7 15 12 19c1 2 7 1 11 -1l221 -121c24 -13 29 -17 29 -21c0 -3 -2 -7 -9 -11s-17 -9 -242 -139c-6 -4 -10 -3 -12 -1c-4 4 -9 13 -10 17c0 2 0 5 4 8l210 119c3 2 6 5 1 8z" />
    <glyph glyph-name="question" unicode="?" horiz-adv-x="354" 
d="M186 517c-15 0 -36 -7 -44 -10c-8 -4 -19 -5 -28 4c-10 12 -18 37 -18 49c0 9 9 21 41 21c46 0 95 -47 123 -86c37 -52 48 -97 48 -135c0 -35 -14 -65 -51 -83c-21 -10 -37 -17 -56 -27c-33 -16 -33 -41 -33 -61c0 -10 -2 -15 -6 -15s-6 5 -10 13c-5 15 -14 59 -14 86
c0 16 6 31 18 42c22 16 53 29 78 43c27 15 37 36 37 59c0 48 -32 100 -85 100zM177 90c32 0 46 -32 46 -51c0 -32 -29 -50 -47 -50c-26 0 -48 21 -48 51c0 24 19 50 49 50z" />
    <glyph glyph-name="at" unicode="@" horiz-adv-x="751" 
d="M454 12c-63 0 -69 20 -69 25c0 8 -2 12 5 26l34 79c1 3 -2 4 -7 1c-71 -75 -146 -131 -186 -131c-22 0 -27 19 -27 39c0 23 25 80 85 154c41 50 129 123 169 123c9 0 25 -6 32 -13c1 -2 4 -1 7 4l13 25c3 6 6 6 9 6c10 1 21 -4 28 -9c4 -1 4 -7 3 -11
c-19 -44 -89 -212 -103 -259c-8 -25 7 -40 33 -40c100 0 192 85 192 216c0 151 -110 246 -253 246c-199 0 -326 -176 -326 -364c0 -134 77 -285 273 -286c67 0 135 21 188 60c11 9 13 9 13 4s-6 -13 -12 -18c-59 -54 -140 -71 -212 -71c-153 0 -295 105 -294 307
c1 221 186 387 378 387c181 0 276 -118 276 -256c0 -124 -96 -244 -249 -244zM431 295c-21 0 -39 -7 -64 -34c-53 -55 -94 -134 -94 -184c0 -16 9 -20 17 -20c7 0 27 8 72 51c45 42 87 111 104 147c5 11 7 14 4 20c-7 12 -22 20 -39 20z" />
    <glyph glyph-name="A" unicode="A" horiz-adv-x="646" 
d="M342 642c3 0 6 -4 7 -11c3 -19 13 -49 26 -83c65 -174 126 -330 185 -463c25 -57 35 -66 60 -71c12 -3 17 -7 17 -10c0 -5 -10 -8 -18 -8c-22 0 -39 4 -91 4c-43 0 -79 -5 -104 -5c-11 0 -18 3 -18 7c0 5 9 9 19 10c37 6 47 22 45 45c-3 19 -36 107 -68 190
c-3 7 -10 12 -14 12c-39 -2 -159 -2 -181 -2c-5 0 -11 -10 -14 -17c-10 -24 -38 -96 -52 -144c-10 -35 -10 -55 1 -66c9 -10 23 -13 43 -18c10 -2 15 -6 15 -10c0 -5 -9 -7 -21 -7c-19 0 -59 5 -94 5c-25 0 -45 -5 -70 -5c-11 0 -18 2 -18 7s10 7 20 9c45 10 56 19 94 103
c30 64 117 281 173 427c4 13 5 20 5 28c0 4 2 9 4 10c14 9 36 32 41 53c2 6 3 10 8 10zM379 291c1 0 3 5 1 11c-37 105 -67 175 -80 206c-3 8 -5 5 -8 -2c-21 -50 -63 -169 -77 -209c-1 -3 -1 -8 3 -8c20 -1 45 -1 78 -1c35 0 74 0 83 3z" />
    <glyph glyph-name="B" unicode="B" horiz-adv-x="541" 
d="M35 619c0 4 7 7 17 7c18 -1 73 0 96 3c32 4 72 8 105 8c114 0 202 -49 202 -160c0 -39 -23 -76 -43 -92c-18 -13 -35 -24 -52 -31c-6 -3 -3 -7 1 -8c39 -15 63 -31 85 -49c32 -27 53 -69 53 -121c0 -77 -43 -130 -113 -161c-20 -9 -60 -21 -125 -21c-17 0 -42 0 -82 2
c-43 1 -64 1 -87 1h-48c-14 0 -21 3 -21 7c0 5 7 8 17 9c38 4 54 21 57 57c3 27 3 170 3 280c0 56 -1 168 -2 208c-2 35 -9 43 -48 52c-11 2 -15 6 -15 9zM405 163c0 30 -6 79 -40 116c-37 45 -66 54 -124 54c-20 0 -40 -1 -49 -2c-6 -1 -9 -7 -10 -12c-3 -23 0 -156 3 -190
c4 -44 7 -71 15 -82c10 -15 37 -36 83 -36c15 0 34 4 51 13c35 20 71 56 71 139zM369 473c0 96 -65 146 -138 146c-15 0 -32 -2 -38 -4c-3 -1 -9 -12 -9 -15c-2 -19 -3 -166 -2 -233c1 -5 3 -13 13 -14c15 -2 53 -2 65 0c47 6 109 46 109 120z" />
    <glyph glyph-name="C" unicode="C" horiz-adv-x="650" 
d="M393 643c80 0 161 -29 195 -47c8 -5 11 -12 10 -18c-2 -23 3 -68 3 -78s-4 -16 -6 -16c-4 0 -7 5 -9 13c-8 34 -30 66 -48 80c-37 33 -92 50 -152 50c-65 0 -125 -33 -166 -75c-46 -50 -77 -140 -77 -235c0 -86 36 -182 90 -241c48 -52 115 -73 168 -73
c57 0 91 12 117 28c38 23 60 56 76 97c4 12 6 16 10 16s6 -9 6 -15c0 -16 -12 -65 -14 -77c-2 -7 -5 -14 -11 -17c-59 -33 -112 -53 -194 -53c-122 0 -202 44 -262 105c-43 44 -84 134 -84 221c0 119 48 194 112 252c52 47 142 83 236 83z" />
    <glyph glyph-name="D" unicode="D" horiz-adv-x="689" 
d="M36 620c0 4 7 6 18 6c43 0 86 0 127 4c28 3 71 7 94 7c81 0 153 -12 222 -54c79 -50 147 -135 147 -264c0 -202 -138 -291 -265 -322c-27 -6 -68 -8 -93 -8c-24 0 -49 2 -77 4c-30 2 -58 5 -88 5c-27 0 -59 -2 -69 -2c-11 0 -20 2 -20 8c0 3 5 6 17 8c36 6 45 14 48 53
c3 24 4 105 4 204c0 179 -2 259 -4 290c-3 35 -8 45 -45 52c-9 1 -16 4 -16 9zM258 619c-23 0 -49 -5 -59 -9c-5 -2 -11 -9 -11 -28c-2 -33 -3 -65 -3 -249c0 -102 3 -166 6 -215c4 -48 10 -72 35 -90c14 -12 44 -23 76 -23c41 0 77 8 106 25c59 32 139 110 139 273
c0 91 -29 179 -92 238c-56 51 -114 78 -197 78z" />
    <glyph glyph-name="E" unicode="E" horiz-adv-x="513" 
d="M38 623c0 3 6 6 15 6c24 0 61 -4 88 -4c57 0 188 2 228 2c37 0 52 2 61 2c5 0 9 -6 11 -16c1 -10 4 -52 8 -71c1 -6 -1 -15 -4 -15c-4 0 -7 3 -12 14c-17 41 -37 60 -55 63c-21 4 -142 4 -180 3c-8 -1 -12 -3 -12 -40v-226c0 -11 3 -15 6 -15h121c43 0 57 2 66 8
c8 4 16 15 26 39c3 6 6 11 10 11s5 -6 5 -11c0 -6 -4 -39 -5 -55c-2 -17 1 -50 2 -56c2 -15 -4 -20 -6 -20c-4 0 -6 4 -12 19c-4 11 -11 30 -27 34c-23 5 -49 6 -179 6c-6 0 -7 -3 -7 -17c0 -51 3 -194 3 -213c0 -11 8 -36 26 -44c15 -7 32 -9 97 -9c76 0 97 1 118 20
c11 11 27 36 37 49c9 12 14 17 18 17s5 -7 1 -19c-6 -20 -17 -65 -23 -76c-3 -8 -9 -13 -17 -13c-106 0 -218 4 -299 4c-34 0 -93 -5 -104 -5c-12 0 -18 3 -18 7c0 5 7 7 18 9c32 6 52 18 53 62c5 159 5 275 5 464c0 57 -12 69 -48 76c-10 2 -15 6 -15 10z" />
    <glyph glyph-name="F" unicode="F" horiz-adv-x="483" 
d="M166 625c111 0 218 3 257 3c19 0 25 -6 26 -13l6 -72c1 -10 0 -19 -5 -19c-4 0 -8 6 -13 19c-16 40 -38 57 -75 60c-32 3 -73 3 -161 3c-7 0 -13 -12 -13 -17c-1 -28 -3 -157 -1 -256c0 -8 6 -13 9 -13c104 0 144 0 161 3c16 3 28 7 43 40c5 10 8 14 11 14
c4 0 5 -5 5 -14c-1 -12 -5 -41 -5 -64c0 -21 3 -37 3 -49c1 -13 -2 -17 -6 -17s-9 8 -14 21c-9 24 -20 34 -32 37c-16 3 -37 5 -166 5c-3 0 -10 -8 -10 -13c-1 -19 1 -173 3 -218c1 -38 8 -44 53 -54c8 -2 14 -6 14 -10c0 -6 -11 -7 -21 -7c-17 0 -60 6 -101 6
s-66 -4 -82 -4c-11 0 -18 3 -18 7s5 7 19 10c37 8 42 16 44 53c3 32 3 153 3 262c0 106 0 170 -2 231c-2 36 -7 45 -42 54c-9 2 -16 5 -16 10c0 4 6 6 16 6c13 0 65 -4 110 -4z" />
    <glyph glyph-name="G" unicode="G" horiz-adv-x="694" 
d="M411 643c49 0 89 -12 115 -18c26 -7 56 -18 68 -23c6 -2 9 -13 10 -22c1 -11 8 -58 10 -71s-2 -19 -5 -19c-5 0 -8 3 -13 17c-27 72 -87 120 -192 120c-67 0 -133 -28 -178 -77c-48 -52 -83 -137 -83 -242c0 -118 61 -207 113 -252c45 -37 96 -57 147 -57
c36 0 80 15 105 40c10 12 13 28 14 54c2 19 4 85 1 115c-3 34 -15 45 -56 51c-10 2 -19 4 -19 9s6 8 25 7c25 0 51 -3 95 -3c30 0 60 2 67 2c11 0 18 -2 18 -6c0 -6 -10 -9 -22 -12c-16 -4 -22 -13 -22 -65c0 -54 5 -112 5 -125s1 -20 -7 -24c-12 -6 -29 -14 -50 -23
c-45 -19 -103 -37 -152 -37c-106 0 -192 36 -252 89c-71 61 -108 144 -108 238c0 104 42 191 135 263c45 33 110 71 231 71z" />
    <glyph glyph-name="H" unicode="H" horiz-adv-x="739" 
d="M100 316c0 52 -1 185 -3 220c-3 57 -3 68 -44 79c-10 2 -15 6 -15 9c0 5 6 6 17 6c16 0 54 -5 84 -5c34 0 74 4 90 4c11 0 16 -2 16 -6c0 -3 -5 -8 -14 -9c-34 -8 -39 -21 -42 -57c-2 -24 -4 -190 -3 -208c0 -10 2 -18 9 -19c26 -1 154 0 245 0c80 0 92 2 97 2
c9 1 10 3 10 19c2 29 -2 143 -3 179c-3 65 -7 79 -46 85c-8 1 -16 4 -16 9c0 3 5 6 15 6c27 0 52 -5 96 -5c32 0 63 5 84 5c10 0 17 -1 17 -6c0 -4 -4 -7 -15 -10c-40 -8 -42 -23 -44 -72c-1 -34 0 -179 1 -248c1 -67 3 -138 5 -211c2 -50 7 -61 48 -70c11 -3 15 -6 15 -10
s-7 -7 -17 -7c-28 0 -69 4 -94 4c-32 0 -62 -3 -86 -3c-11 0 -19 2 -19 8c0 3 5 6 17 8c35 7 41 17 43 58c1 38 3 153 1 204c0 13 -1 23 -8 23c-35 2 -144 3 -241 4c-48 0 -96 1 -108 1c-3 0 -7 -7 -7 -22c0 -85 5 -213 10 -233c3 -20 15 -30 37 -36c14 -3 18 -6 18 -10
c0 -5 -9 -7 -18 -7c-26 0 -65 5 -95 5c-25 0 -65 -4 -85 -4c-10 0 -17 3 -17 6c0 5 7 8 17 11c35 7 42 18 44 47c2 30 4 100 4 256z" />
    <glyph glyph-name="I" unicode="I" horiz-adv-x="287" 
d="M36 624c0 3 6 5 15 5c37 0 60 -4 90 -4c36 0 68 4 91 4c9 0 15 -2 15 -5c0 -4 -5 -8 -16 -10c-40 -6 -41 -21 -43 -62c-3 -49 -2 -164 -2 -224c0 -148 2 -230 4 -261c2 -39 9 -45 38 -53c13 -3 17 -6 17 -10c0 -6 -8 -7 -20 -7c-19 0 -42 3 -74 3c-54 0 -82 -5 -101 -5
c-11 0 -18 2 -18 7c0 3 4 6 22 11c37 7 43 23 45 84c2 57 1 329 1 373c0 49 -3 86 -5 101c-4 32 -15 37 -47 44c-8 3 -12 6 -12 9z" />
    <glyph glyph-name="J" unicode="J" horiz-adv-x="276" 
d="M101 50c0 182 0 361 -2 448c-3 99 -9 105 -52 115c-11 2 -19 4 -19 10c0 4 8 6 21 6c15 0 49 -4 96 -4c41 0 61 4 85 4c13 0 15 -3 15 -6c0 -5 -8 -8 -18 -10c-35 -7 -39 -15 -39 -117l-3 -339c0 -86 -8 -147 -19 -182c-35 -121 -137 -182 -195 -182c-27 0 -47 14 -47 26
c0 8 14 24 28 37c10 9 18 13 23 13c3 0 13 -3 23 -10c17 -11 32 -15 44 -15c13 0 22 4 33 17c16 19 26 81 26 189z" />
    <glyph glyph-name="K" unicode="K" horiz-adv-x="622" 
d="M146 625c30 0 53 3 86 3c12 0 15 -4 15 -7s-8 -7 -17 -8c-40 -9 -43 -22 -44 -109c-1 -29 -2 -131 -1 -159c0 -12 3 -14 8 -12c14 12 26 21 47 41c37 37 159 161 184 192c10 12 16 19 16 26c0 9 -10 12 -32 17c-11 2 -16 6 -16 9c0 4 6 8 16 8c21 0 38 -2 64 -1
c38 2 81 5 98 5c11 0 14 -3 14 -6c0 -4 -6 -7 -17 -9c-42 -9 -71 -22 -116 -62c-41 -35 -129 -120 -185 -178c-2 -3 -4 -6 -4 -9c0 -2 2 -5 6 -10c39 -45 219 -254 266 -301c32 -30 49 -35 75 -41c15 -4 20 -8 20 -12c0 -6 -10 -8 -19 -8c-28 0 -87 6 -123 6
c-34 0 -63 -3 -76 -3c-12 0 -20 3 -20 8c0 3 3 7 17 11c22 5 26 10 26 16s-6 15 -15 26c-74 89 -201 229 -218 250c-7 7 -9 9 -11 9c-4 0 -4 -5 -4 -17c-1 -14 -1 -76 -1 -125c0 -50 2 -106 4 -126c3 -23 15 -30 42 -36c15 -3 20 -6 20 -11s-10 -7 -19 -7c-24 0 -43 5 -91 5
c-34 0 -70 -5 -85 -5c-14 0 -19 3 -19 7s4 8 20 11c28 6 37 17 40 38c2 23 6 85 6 302c0 86 0 190 -3 216c-4 35 -17 39 -44 46c-8 2 -15 5 -15 9s6 6 14 6c24 0 65 -5 91 -5z" />
    <glyph glyph-name="L" unicode="L" horiz-adv-x="502" 
d="M33 624c0 3 7 6 17 6c31 0 65 -5 93 -5c35 0 60 4 87 4c12 0 17 -2 17 -6s-8 -8 -15 -9c-39 -8 -42 -14 -45 -82c-1 -17 -2 -112 -2 -203c0 -94 1 -191 2 -210c3 -40 5 -67 13 -78c11 -15 39 -25 117 -26c41 0 67 1 84 5c21 5 45 32 65 68c8 12 13 16 17 16
c5 0 3 -15 -2 -30c-3 -7 -23 -64 -27 -71s-14 -10 -23 -10c-10 0 -85 -1 -134 2c-50 2 -119 5 -158 5c-30 0 -77 -5 -90 -5s-22 1 -22 7c0 5 8 7 17 9c42 7 49 20 52 51c4 41 4 106 4 244c0 136 0 203 -2 238c-3 57 -8 63 -49 70c-13 3 -16 6 -16 10z" />
    <glyph glyph-name="M" unicode="M" horiz-adv-x="815" 
d="M15 624c0 4 10 6 18 6c27 -1 89 -5 126 -5c4 0 9 -5 13 -14c41 -91 182 -373 237 -477c4 -7 6 -3 9 3c52 97 177 344 200 394c12 27 25 61 31 81c0 2 5 13 10 13c32 0 79 6 116 6c10 0 16 -3 16 -7c0 -3 -8 -7 -15 -9c-59 -13 -62 -25 -65 -83c-2 -35 -3 -151 -3 -201
c0 -109 4 -208 6 -240c4 -58 15 -68 55 -79c9 -3 15 -6 15 -11s-6 -7 -18 -7c-23 0 -74 6 -104 6c-41 0 -73 -3 -88 -3c-9 0 -20 1 -20 9c0 4 10 8 19 9c42 10 48 28 51 109c3 54 4 316 4 363c0 9 -3 10 -5 4c-67 -135 -186 -371 -232 -475c-6 -13 -10 -19 -15 -19
c-6 0 -13 16 -21 33c-44 97 -180 386 -215 457c-4 8 -7 8 -8 -5c-4 -54 -15 -309 -15 -357c0 -34 1 -53 5 -72c5 -23 27 -35 52 -41c10 -2 17 -6 17 -10c0 -5 -9 -7 -20 -7c-14 1 -49 5 -85 5c-34 0 -62 -6 -73 -6c-13 0 -18 3 -18 8c0 3 4 6 18 9c30 7 43 17 54 32
c10 15 15 44 22 108c6 58 19 276 19 343c0 60 -5 74 -23 94c-17 20 -35 21 -54 26c-9 2 -16 6 -16 10z" />
    <glyph glyph-name="N" unicode="N" horiz-adv-x="722" 
d="M17 623c0 4 6 7 21 7c35 0 94 -6 130 -5c5 0 9 -3 23 -20c66 -84 315 -363 402 -460c4 -3 7 -2 7 6c0 35 -2 298 -5 385c-1 59 -23 69 -56 77c-11 2 -19 5 -19 9c0 5 10 7 20 7c18 0 48 -4 70 -4c29 0 56 4 67 4s16 -2 16 -6c0 -5 -8 -8 -17 -11c-39 -12 -42 -34 -46 -59
c-4 -43 -6 -246 -6 -339c0 -90 -2 -150 0 -203c1 -22 -2 -32 -9 -32c-4 0 -17 14 -35 37c-53 66 -313 363 -445 517c-5 6 -9 4 -9 -2c0 -31 -2 -356 -2 -404c1 -44 3 -65 11 -82c7 -18 32 -27 50 -32c10 -3 17 -6 17 -12c0 -5 -10 -6 -20 -6c-17 0 -44 5 -76 5
c-29 0 -62 -5 -70 -5c-14 0 -17 2 -17 6c0 5 8 7 19 10c35 11 48 19 53 76c4 39 12 344 12 435c0 58 -10 66 -18 72c-13 10 -27 15 -49 19c-14 3 -19 5 -19 10z" />
    <glyph glyph-name="O" unicode="O" horiz-adv-x="741" 
d="M370 643c177 0 326 -151 326 -338c0 -161 -109 -259 -186 -293c-41 -18 -87 -30 -135 -30c-182 0 -330 153 -330 336c0 100 34 189 130 262c52 40 130 63 195 63zM354 627c-58 0 -117 -41 -145 -74c-47 -57 -69 -145 -69 -229c0 -80 30 -168 79 -228
c54 -70 116 -95 173 -95c35 0 73 11 106 42c42 36 102 119 102 262c0 89 -26 170 -80 239c-35 43 -87 83 -166 83z" />
    <glyph glyph-name="P" unicode="P" horiz-adv-x="511" 
d="M37 621c0 4 9 8 18 8c19 0 46 0 72 1c28 1 81 7 110 7c77 0 145 -20 184 -63c38 -40 51 -89 51 -129c0 -90 -44 -134 -81 -159c-38 -27 -87 -33 -112 -33c-11 0 -25 1 -30 3c-6 2 -12 5 -12 9c0 3 3 6 11 5c7 -1 9 -1 17 -1c32 0 118 30 118 167c0 39 -11 94 -45 132
c-30 38 -64 53 -104 53c-15 0 -34 -3 -40 -5c-4 -2 -8 -8 -8 -17v-336c0 -107 3 -171 5 -198c2 -38 16 -48 45 -53c15 -2 20 -5 20 -9c0 -5 -7 -8 -17 -8c-22 0 -57 5 -106 5c-32 0 -67 -4 -78 -4c-7 0 -18 2 -18 7c0 3 5 6 17 9c30 5 41 13 44 45c2 23 3 133 3 288
c0 106 -4 209 -7 234c-1 19 -12 30 -40 34c-6 1 -17 3 -17 8z" />
    <glyph glyph-name="Q" unicode="Q" horiz-adv-x="741" 
d="M371 643c92 0 157 -32 207 -75c71 -58 118 -157 118 -259c0 -109 -43 -175 -87 -223c-29 -31 -77 -64 -121 -82c-2 -1 -4 -5 -1 -8c13 -18 141 -97 231 -135c67 -29 124 -48 195 -48c50 1 88 11 124 26c6 2 10 0 10 -4s-8 -12 -12 -15c-33 -19 -104 -47 -180 -47
c-100 0 -160 23 -252 64c-59 27 -141 76 -224 125c-24 15 -43 26 -63 30c-50 14 -108 35 -158 77c-60 49 -113 134 -113 249c0 82 28 161 87 222c55 55 132 103 239 103zM360 627c-38 0 -90 -15 -135 -63c-59 -57 -87 -150 -85 -248c2 -107 42 -180 80 -227
c50 -60 125 -90 177 -90c34 0 75 12 108 42c39 32 94 114 94 261c0 90 -27 174 -70 232c-30 39 -80 93 -169 93z" />
    <glyph glyph-name="R" unicode="R" horiz-adv-x="573" 
d="M262 631c60 0 102 -13 135 -36c42 -31 62 -73 62 -121c0 -64 -34 -94 -57 -111c-15 -12 -41 -24 -55 -29c-4 -2 -4 -8 0 -18c19 -37 71 -125 105 -177c31 -45 52 -71 73 -93c29 -30 54 -36 74 -37c6 0 12 -3 12 -6s-4 -6 -11 -9c-8 -3 -28 -4 -49 -4
c-64 0 -111 24 -151 79c-41 54 -107 167 -131 206c-15 20 -26 29 -39 31c-8 2 -18 3 -37 2c-4 0 -8 -5 -8 -10c-2 -14 -2 -123 -1 -159c0 -57 4 -88 8 -99c3 -10 11 -22 46 -28c10 -3 15 -6 15 -10s-8 -7 -19 -7c-16 0 -53 5 -91 5c-36 0 -76 -5 -94 -5c-11 0 -18 2 -18 7
c0 4 6 7 19 10c33 6 43 16 46 56c3 57 5 140 5 253c0 139 -4 207 -6 242c-2 29 -2 44 -44 51c-9 2 -18 4 -18 9c0 4 7 6 18 6c14 0 46 -3 80 -3c47 0 67 5 131 5zM222 614c-12 0 -25 -4 -30 -7c-3 -2 -6 -4 -7 -22c-1 -17 -2 -225 -2 -242c0 -12 3 -17 8 -17
c5 -2 16 -2 22 -2c24 1 81 8 103 23c28 19 54 57 54 112c0 49 -12 87 -39 114c-30 30 -64 41 -109 41z" />
    <glyph glyph-name="S" unicode="S" horiz-adv-x="445" 
d="M259 643c49 0 100 -13 117 -19c5 -1 7 -8 7 -11c0 -27 3 -57 5 -68c2 -12 -2 -20 -6 -20c-3 0 -6 5 -9 16c-8 26 -18 46 -38 60c-22 17 -56 26 -81 26c-48 0 -117 -37 -117 -120c0 -52 31 -86 70 -113c37 -25 69 -47 101 -70c39 -29 99 -74 99 -163
c0 -113 -107 -179 -213 -179c-47 0 -107 12 -138 28c-10 6 -14 13 -17 25c-1 16 -9 53 -10 77c-1 12 1 19 5 19c5 0 8 -6 12 -20c18 -75 83 -111 146 -111c79 0 131 61 131 127c0 65 -47 104 -118 151c-82 55 -140 109 -140 196c0 53 25 98 64 128c28 22 72 41 130 41z" />
    <glyph glyph-name="T" unicode="T" horiz-adv-x="570" 
d="M284 625l163 1c59 0 76 2 92 11c4 3 8 4 9 2c1 -3 2 -5 1 -13c-3 -12 -3 -45 -3 -79c0 -15 -4 -22 -7 -22c-4 0 -7 9 -8 15c-3 17 -11 39 -19 48c-9 8 -24 13 -89 13c-34 0 -81 0 -97 -2c-5 -2 -6 -9 -6 -17c0 -38 -2 -274 -2 -317c-1 -57 3 -174 6 -204
c4 -33 13 -40 48 -50c12 -3 17 -5 17 -10c0 -6 -6 -7 -19 -7c-23 0 -58 6 -100 6c-55 0 -86 -6 -102 -6c-13 0 -18 5 -18 9c0 5 9 8 20 10c49 6 55 21 58 68c6 98 6 494 4 507c-1 9 -3 12 -6 12c-7 1 -30 3 -75 3c-38 0 -63 -2 -82 -4c-19 -4 -32 -16 -46 -56
c-5 -12 -10 -17 -14 -17s-5 8 -4 16c5 29 13 59 14 86c0 8 1 13 5 15c3 1 6 -1 9 -4c4 -5 17 -9 31 -10c15 -1 118 -4 220 -4z" />
    <glyph glyph-name="U" unicode="U" horiz-adv-x="668" 
d="M137 625c33 0 60 3 85 3c12 0 16 -3 16 -6c0 -5 -7 -8 -16 -10c-48 -8 -47 -38 -47 -85c-2 -94 -2 -223 -1 -280c1 -77 20 -135 53 -169c38 -41 94 -54 139 -54c109 0 183 57 190 256c1 36 2 83 2 114c0 189 -9 201 -36 212c-8 2 -18 5 -26 6c-9 1 -17 6 -17 9
c0 5 6 7 17 7c23 0 39 -3 71 -3c22 0 48 3 73 3c12 0 18 -2 18 -5c0 -5 -5 -8 -21 -11c-40 -7 -43 -27 -46 -71c-4 -59 -5 -189 -9 -246c-5 -99 -16 -187 -73 -247c-52 -55 -128 -65 -177 -65c-54 0 -118 15 -158 46c-61 48 -83 106 -86 233c-3 79 -1 227 -5 286
c-3 49 -5 56 -45 67c-7 2 -13 5 -13 9c0 5 9 5 18 5c26 0 56 -4 94 -4z" />
    <glyph glyph-name="V" unicode="V" horiz-adv-x="617" 
d="M-9 623c0 4 9 6 19 6c26 0 65 -4 93 -4c33 0 78 4 96 4c15 0 19 -4 19 -7c0 -6 -10 -9 -20 -10c-24 -4 -34 -16 -34 -27s4 -25 12 -48c18 -53 137 -359 159 -402c1 -3 4 -6 6 -1c15 31 127 317 144 366c12 32 20 59 20 78c0 23 -18 30 -49 36c-10 2 -16 6 -16 9
c0 4 5 7 21 7c22 0 60 -5 82 -5c23 0 51 4 67 4c13 0 17 -1 17 -5s-4 -8 -20 -12c-41 -10 -57 -33 -86 -98c-19 -42 -76 -185 -171 -414c-24 -58 -35 -92 -40 -108c-2 -8 -6 -13 -9 -13c-6 0 -8 8 -12 21c-34 101 -188 490 -224 568c-12 25 -24 40 -55 45
c-12 2 -19 6 -19 10z" />
    <glyph glyph-name="W" unicode="W" horiz-adv-x="935" 
d="M-12 622c0 3 6 7 20 7c25 0 69 -4 98 -4c22 0 51 2 72 2c15 0 20 -3 20 -7c0 -5 -6 -9 -18 -11c-26 -5 -27 -16 -19 -34c41 -101 137 -307 205 -454c3 -7 7 -6 9 -1c25 49 49 99 75 159c2 4 2 10 1 13c-14 34 -83 189 -106 237c-29 61 -36 74 -69 82c-14 3 -20 7 -20 11
s6 7 20 7c28 0 52 -4 87 -4c36 0 65 4 87 4c10 0 17 -2 17 -6c0 -5 -6 -9 -20 -12c-25 -5 -35 -15 -21 -49c15 -39 48 -115 78 -182c1 -2 5 -3 8 2c21 43 44 92 65 141c27 66 27 77 -15 87c-19 4 -22 8 -22 12c0 3 6 6 17 6c25 0 42 -3 68 -3c33 0 51 4 74 4
c11 0 17 -1 17 -6c0 -4 -6 -7 -19 -10c-36 -9 -54 -27 -87 -85c-25 -47 -69 -136 -89 -174c-1 -2 -1 -7 0 -12c22 -53 69 -152 103 -225c3 -7 6 -5 8 0c46 98 162 367 184 444c7 24 6 41 -29 50c-16 5 -21 7 -21 12c0 4 3 6 17 6c26 0 41 -4 71 -4c28 0 55 4 72 4
c13 0 19 -1 19 -5c0 -5 -5 -8 -23 -12c-41 -10 -60 -28 -125 -174c-63 -141 -131 -300 -188 -434c-6 -16 -10 -23 -15 -23c-7 0 -11 7 -18 24c-21 60 -81 187 -107 246c-2 4 -6 4 -7 1c-37 -74 -91 -188 -113 -247c-7 -16 -12 -24 -17 -24c-6 0 -8 6 -15 24
c-13 34 -43 106 -56 135c-56 126 -127 283 -173 378c-34 72 -41 89 -79 94c-12 1 -22 6 -21 10z" />
    <glyph glyph-name="X" unicode="X" horiz-adv-x="627" 
d="M1 624c0 5 8 7 19 7c43 0 82 -6 114 -6c29 0 58 2 88 3c7 1 17 -1 17 -5c0 -5 -9 -9 -17 -11c-30 -6 -36 -19 -25 -38c14 -28 117 -196 129 -208c2 -2 6 -3 9 2c12 18 91 141 109 171c17 29 21 41 21 50c0 13 -12 18 -36 22c-12 3 -17 6 -17 10c0 3 6 7 20 7
c16 0 41 -3 62 -3c36 0 55 5 85 5c9 0 17 -2 17 -6c0 -5 -9 -9 -14 -10c-52 -10 -64 -24 -98 -66c-26 -31 -59 -81 -141 -201c-2 -3 -2 -8 0 -11c99 -162 151 -241 177 -278c25 -34 43 -38 76 -46c13 -4 18 -7 18 -12c0 -3 -6 -6 -15 -6c-21 0 -76 6 -131 6
c-42 0 -75 -3 -83 -3c-11 0 -21 2 -21 8c0 4 7 8 19 10c37 7 41 18 27 47c-10 19 -107 181 -121 202c-2 3 -8 5 -10 2c-50 -72 -107 -165 -121 -190c-9 -17 -11 -25 -11 -32c0 -10 5 -22 43 -31c10 -2 15 -6 15 -9c0 -6 -11 -7 -19 -7c-12 0 -45 3 -78 3s-64 -5 -84 -5
c-13 0 -19 3 -19 8c0 4 9 8 17 9c38 5 65 26 80 42c22 24 124 170 167 232c2 4 0 10 -2 14c-6 12 -117 190 -159 252c-33 46 -46 55 -89 63c-10 1 -18 6 -18 9z" />
    <glyph glyph-name="Y" unicode="Y" horiz-adv-x="588" 
d="M-3 624c0 6 8 6 20 6c19 0 70 -5 100 -5c32 0 65 3 86 3c11 0 16 -2 16 -6c0 -5 -6 -8 -16 -10c-24 -5 -29 -11 -29 -19c0 -6 5 -19 16 -37c18 -31 103 -180 128 -212c1 -1 8 -6 10 -1c31 50 95 153 116 192c17 28 24 43 24 53c0 12 -13 21 -38 26c-9 2 -17 5 -17 10
c0 3 6 5 16 5c28 0 44 -4 72 -4c24 0 59 5 73 5c12 0 18 -2 18 -6s-6 -8 -21 -10c-39 -8 -57 -26 -78 -55c-51 -66 -118 -182 -146 -230c-7 -11 -13 -27 -13 -37c-2 -37 -2 -91 -2 -138c0 -25 0 -44 1 -78c2 -47 10 -56 46 -64c13 -3 21 -5 21 -11c0 -5 -10 -6 -18 -6
c-45 0 -56 5 -101 5c-37 0 -59 -4 -87 -4c-14 0 -21 3 -21 8c0 4 10 7 22 9c40 5 47 16 50 53c2 21 4 86 4 129c0 63 0 79 -2 93c-1 8 -4 19 -7 23c-29 55 -113 197 -143 238c-32 44 -47 59 -79 65c-16 3 -21 7 -21 10z" />
    <glyph glyph-name="Z" unicode="Z" horiz-adv-x="610" 
d="M64 639c7 -2 23 -9 43 -10s156 -4 347 -4c47 0 90 2 102 3c6 1 9 -6 3 -14c-6 -6 -47 -57 -83 -116c-34 -55 -261 -392 -302 -464c-1 -3 -3 -9 4 -9c108 0 268 2 307 6c24 4 35 8 50 24c10 11 28 37 38 54c5 8 9 14 15 14c4 0 4 -8 2 -16c-4 -10 -19 -69 -22 -95
c-2 -11 -25 -12 -41 -12c-18 0 -318 0 -364 -1c-27 0 -82 -2 -104 -3c-10 0 -15 5 -8 14c86 120 315 461 384 578c3 5 3 12 -1 12c-47 0 -288 -1 -315 -2c-13 -2 -27 -3 -40 -14s-33 -34 -49 -58c-5 -7 -9 -9 -13 -9c-5 0 -6 9 0 20c15 30 28 75 35 96c2 6 3 9 12 6z" />
    <glyph glyph-name="bracketleft" unicode="[" horiz-adv-x="279" 
d="M232 666c0 -5 -12 -7 -22 -8c-12 -1 -69 -5 -82 -7c-6 -1 -8 -12 -9 -20c-3 -59 -4 -175 -4 -312c0 -167 4 -367 7 -426c1 -26 7 -37 20 -39c19 -3 70 -7 75 -7s21 -2 21 -9c0 -6 -12 -9 -23 -9c-8 0 -43 1 -69 1c-25 0 -47 -1 -53 -1s-9 7 -9 29c1 157 1 341 1 511
c-1 141 -1 229 -1 286c0 12 0 14 4 15c3 3 10 3 18 3c49 0 92 1 105 1c12 0 21 -2 21 -8z" />
    <glyph glyph-name="backslash" unicode="\" horiz-adv-x="372" 
d="M62 644c88 -234 173 -448 263 -682c6 -13 8 -27 0 -27c-9 0 -16 4 -24 25c-91 235 -179 455 -267 691c0 4 -2 14 6 14c9 0 19 -9 22 -21z" />
    <glyph glyph-name="bracketright" unicode="]" horiz-adv-x="280" 
d="M41 668c0 5 12 7 24 7c7 0 42 -1 68 -1c25 0 50 1 56 1c4 0 6 -6 6 -30v-510c0 -141 1 -229 1 -286c0 -11 -1 -13 -3 -15c-3 -3 -11 -3 -21 -3c-48 0 -88 -1 -101 -1c-12 0 -23 2 -23 8c0 5 14 7 24 8c12 1 65 5 78 7c8 1 9 11 10 20c3 59 4 175 4 312
c0 167 -4 371 -6 430c-1 22 -4 34 -19 37c-20 2 -73 6 -78 6s-20 3 -20 10z" />
    <glyph glyph-name="asciicircum" unicode="^" horiz-adv-x="410" 
d="M207 581c5 0 13 -16 18 -25l102 -193c3 -5 4 -9 2 -12c-5 -5 -25 -11 -26 -7l-94 182c-2 3 -4 4 -6 1l-99 -187c-2 -3 -17 0 -24 7c-2 2 -1 8 1 13l105 194c13 24 17 27 21 27z" />
    <glyph glyph-name="underscore" unicode="_" horiz-adv-x="485" 
d="M0 -121h485v-49h-485v49z" />
    <glyph glyph-name="quoteleft" unicode="&#x2018;" horiz-adv-x="141" 
d="M82 498c-38 0 -65 33 -65 72c0 72 77 101 93 101c5 0 10 -1 10 -5c0 -2 -5 -5 -11 -7c-29 -15 -54 -35 -54 -69c0 -21 11 -34 38 -41c12 -3 22 -10 22 -23c0 -14 -16 -28 -33 -28z" />
    <glyph glyph-name="a" unicode="a" horiz-adv-x="349" 
d="M187 371c37 0 67 -21 79 -49c12 -21 16 -63 16 -93c0 -40 -2 -132 -2 -158c0 -18 9 -36 35 -36c9 0 19 2 30 8c5 3 9 -1 5 -9c-15 -30 -48 -46 -80 -46s-53 24 -61 46c-1 2 -4 3 -5 1c-30 -28 -60 -45 -98 -45c-40 0 -80 34 -80 87c0 32 25 53 36 58c25 13 113 39 136 47
c8 3 12 11 13 15c1 12 2 34 2 47c0 41 -8 67 -24 80c-13 10 -29 16 -41 16c-15 0 -26 -3 -39 -12c-6 -5 -12 -12 -14 -22c-1 -4 0 -14 0 -21c0 -3 -3 -7 -5 -9c-10 -6 -41 -22 -51 -24c-4 -1 -9 5 -9 10c0 8 8 19 20 33c22 25 52 44 76 57c23 12 45 19 61 19zM154 30
c16 0 31 5 41 15c4 4 9 13 11 23c3 16 5 57 5 96c0 1 -2 7 -5 6c-12 -3 -64 -21 -85 -32c-13 -7 -26 -23 -26 -51c0 -34 29 -57 59 -57z" />
    <glyph glyph-name="b" unicode="b" horiz-adv-x="443" 
d="M411 194c0 -64 -23 -108 -51 -136c-42 -44 -103 -69 -157 -69c-36 0 -84 10 -116 25c-8 4 -14 2 -29 -3c-4 -1 -7 4 -6 7c2 15 5 37 7 96c2 50 5 254 5 324c1 75 -1 151 -3 168c-2 19 -5 23 -26 37c-8 5 -12 8 -12 11s5 7 19 9c17 2 54 11 79 22c9 4 14 4 16 4
s4 -4 4 -17c-3 -61 -6 -210 -6 -331c0 -6 4 -7 6 -6c23 17 58 33 103 33c56 0 99 -28 122 -55c30 -33 45 -78 45 -119zM334 167c0 37 -11 89 -39 122c-17 21 -55 48 -99 48c-25 0 -46 -9 -54 -15c-4 -3 -7 -12 -8 -25c-3 -16 -2 -98 -2 -136s5 -90 15 -109
c5 -12 19 -21 29 -27c14 -10 42 -16 60 -16c16 0 47 11 65 35c20 26 33 77 33 123z" />
    <glyph glyph-name="c" unicode="c" horiz-adv-x="369" 
d="M209 352c-37 0 -102 -38 -102 -152c0 -63 24 -107 48 -128c26 -25 63 -35 92 -35c43 0 68 7 101 37c3 3 8 3 8 -1s-2 -8 -8 -16c-19 -26 -65 -68 -139 -68c-47 0 -93 17 -126 50c-32 32 -50 79 -50 134c0 63 32 113 62 140c31 29 85 58 147 58c47 0 77 -13 94 -25
c10 -6 13 -15 13 -20c0 -19 -18 -33 -27 -33c-4 0 -11 4 -17 9c-15 15 -43 35 -58 42c-12 6 -25 8 -38 8z" />
    <glyph glyph-name="d" unicode="d" horiz-adv-x="449" 
d="M243 370c24 0 52 -5 65 -8c2 -1 4 3 4 5c1 18 0 191 -1 242c-1 8 -2 14 -5 18c-5 7 -16 12 -28 15c-7 3 -11 6 -11 9s5 6 13 7c38 6 83 20 92 24c5 3 11 6 14 6s5 -5 4 -18c-2 -28 -6 -333 -6 -452c0 -86 0 -158 2 -184c0 -4 3 -8 6 -8c6 0 24 4 45 9c7 2 10 0 10 -3
c0 -7 -7 -17 -25 -19c-44 -7 -84 -18 -110 -27c-4 -1 -7 5 -7 8c1 14 3 29 2 40c0 3 -3 4 -5 3c-44 -36 -83 -47 -113 -47c-34 0 -73 13 -104 42c-27 25 -52 76 -52 135c0 82 47 138 89 166c32 21 77 37 121 37zM212 351c-20 0 -32 -5 -47 -17c-27 -21 -52 -69 -52 -142
c0 -111 61 -166 118 -166c22 0 47 6 66 24c6 6 9 18 10 33c4 33 6 163 0 198c-2 10 -7 21 -10 24c-22 32 -56 46 -85 46z" />
    <glyph glyph-name="e" unicode="e" horiz-adv-x="368" 
d="M217 371c62 0 123 -44 123 -104c0 -6 -6 -11 -10 -11c-9 0 -138 3 -162 3h-49c-2 0 -8 -6 -9 -9c-5 -10 -8 -27 -8 -51c0 -51 20 -91 46 -120c26 -30 66 -41 96 -41c41 0 71 9 95 32c8 7 12 5 12 1s-3 -9 -9 -16c-38 -43 -82 -66 -142 -66c-48 0 -89 19 -119 51
c-31 32 -48 80 -48 134c0 48 17 107 60 148c27 25 72 49 124 49zM207 357c-24 0 -47 -15 -68 -36c-12 -15 -21 -36 -21 -43c0 -2 2 -5 4 -5h121c23 0 25 12 25 21c0 14 -3 31 -14 44c-9 9 -25 19 -47 19z" />
    <glyph glyph-name="f" unicode="f" horiz-adv-x="247" 
d="M69 67v239c0 9 -2 13 -5 14c-6 0 -17 0 -28 1c-6 1 -13 6 -13 9c0 2 5 5 12 10c7 4 16 9 25 15c6 4 9 10 9 14c1 70 4 121 18 162c16 51 47 102 104 135c29 18 61 24 88 24c41 0 70 -17 70 -34c0 -12 -16 -30 -26 -35c-7 -4 -17 -2 -22 2c-14 9 -37 38 -73 38
c-42 0 -73 -28 -82 -125c-3 -32 -5 -105 -5 -137c0 -13 0 -30 2 -36c0 -1 3 -5 8 -5c8 0 89 2 100 2c4 0 9 -8 9 -21s-3 -17 -14 -17c-18 0 -84 2 -98 2c-3 0 -5 -7 -5 -9c-1 -35 2 -219 3 -248c2 -37 11 -45 21 -48c8 -3 18 -4 31 -7c12 -2 18 -5 18 -9c0 -5 -8 -7 -17 -7
c-30 0 -47 4 -102 4c-23 0 -45 -3 -61 -4c-10 0 -15 2 -15 6s6 7 19 10c24 6 29 19 29 55z" />
    <glyph glyph-name="g" unicode="g" horiz-adv-x="400" 
d="M81 -156c0 -18 11 -53 40 -74c26 -18 49 -29 93 -29c22 0 61 1 93 23c28 19 53 59 53 98c0 41 -26 77 -91 77c-37 0 -88 -1 -116 -2c-20 -1 -28 -5 -31 -8c-22 -19 -41 -52 -41 -85zM184 377c49 0 93 -20 104 -26c8 -4 17 -5 35 -5s57 2 73 2c4 0 8 -10 8 -22
c0 -11 -6 -19 -10 -19c-15 0 -49 2 -60 2c-3 0 -6 -4 -6 -6c0 -7 2 -24 2 -41c0 -58 -27 -108 -62 -134c-32 -21 -64 -26 -80 -26c-14 0 -34 3 -44 5c-4 1 -10 -2 -12 -3c-9 -5 -22 -19 -32 -29c-8 -9 -10 -18 -10 -22c0 -30 38 -41 91 -41c30 0 83 3 113 3
c41 0 61 -12 79 -27c23 -19 35 -51 35 -86c0 -67 -54 -129 -109 -160c-40 -24 -81 -37 -126 -37c-83 0 -147 40 -147 112c0 20 9 33 18 43c7 8 44 51 62 73c2 1 2 7 0 8c-26 6 -82 41 -82 84c0 5 4 9 6 10c26 17 70 56 84 74c1 1 0 4 -1 5c-36 21 -78 64 -78 125
c0 46 17 73 42 97c29 28 69 41 107 41zM179 363c-18 0 -34 -9 -47 -22c-18 -20 -26 -55 -26 -87c0 -49 16 -90 30 -107s33 -31 59 -31c44 0 71 55 71 101c0 45 -9 87 -30 113c-18 23 -32 33 -57 33z" />
    <glyph glyph-name="h" unicode="h" horiz-adv-x="443" 
d="M225 334c-37 0 -66 -18 -81 -33c-5 -5 -10 -15 -10 -34c-1 -137 3 -199 5 -220c3 -19 10 -30 32 -35c14 -3 21 -5 21 -10c0 -3 -6 -6 -16 -6c-28 0 -58 4 -83 4c-34 0 -49 -4 -69 -4c-11 0 -16 2 -16 6s4 6 16 9c28 7 34 11 36 47c2 39 3 132 3 286c0 150 2 214 0 251
c-1 32 -8 35 -30 47c-4 3 -7 5 -7 8s6 6 17 9c31 9 58 15 81 26c5 3 8 4 10 4c3 0 6 -6 5 -20c0 -24 -5 -333 -4 -351c0 -4 3 -5 4 -4c13 12 40 31 59 40c17 9 42 17 67 17c34 0 68 -12 91 -45c12 -14 23 -45 24 -106c1 -73 0 -135 1 -177c1 -19 5 -26 33 -31
c13 -3 17 -6 17 -10s-8 -7 -17 -7c-26 0 -44 5 -74 5c-38 0 -44 -4 -69 -4c-12 0 -16 3 -16 6c0 5 5 6 15 9c27 5 29 13 33 43c2 23 4 69 4 168c0 25 -3 55 -14 76c-14 23 -36 36 -68 36z" />
    <glyph glyph-name="i" unicode="i" horiz-adv-x="206" 
d="M35 333c0 3 3 6 12 8c32 8 54 17 79 27c8 4 12 7 15 7s5 -3 4 -14c-2 -20 -2 -79 -2 -138c0 -90 0 -166 2 -182c2 -20 11 -26 27 -30c11 -2 15 -4 15 -8c0 -5 -8 -7 -16 -7c-11 0 -44 4 -75 4c-35 0 -54 -2 -65 -2c-7 0 -14 2 -14 6s5 7 19 10c22 5 32 15 32 54
c1 30 3 210 3 220c0 15 -1 21 -28 37c-5 2 -8 6 -8 8zM115 543c23 0 37 -21 37 -39c0 -30 -25 -42 -40 -42c-19 0 -36 18 -36 39c0 28 22 42 39 42z" />
    <glyph glyph-name="j" unicode="j" horiz-adv-x="203" 
d="M27 330c0 5 7 7 16 10c32 9 66 21 81 30c6 4 10 5 14 5c3 0 5 -5 5 -14c0 -94 -1 -199 -2 -286c0 -51 -3 -98 -4 -121c-9 -128 -88 -209 -144 -238c-10 -6 -25 -7 -25 0c0 3 3 6 11 10c56 30 82 103 86 176c2 34 4 84 4 135c-1 50 -1 156 -2 199c-1 52 -4 64 -8 70
c-5 7 -15 11 -22 15s-10 6 -10 9zM105 463c-20 0 -36 19 -36 39c0 29 23 44 42 44c16 0 34 -18 34 -40c0 -20 -13 -43 -40 -43z" />
    <glyph glyph-name="k" unicode="k" horiz-adv-x="430" 
d="M249 360c16 0 37 -1 47 -1c26 0 65 5 93 5c11 0 15 -3 15 -6s-3 -6 -15 -8c-34 -7 -52 -14 -91 -44c-25 -20 -69 -58 -89 -78c-2 -1 0 -5 1 -6c32 -39 103 -118 148 -164c28 -29 41 -40 71 -46c9 -3 14 -6 14 -10c0 -6 -8 -7 -17 -7c-40 0 -77 5 -116 5
c-18 0 -32 -1 -46 -1c-12 0 -18 1 -18 6s5 7 22 11c16 4 19 13 10 26c-20 23 -86 97 -116 128c-9 9 -16 17 -20 17c-3 0 -3 -6 -4 -10c-1 -18 -1 -56 0 -105s10 -52 38 -59c10 -2 16 -5 16 -9c0 -5 -9 -7 -19 -7c-29 0 -53 3 -79 3c-33 0 -58 -3 -67 -3c-10 0 -17 2 -17 7
c0 3 6 6 14 8c30 7 36 16 38 49c4 73 5 155 6 233c0 69 2 208 2 281c0 23 -1 34 -3 47c-1 7 -11 14 -23 20c-6 3 -9 6 -9 8c0 4 5 6 16 9c47 11 74 23 78 25c7 3 12 5 16 5c1 0 3 -3 3 -8c-1 -33 -5 -124 -5 -199c0 -31 -5 -173 -5 -268c0 -11 2 -16 5 -16c4 0 12 6 20 11
c39 30 90 77 108 102c5 6 10 13 10 17c0 6 -7 13 -31 16c-9 2 -17 4 -17 9c0 4 8 7 16 7z" />
    <glyph glyph-name="l" unicode="l" horiz-adv-x="204" 
d="M139 342v-99c0 -127 1 -172 2 -191c1 -29 7 -35 34 -39c6 -2 13 -4 13 -8c0 -5 -7 -7 -20 -7c-20 0 -56 2 -73 2c-26 0 -50 -2 -68 -2c-12 0 -18 1 -18 6s5 6 17 9c26 6 32 14 35 57c3 38 6 212 7 325c0 75 1 163 0 205c0 21 -3 27 -28 42c-7 4 -9 7 -9 10s5 6 14 7
c32 6 60 17 81 25c4 1 9 3 13 3c2 0 3 -5 3 -11c0 -7 -3 -178 -3 -334z" />
    <glyph glyph-name="m" unicode="m" horiz-adv-x="691" 
d="M36 330c0 3 5 5 12 8c23 5 56 18 74 31c6 4 11 6 15 6s5 -4 5 -10v-47c0 -4 1 -9 5 -6c33 29 78 58 123 58c46 0 78 -21 100 -64c1 -2 5 -3 6 -1c42 39 86 66 136 66c54 0 89 -35 101 -74c7 -20 12 -57 13 -94c0 -33 3 -111 4 -145c1 -33 8 -40 28 -44c13 -2 18 -6 18 -9
c0 -5 -5 -7 -18 -7c-11 0 -47 2 -70 2c-24 0 -50 -3 -65 -3c-13 0 -19 2 -19 6c0 5 8 8 17 10c26 6 31 15 32 45c1 120 -4 168 -8 198c-8 51 -35 74 -81 74c-34 0 -64 -19 -80 -35c-3 -3 -5 -13 -5 -29c3 -31 5 -185 7 -212c3 -28 6 -35 30 -41c11 -3 15 -5 15 -9
s-6 -7 -16 -7c-22 0 -48 3 -81 3c-22 0 -48 -3 -58 -3c-12 0 -16 2 -16 6c0 3 4 7 16 10c21 5 31 11 31 35l2 161c0 55 -5 78 -25 99c-12 13 -29 22 -58 22c-32 0 -56 -15 -71 -28c-7 -7 -10 -17 -11 -24c-1 -11 -3 -33 -3 -70c0 -83 3 -146 5 -164c2 -15 8 -26 31 -31
c11 -2 15 -5 15 -8c0 -5 -8 -8 -15 -8c-19 0 -53 3 -77 3c-34 0 -54 -3 -70 -3c-9 0 -17 3 -17 8c0 4 6 7 19 9c30 7 32 18 33 31c3 20 4 110 4 162c0 35 0 60 -1 78c-1 15 -7 24 -22 34c-7 5 -10 7 -10 11z" />
    <glyph glyph-name="n" unicode="n" horiz-adv-x="446" 
d="M273 371c41 0 65 -19 79 -35c22 -23 31 -72 32 -129c0 -54 1 -63 1 -114c1 -67 4 -74 31 -80c9 -3 15 -6 15 -10c0 -6 -7 -7 -17 -7c-16 0 -46 4 -67 4c-40 0 -55 -4 -68 -4c-8 0 -16 2 -16 6s6 8 18 11c25 6 29 13 29 41v138c0 80 -7 104 -31 123c-15 12 -34 18 -55 18
c-25 0 -49 -10 -72 -29c-6 -6 -11 -20 -11 -28c0 -14 1 -64 1 -121c1 -65 3 -96 5 -110c3 -23 14 -28 31 -32c12 -4 16 -6 16 -11c0 -6 -10 -6 -19 -6s-60 4 -82 4c-14 0 -36 -2 -58 -2c-11 0 -18 2 -18 7s8 8 20 10c26 5 28 12 29 33c2 69 3 159 3 243c0 10 -2 21 -25 33
c-7 5 -8 7 -8 10s4 5 14 8c25 6 69 25 85 35c3 2 8 -2 8 -8c-1 -11 -3 -37 -2 -52c0 -2 3 -4 5 -2c24 18 47 34 67 43c21 10 42 13 60 13z" />
    <glyph glyph-name="o" unicode="o" horiz-adv-x="453" 
d="M226 371c112 0 194 -84 194 -189c0 -77 -45 -131 -77 -156c-32 -24 -79 -38 -115 -38c-105 0 -195 82 -195 187c0 75 36 124 72 153c29 23 75 43 121 43zM212 354c-48 0 -99 -57 -99 -156c0 -44 9 -98 39 -140c26 -36 60 -53 89 -53c24 0 45 10 60 25c14 13 39 61 39 134
c0 100 -44 190 -128 190z" />
    <glyph glyph-name="p" unicode="p" horiz-adv-x="442" 
d="M264 370c40 0 80 -24 103 -50c30 -34 43 -78 43 -117c0 -108 -66 -172 -137 -199c-23 -8 -44 -14 -71 -14c-18 0 -45 4 -55 7c-4 1 -7 -5 -8 -9c-3 -14 -4 -91 -2 -135c1 -47 3 -72 7 -85c5 -21 22 -27 49 -32c10 -2 14 -4 14 -9s-8 -7 -20 -7c-16 0 -52 4 -90 4
c-33 0 -66 -6 -78 -6s-18 2 -18 6c0 3 4 7 17 9c35 10 41 20 44 45c0 15 2 63 2 142c0 122 -1 312 -3 338c-2 40 -2 46 -24 58c-5 4 -10 8 -10 10c0 4 5 8 13 10c9 4 58 21 81 36c7 5 11 7 15 7c2 0 4 -3 4 -9c0 -5 -2 -34 -2 -43c0 -2 2 -6 5 -4c45 32 77 47 121 47z
M238 12c14 0 29 4 45 17c23 20 53 66 53 142c0 53 -17 104 -49 133c-17 15 -40 27 -72 27c-26 0 -49 -6 -67 -18c-7 -5 -10 -8 -11 -20c-3 -27 -2 -185 0 -208c1 -7 4 -15 9 -25c21 -35 65 -48 92 -48z" />
    <glyph glyph-name="q" unicode="q" horiz-adv-x="446" 
d="M201 -12c-34 0 -77 13 -110 43c-33 31 -58 79 -58 140c0 71 37 130 87 164c30 20 70 36 118 36c56 0 92 -19 124 -31c7 -3 11 0 21 12c4 6 8 11 12 11s5 -5 4 -14c-1 -7 -4 -28 -7 -78c-2 -50 -6 -194 -6 -272v-225c0 -11 8 -27 35 -36c10 -3 17 -6 17 -10s-6 -7 -16 -7
c-22 0 -38 3 -75 3c-36 0 -75 -6 -92 -6c-14 0 -17 3 -17 6c0 5 5 8 20 10c34 9 44 18 48 52c3 35 8 148 8 231c0 5 -2 7 -4 6c-33 -20 -70 -35 -109 -35zM250 19c26 0 45 7 58 18c4 4 6 13 6 29c1 42 1 127 1 164c-1 32 -7 60 -18 78c-15 23 -45 46 -83 46
c-24 0 -45 -11 -61 -31c-27 -31 -39 -70 -39 -131c0 -50 17 -107 52 -138c26 -24 57 -35 84 -35z" />
    <glyph glyph-name="r" unicode="r" horiz-adv-x="291" 
d="M200 314c-15 0 -30 -7 -42 -19c-10 -11 -14 -21 -16 -32c-2 -13 -1 -45 -1 -65c0 -73 2 -122 4 -143c4 -32 15 -39 53 -42c14 -3 18 -5 18 -10s-8 -7 -23 -7c-21 0 -50 4 -94 4c-42 0 -50 -5 -67 -5c-11 0 -16 1 -16 5s5 9 14 11c22 5 32 13 35 41c2 17 3 74 3 140
c1 63 1 94 0 108c0 7 -6 10 -25 26c-7 5 -8 8 -8 11c0 2 6 6 14 8c25 8 55 18 72 27c7 4 12 5 15 5c2 0 4 -4 4 -13c0 -13 -1 -48 -1 -66c0 -3 3 -4 5 -1c28 35 67 72 107 72c12 0 25 -5 34 -12c7 -5 9 -10 9 -16c0 -8 -10 -25 -23 -37c-10 -9 -14 -10 -18 -10
c-2 0 -6 1 -18 7c-11 7 -24 13 -35 13z" />
    <glyph glyph-name="s" unicode="s" horiz-adv-x="289" 
d="M164 355c-30 0 -60 -22 -60 -59c0 -42 37 -64 67 -82c64 -42 89 -68 89 -119c0 -43 -31 -71 -50 -83c-22 -16 -58 -24 -85 -24c-25 0 -51 6 -81 18c-7 3 -14 11 -15 16c0 14 -2 41 -3 52c-2 13 1 17 3 17c3 0 6 -1 13 -20c9 -24 24 -44 42 -55c16 -10 30 -13 46 -13
c28 0 64 26 64 65c0 35 -24 56 -67 84c-47 29 -82 69 -82 111c0 35 16 63 40 81c18 14 48 27 84 27c28 0 59 -7 71 -12c2 -1 5 -6 5 -9c1 -11 5 -30 6 -49c0 -11 -2 -16 -6 -16s-5 5 -8 13c-6 15 -10 29 -25 41c-12 10 -29 16 -48 16z" />
    <glyph glyph-name="t" unicode="t" horiz-adv-x="273" 
d="M164 -9c-41 0 -73 14 -91 46c-8 13 -11 34 -11 58v206c0 11 -1 17 -6 19c-4 2 -14 5 -22 7s-13 5 -13 9c0 2 2 5 13 11c25 9 60 37 86 68c10 12 17 9 17 4c-1 -8 -2 -40 -2 -52c0 -3 1 -9 6 -9c18 1 97 3 116 3c2 0 7 -7 7 -15c0 -18 -6 -24 -10 -24c-34 0 -78 1 -105 1
c-12 0 -14 -4 -14 -9c0 -19 0 -177 1 -207c2 -29 4 -42 11 -51c15 -19 36 -26 59 -26c25 0 42 8 52 14c8 6 11 4 11 0c0 -6 -8 -15 -22 -26c-23 -18 -54 -27 -83 -27z" />
    <glyph glyph-name="u" unicode="u" horiz-adv-x="434" 
d="M165 -9c-37 0 -63 8 -86 36c-13 17 -18 42 -18 63c-1 33 -1 200 -3 217c-1 18 -10 25 -22 33c-9 6 -12 9 -12 12c0 4 5 6 16 6c38 0 77 8 92 12c3 1 6 -5 5 -11c-3 -57 -4 -190 -3 -239c1 -42 9 -57 15 -65c13 -16 34 -24 55 -24c32 0 54 7 77 29c11 9 16 22 17 44
c2 28 3 70 3 103c0 15 -1 64 -2 90c-2 34 -10 39 -42 46c-11 2 -16 5 -16 8c0 5 9 7 15 7c13 0 28 -1 45 -1c41 0 60 7 72 7c3 0 4 -4 4 -11c-4 -44 -6 -152 -6 -260c0 -28 0 -42 2 -54c2 -9 5 -12 12 -11c10 3 33 8 40 9c7 0 12 -7 12 -11c0 -5 -10 -7 -20 -9
c-12 -1 -79 -13 -107 -27c-9 -4 -11 -3 -13 0s-2 8 -2 17c0 11 1 32 1 40c0 3 -1 9 -3 6c-21 -19 -50 -40 -68 -48c-19 -8 -41 -14 -60 -14z" />
    <glyph glyph-name="v" unicode="v" horiz-adv-x="358" 
d="M81 359c27 0 46 3 63 3c9 0 15 -2 15 -6s-7 -8 -14 -10c-26 -6 -27 -12 -19 -40c8 -32 66 -179 79 -204c1 -4 3 -5 5 -1c11 22 63 147 76 184c5 18 10 28 10 40c0 6 -6 17 -32 23c-9 2 -13 5 -13 9c0 3 4 5 13 5c12 0 26 -3 50 -3c15 0 42 2 51 2c7 0 14 -1 14 -5
s-6 -7 -15 -10c-19 -5 -32 -16 -45 -46l-85 -190c-19 -41 -34 -73 -46 -108c-5 -14 -9 -17 -12 -17s-7 2 -12 16c-4 14 -12 39 -26 77c-18 46 -77 200 -96 235c-10 18 -19 29 -43 34c-10 3 -14 6 -14 8c0 5 5 7 17 7c28 0 51 -3 79 -3z" />
    <glyph glyph-name="w" unicode="w" horiz-adv-x="559" 
d="M75 359c20 0 42 2 62 2c9 0 17 -2 17 -7c0 -3 -9 -7 -16 -8c-23 -4 -22 -13 -18 -29c15 -45 55 -152 78 -209c2 -3 5 -4 6 -1c15 29 55 119 66 148c2 5 4 13 2 18c-5 13 -12 30 -18 42c-8 17 -16 27 -37 32c-9 3 -14 5 -14 9s4 6 15 6c20 0 47 -3 69 -3c31 0 45 2 65 2
c11 0 15 -2 15 -6c0 -3 -7 -7 -15 -9c-23 -5 -28 -10 -17 -41c12 -31 63 -169 76 -198c3 -6 5 -1 5 0c13 28 55 128 68 165c8 23 14 41 14 48c0 9 -2 19 -29 25c-13 5 -17 7 -17 11s7 6 14 6c17 0 36 -3 52 -3c11 0 37 3 51 3c9 0 14 -2 14 -6s-3 -6 -18 -11
c-19 -5 -31 -18 -44 -45c-18 -37 -48 -107 -78 -177c-17 -41 -34 -83 -46 -117c-6 -15 -11 -19 -14 -19c-4 0 -8 4 -12 18l-22 64c-21 59 -42 113 -63 166c0 4 -2 6 -5 1l-63 -140l-36 -89c-4 -13 -10 -20 -15 -20c-3 0 -7 7 -10 18l-28 85c-18 50 -76 198 -87 219
c-9 19 -19 31 -44 38c-8 2 -14 5 -14 8c0 6 7 8 17 8c15 0 43 -4 74 -4z" />
    <glyph glyph-name="x" unicode="x" horiz-adv-x="379" 
d="M123 359c12 0 32 1 40 1c9 0 16 -2 16 -6c0 -3 -5 -7 -17 -10c-16 -4 -17 -11 -11 -24c12 -21 45 -78 55 -93c2 -3 5 -2 6 -1c11 15 37 53 48 71c9 15 14 28 14 32c0 8 -5 12 -25 17c-7 2 -15 6 -15 10s8 5 15 5s25 -2 48 -2c22 0 45 3 59 3c11 0 15 -2 15 -6
c0 -3 -4 -6 -17 -9c-24 -6 -36 -14 -56 -36c-17 -19 -43 -54 -77 -99c-3 -3 -3 -6 -2 -8c13 -22 68 -117 96 -157c18 -26 34 -30 49 -33c14 -4 16 -8 16 -10c0 -5 -5 -8 -18 -8c-15 0 -55 4 -81 4c-28 0 -45 -2 -64 -2c-10 0 -17 1 -17 5c0 5 6 9 20 13c17 5 20 12 8 34
c-6 11 -42 77 -54 93c-2 4 -5 4 -6 2c-18 -22 -45 -63 -59 -88s-12 -37 10 -43c12 -3 18 -5 18 -9s-7 -7 -17 -7c-11 0 -31 2 -46 2c-16 0 -35 -3 -54 -4c-15 -1 -23 3 -23 7s5 7 20 10c23 4 39 17 52 32c14 15 29 34 89 116c3 3 2 7 1 9c-21 37 -66 117 -87 144
c-17 22 -28 30 -50 34c-11 2 -20 4 -20 9s11 7 20 7c36 -1 59 -5 101 -5z" />
    <glyph glyph-name="y" unicode="y" horiz-adv-x="357" 
d="M76 359c14 0 41 2 57 2c10 1 17 -2 17 -6s-8 -8 -14 -9c-20 -6 -23 -12 -15 -34c14 -38 66 -165 86 -207c2 -5 4 -4 6 -1c16 39 66 170 74 194c4 11 5 24 5 28c0 7 -6 15 -24 20c-14 3 -18 7 -18 10s5 6 15 6c12 0 34 -3 49 -3c18 0 33 3 47 3c6 0 12 -1 12 -5
c0 -3 -5 -6 -13 -9c-21 -7 -31 -13 -48 -50c-13 -26 -73 -177 -90 -218l-43 -110c-24 -59 -59 -155 -75 -193c-8 -17 -12 -29 -20 -38c-9 -12 -22 -16 -32 -16c-19 0 -35 15 -35 34c0 17 14 32 30 32c6 0 14 -3 22 -3c11 0 19 3 25 17c10 21 37 97 71 184c4 11 3 21 0 30
c-16 40 -81 203 -126 301c-7 14 -19 24 -35 28c-13 3 -18 7 -18 9c0 6 8 7 15 7c24 0 47 -3 75 -3z" />
    <glyph glyph-name="z" unicode="z" horiz-adv-x="350" 
d="M225 359c31 0 53 1 73 1c7 0 10 1 13 -2c2 -2 0 -8 -3 -12c-33 -38 -131 -222 -181 -314c-2 -4 -2 -9 2 -9c13 -2 60 -4 91 -4c40 0 55 4 68 12c10 7 29 31 36 42c6 9 11 15 15 15c6 0 4 -13 0 -26c-10 -28 -17 -46 -22 -56c-3 -6 -9 -8 -18 -8h-77c-36 0 -80 2 -112 2
c-42 0 -61 -1 -81 -3c-11 -1 -12 8 -4 17c9 12 41 64 66 105c28 45 105 177 121 212c2 5 1 8 -1 8c-35 0 -102 0 -121 -1c-19 0 -35 -9 -51 -36c-9 -14 -12 -17 -14 -17c-4 0 -6 8 -2 21c4 14 18 55 21 69c3 13 10 10 13 1c5 -9 14 -12 28 -14c30 -3 58 -3 140 -3z" />
    <glyph glyph-name="braceleft" unicode="{" horiz-adv-x="306" 
d="M241 -175c-85 5 -139 85 -139 160c0 27 21 122 21 159c0 70 -20 95 -75 112c-11 4 -23 8 -23 15c0 3 8 6 15 8c58 14 88 47 88 90c0 34 -21 133 -21 163c0 33 15 75 50 109c40 34 75 44 95 44c11 0 13 -2 13 -5s-6 -6 -12 -8c-11 -3 -25 -8 -42 -16
c-46 -21 -66 -62 -64 -116c1 -39 23 -105 23 -153c0 -50 -52 -90 -102 -114c-6 -2 -4 -4 0 -6c73 -36 103 -77 103 -131c0 -36 -18 -111 -22 -127c-19 -79 3 -150 98 -171c8 -2 11 -5 11 -8c0 -2 -6 -6 -17 -5z" />
    <glyph glyph-name="bar" unicode="|" horiz-adv-x="231" 
d="M94 728h43v-971h-43v971z" />
    <glyph glyph-name="braceright" unicode="}" horiz-adv-x="304" 
d="M64 685c87 0 140 -84 140 -159c0 -27 -21 -112 -21 -151c0 -54 20 -79 75 -96c11 -4 22 -9 22 -14c0 -4 -7 -6 -14 -8c-58 -14 -87 -48 -87 -92c0 -53 20 -156 20 -187c0 -35 -11 -73 -49 -105c-40 -35 -76 -46 -96 -48c-8 -1 -14 3 -14 6s6 7 11 8c70 13 111 59 108 131
c-1 40 -23 108 -23 161c0 65 50 108 100 131c4 3 4 5 1 6c-74 37 -100 76 -100 123c0 31 17 88 21 111c9 80 2 147 -99 169c-8 2 -11 6 -11 9s11 5 16 5z" />
    <glyph glyph-name="asciitilde" unicode="~" horiz-adv-x="410" 
d="M131 242c56 0 109 -68 149 -68c29 0 47 13 68 62c2 5 5 6 7 6c10 0 20 -10 16 -19c-19 -50 -49 -80 -95 -80c-51 0 -99 67 -145 67c-25 0 -48 -6 -68 -54c-4 -7 -5 -9 -10 -9s-17 9 -16 13c15 49 49 82 94 82z" />
    <glyph glyph-name="exclamdown" unicode="&#xa1;" horiz-adv-x="242" 
d="M99 193c6 0 10 -6 12 -27c10 -99 36 -246 38 -311c1 -32 -19 -77 -49 -77c-33 0 -50 37 -50 74c0 50 31 248 38 311c2 23 6 30 11 30zM100 372c21 0 47 -17 47 -48c0 -29 -23 -51 -48 -51c-30 0 -45 28 -45 49c0 31 28 50 46 50z" />
    <glyph glyph-name="cent" unicode="&#xa2;" horiz-adv-x="420" 
d="M217 191l34 279c1 3 0 4 -3 4c-65 -2 -117 -66 -117 -147c0 -61 27 -116 83 -139c1 -1 3 0 3 3zM277 548l-6 -56c0 -2 1 -3 3 -3c33 -2 62 -12 76 -21c7 -4 12 -13 12 -19c0 -14 -18 -28 -28 -28c-3 0 -7 2 -12 8c-15 16 -35 35 -50 41c-1 1 -3 -1 -3 -3l-36 -283
c0 -3 1 -4 3 -5c7 -2 18 -3 26 -3c31 0 58 3 91 28c9 7 14 8 15 5s-1 -6 -7 -17c-15 -22 -66 -61 -131 -63c-2 0 -4 -2 -4 -5l-8 -64c-1 -4 -1 -8 -6 -7c-6 0 -11 4 -10 8l7 65c1 2 -1 4 -2 4c-76 11 -148 71 -148 170c0 60 30 108 60 135c32 29 84 49 132 53c2 0 3 3 3 5
l7 56c0 2 2 8 6 8c7 0 10 -8 10 -9z" />
    <glyph glyph-name="sterling" unicode="&#xa3;" horiz-adv-x="427" 
d="M315 598c53 0 84 -34 83 -69c0 -30 -18 -46 -36 -46c-4 -1 -8 2 -8 6c2 8 3 22 2 29c1 32 -16 67 -52 67c-54 0 -87 -98 -105 -269c-2 -5 1 -8 3 -8l102 6c3 0 12 -1 11 -6c0 -4 -10 -10 -13 -11l-101 -8c-4 0 -7 -5 -8 -10c-14 -85 -39 -140 -84 -184c-3 -4 -2 -6 0 -6
c32 2 64 -9 101 -27c52 -26 91 -45 117 -45c41 0 55 25 56 59c1 12 -1 29 -6 50c-1 6 1 11 6 11c15 0 32 -7 31 -38c-2 -69 -91 -134 -150 -134c-49 0 -86 28 -136 65c-22 16 -36 27 -43 27c-4 0 -9 -1 -15 -7c-24 -28 -53 -62 -62 -62c-5 0 -12 4 -11 14c0 24 36 57 64 73
c6 3 9 5 14 10c19 19 30 90 37 192c0 3 -1 7 -3 7l-57 -2c-3 0 -12 0 -11 5c0 6 11 11 13 12l57 4c2 0 5 5 5 8c4 38 10 79 19 114c13 53 36 99 72 132c26 23 63 41 108 41z" />
    <glyph glyph-name="fraction" unicode="&#x2044;" horiz-adv-x="21" 
d="M163 567c6 0 4 -10 -1 -17c-96 -160 -201 -333 -290 -482c-4 -6 -15 -11 -17 -8c-3 4 2 13 8 21c86 145 194 324 280 466c10 17 15 20 20 20z" />
    <glyph glyph-name="yen" unicode="&#xa5;" horiz-adv-x="420" 
d="M-4 585c0 2 7 6 16 6c13 0 50 -3 64 -3c33 0 61 3 79 3c10 0 16 -2 16 -6c0 -3 -5 -6 -16 -8c-16 -7 -21 -10 -12 -33c22 -54 68 -154 91 -203c1 -2 4 -4 5 0c21 40 48 102 69 151c11 25 20 51 20 62c0 9 -5 16 -28 22c-11 2 -15 4 -15 8c0 3 6 6 18 6c15 0 31 -2 48 -2
c26 1 36 4 56 4c8 0 14 -1 14 -5c0 -3 -6 -7 -12 -8c-32 -6 -47 -24 -72 -72c-28 -53 -62 -127 -88 -184c-1 -1 -3 -5 1 -5l76 -1c6 0 10 -2 10 -4c0 -8 -9 -11 -13 -11h-75c-3 0 -4 -4 -4 -6v-49c0 -7 3 -7 5 -7h75c4 0 9 -4 9 -7c0 -4 -6 -9 -14 -9l-70 -1
c-3 0 -4 -3 -4 -7v-121c0 -73 2 -75 44 -82c8 -3 15 -5 14 -9c0 -3 -7 -7 -18 -7c-21 0 -62 3 -81 3c-24 0 -54 -3 -79 -3c-8 0 -16 3 -16 7c0 5 9 6 15 8c36 8 40 13 41 65c1 38 2 99 2 140c0 4 -2 6 -4 6l-74 1c-3 0 -11 1 -11 5c0 6 11 11 15 11h70c2 0 4 3 4 7v48
c0 5 -3 7 -4 7h-70c-3 0 -11 1 -11 5c0 5 9 10 13 10l64 1c2 0 3 0 1 5c-31 67 -64 143 -93 197c-23 45 -29 51 -54 56c-10 2 -17 5 -17 9z" />
    <glyph glyph-name="florin" unicode="&#x192;" horiz-adv-x="420" 
d="M349 637c50 0 66 -29 66 -52c0 -27 -24 -44 -38 -44c-7 0 -8 4 -7 8c2 10 3 17 3 28c0 30 -16 44 -36 44c-25 0 -44 -19 -61 -54c-19 -40 -39 -109 -57 -200c-1 -5 1 -9 3 -9l71 3c9 0 12 -2 12 -6c0 -5 -9 -10 -16 -10c-13 -2 -44 -4 -71 -6c-3 0 -6 -5 -7 -8
c-19 -89 -35 -177 -57 -274c-20 -89 -69 -135 -108 -162c-30 -23 -59 -30 -83 -30c-29 0 -51 25 -51 37c0 11 10 25 19 31c3 2 9 3 12 0c25 -23 51 -38 67 -38c22 0 40 18 60 111c25 129 46 243 62 322c1 6 -1 8 -4 8h-54c-7 0 -11 2 -12 5c-1 4 9 10 13 11l58 4
c2 0 6 6 8 9c26 114 69 199 117 236c28 22 56 36 91 36z" />
    <glyph glyph-name="section" unicode="&#xa7;" horiz-adv-x="325" 
d="M33 352c0 45 26 89 49 120l2 7c4 23 18 50 39 67c28 24 56 32 74 32c19 0 33 -6 40 -12c5 -4 7 -7 7 -10c0 -5 -9 -18 -17 -23c-3 -2 -8 -3 -12 -1c-14 9 -30 21 -50 21c-38 0 -51 -32 -51 -57c0 -35 28 -62 82 -118c45 -46 91 -103 91 -160c0 -60 -33 -104 -45 -128
c-20 -40 -49 -69 -82 -86c-13 -7 -35 -14 -49 -14c-25 0 -53 15 -53 30c0 6 9 15 19 22c3 3 10 5 13 2c13 -12 38 -25 55 -25c36 0 59 27 59 62c0 24 -24 53 -84 114c-45 45 -87 97 -87 157zM62 382c0 -60 44 -106 88 -151c41 -44 80 -84 86 -121c0 -3 0 -5 3 0
c11 16 18 40 18 63c0 60 -23 97 -85 163c-51 57 -74 82 -86 118c-1 3 -2 4 -3 2c-13 -21 -21 -43 -21 -74z" />
    <glyph glyph-name="currency" unicode="&#xa4;" horiz-adv-x="420" 
d="M98 386l-40 52c-2 3 -5 9 -4 12c2 3 10 7 15 8c3 1 7 0 9 -2l42 -47c4 -3 6 -2 8 -1c26 21 54 30 82 30c30 0 58 -10 84 -29c2 -2 4 -1 7 1l42 45c3 2 8 5 11 4c5 -2 8 -3 11 -6s2 -8 -1 -14l-42 -52c-2 -2 -1 -5 0 -7c23 -28 33 -62 33 -96s-11 -71 -34 -98
c-1 -1 -2 -2 -1 -5l46 -55c1 -1 2 -4 1 -6c0 -4 -2 -10 -6 -14c-3 -3 -3 -8 -13 1l-48 50c-2 2 -5 1 -7 0c-26 -20 -54 -30 -83 -30c-30 0 -58 11 -86 29c0 1 -3 2 -6 0l-45 -48c-5 -5 -10 -5 -13 -2c-4 3 -5 9 -6 14c0 3 1 6 2 7l41 51c2 2 1 5 0 6c-21 28 -33 63 -33 99
c0 35 12 67 33 95c2 2 2 4 1 8zM210 402c-63 0 -114 -46 -114 -119c0 -71 55 -120 114 -120c58 0 114 49 114 120c0 69 -56 119 -114 119z" />
    <glyph glyph-name="quotesingle" unicode="'" horiz-adv-x="126" 
d="M81 668c8 0 11 -10 11 -31c0 -23 -13 -106 -21 -131c-2 -7 -10 -22 -13 -23c-5 -4 -8 0 -8 3c-2 46 -10 112 -15 137c-1 1 0 10 3 14c8 11 33 31 43 31z" />
    <glyph glyph-name="quotedblleft" unicode="&#x201c;" horiz-adv-x="264" 
d="M81 498c-38 0 -64 33 -64 72c0 72 76 101 92 101c6 0 10 -1 10 -5c0 -2 -5 -5 -10 -7c-30 -15 -55 -35 -55 -69c0 -21 11 -34 38 -41c11 -3 21 -10 21 -23c0 -14 -15 -28 -32 -28zM208 498c-37 0 -64 33 -64 72c0 72 78 101 93 101c5 0 9 -2 9 -5c0 -2 -4 -5 -10 -7
c-29 -15 -54 -37 -54 -69c0 -21 10 -34 38 -41c10 -3 20 -10 20 -23c0 -14 -15 -28 -32 -28z" />
    <glyph glyph-name="guillemotleft" unicode="&#xab;" horiz-adv-x="535" 
d="M83 156c-4 3 -2 5 2 8c91 44 172 103 195 125c5 4 10 7 10 -1c0 -12 -93 -95 -133 -124c-3 -1 -2 -5 0 -6c54 -36 132 -114 132 -126c0 -10 -6 -4 -8 -3c-52 48 -125 92 -198 127zM247 156c-4 3 -2 5 2 8c91 44 174 111 196 133c5 4 10 6 10 -2c0 -12 -94 -102 -134 -131
c-3 -1 -2 -5 0 -6c54 -36 133 -121 133 -133c0 -9 -6 -4 -8 -3c-52 48 -126 99 -199 134z" />
    <glyph glyph-name="guilsinglleft" unicode="&#x2039;" horiz-adv-x="379" 
d="M83 156c-5 3 -1 7 1 8c96 44 181 107 205 129c5 4 10 5 10 -1c0 -15 -100 -98 -137 -127c-2 -2 -2 -5 0 -6c55 -40 137 -115 137 -132c0 -7 -7 -4 -9 -2c-56 50 -130 94 -207 131z" />
    <glyph glyph-name="guilsinglright" unicode="&#x203a;" horiz-adv-x="379" 
d="M297 162c4 -2 0 -6 -2 -7c-95 -45 -181 -107 -205 -130c-5 -4 -9 -5 -9 1c0 15 99 98 136 128c2 1 3 4 1 6c-56 39 -137 114 -137 131c0 8 7 4 9 2c55 -49 130 -93 207 -131z" />
    <glyph glyph-name="endash" unicode="&#x2013;" horiz-adv-x="450" 
d="M49 211h359c3 0 7 -2 7 -5c0 -6 -2 -17 -5 -22c-2 -3 -8 -4 -10 -4l-348 -2c-6 0 -17 1 -17 6c0 3 1 16 5 22c2 3 7 5 9 5z" />
    <glyph glyph-name="dagger" unicode="&#x2020;" horiz-adv-x="338" 
d="M165 554c12 0 22 -22 22 -36c0 -22 -10 -68 -13 -121c0 -3 1 -3 4 -3c40 1 66 12 93 12c15 0 30 -12 30 -18c0 -8 -15 -19 -33 -19c-24 0 -54 10 -93 12c-1 0 -2 -2 -2 -3c0 -72 9 -317 9 -340c0 -29 -11 -35 -17 -35c-5 0 -17 6 -17 35c0 23 9 272 9 340c0 1 0 3 -3 3
c-40 -3 -79 -12 -94 -12c-13 0 -30 11 -30 17c0 10 17 20 32 20c20 0 52 -11 92 -12c3 0 3 1 3 3c-1 52 -13 99 -13 121c0 14 10 36 21 36z" />
    <glyph glyph-name="daggerdbl" unicode="&#x2021;" horiz-adv-x="339" 
d="M180 383l-1 -98c0 -2 1 -4 3 -4c36 1 58 10 84 10c13 0 28 -9 28 -17c0 -10 -15 -19 -32 -19c-23 0 -43 10 -81 12c-2 0 -4 -2 -4 -3c1 -93 -3 -215 -3 -228c0 -23 -4 -33 -9 -33c-4 0 -6 14 -6 24c-1 31 -5 153 -6 236c0 3 -2 4 -3 4c-36 -3 -68 -12 -84 -12
s-33 7 -33 18c0 7 17 18 33 18c20 0 49 -10 85 -10c1 0 2 2 2 4l-3 98c0 2 0 6 -3 6c-35 -2 -72 -11 -88 -11c-11 0 -29 7 -29 17c0 9 13 19 28 19c24 0 47 -6 88 -10c1 0 3 1 3 4c0 52 -3 91 -3 113c0 14 10 34 20 34c11 0 19 -20 19 -34c0 -22 -2 -61 -4 -114
c0 -2 1 -4 3 -4c34 1 63 11 87 11c15 0 30 -8 30 -17s-15 -19 -32 -19c-23 0 -52 10 -86 12c-2 0 -3 -3 -3 -7z" />
    <glyph glyph-name="periodcentered" unicode="&#xb7;" horiz-adv-x="202" 
d="M103 235c29 0 45 -25 45 -48c0 -33 -27 -49 -48 -49c-26 0 -46 23 -46 48c0 28 23 49 49 49z" />
    <glyph glyph-name="paragraph" unicode="&#xb6;" horiz-adv-x="438" 
d="M356 575h17c14 0 28 -2 28 -10c0 -5 -12 -8 -17 -9c-8 -1 -63 -2 -76 -2c-6 0 -11 -11 -11 -22c0 -264 4 -490 4 -516c0 -105 -14 -146 -37 -172c-15 -17 -42 -24 -56 -24c-38 0 -80 25 -80 78c0 37 25 74 63 74c22 0 39 -20 39 -37c0 -29 -17 -42 -32 -42
c-9 0 -19 2 -26 5c-5 5 -7 6 -13 6c-3 0 -7 -4 -7 -12c0 -41 30 -54 60 -54c52 0 66 71 67 152c1 82 0 124 0 132c0 4 -5 6 -7 6c-30 0 -96 8 -149 45c-38 26 -88 87 -88 181c0 56 23 116 67 156c45 39 102 53 135 58c24 4 91 7 119 7z" />
    <glyph glyph-name="bullet" unicode="&#x2022;" horiz-adv-x="365" 
d="M182 296c58 0 109 -52 109 -114c0 -60 -50 -112 -110 -112c-59 0 -108 51 -108 112c0 62 54 114 109 114z" />
    <glyph glyph-name="quotesinglbase" unicode="&#x201a;" horiz-adv-x="152" 
d="M61 86c40 0 68 -35 68 -75c0 -75 -80 -104 -96 -104c-7 0 -11 1 -11 5c0 1 4 5 10 8c31 14 58 36 58 71c0 20 -13 34 -41 41c-13 4 -22 10 -22 24c0 15 16 30 34 30z" />
    <glyph glyph-name="quotedblbase" unicode="&#x201e;" horiz-adv-x="283" 
d="M61 86c40 0 68 -35 68 -75c0 -75 -80 -104 -96 -104c-7 0 -11 1 -11 5c0 1 4 5 10 8c31 14 58 36 58 71c0 20 -13 34 -41 41c-13 4 -22 10 -22 24c0 15 16 30 34 30zM194 86c39 0 67 -35 67 -75c0 -75 -80 -104 -97 -104c-5 0 -9 1 -9 5c0 1 5 5 9 8c31 14 58 36 58 69
c0 22 -13 36 -41 43c-12 4 -21 10 -21 24c0 15 16 30 34 30z" />
    <glyph glyph-name="quotedblright" unicode="&#x201d;" horiz-adv-x="264" 
d="M57 668c38 0 64 -33 64 -72c0 -72 -77 -100 -92 -100c-6 0 -10 2 -10 5c0 1 4 5 10 8c29 14 55 36 55 68c0 20 -11 33 -38 40c-12 4 -21 10 -21 23c0 15 15 28 32 28zM185 668c37 0 63 -33 63 -72c0 -72 -77 -100 -92 -100c-5 0 -9 2 -9 5c0 1 5 5 9 8c30 14 55 36 55 67
c0 21 -12 34 -38 41c-11 4 -20 10 -20 23c0 15 15 28 32 28z" />
    <glyph glyph-name="guillemotright" unicode="&#xbb;" horiz-adv-x="535" 
d="M452 163c4 -3 2 -5 -2 -8c-91 -44 -172 -103 -195 -125c-5 -4 -10 -7 -10 1c0 12 93 95 133 124c3 1 2 5 0 6c-54 36 -132 114 -132 126c0 10 6 4 8 3c52 -48 125 -92 198 -127zM288 163c4 -3 2 -5 -2 -8c-91 -44 -174 -111 -196 -133c-5 -4 -10 -6 -10 2
c0 12 94 102 134 131c3 1 2 5 0 6c-54 36 -133 120 -133 133c0 9 6 4 8 3c52 -49 126 -99 199 -134z" />
    <glyph glyph-name="ellipsis" unicode="&#x2026;" horiz-adv-x="574" 
d="M82 82c28 0 43 -24 43 -45c0 -32 -26 -47 -45 -47c-24 0 -43 22 -43 46c0 26 21 46 45 46zM274 82c27 0 43 -24 43 -45c0 -32 -27 -47 -45 -47c-25 0 -44 22 -44 46c0 26 22 46 46 46zM466 84c28 0 44 -25 44 -47c0 -33 -27 -49 -47 -49c-25 0 -45 23 -45 48
c0 27 22 48 48 48z" />
    <glyph glyph-name="perthousand" unicode="&#x2030;" horiz-adv-x="800" 
d="M660 66c41 1 46 82 46 122s-10 136 -56 136c-42 0 -48 -80 -48 -121s13 -139 58 -137zM652 51c-71 0 -106 75 -106 137c0 36 7 71 26 100c21 33 51 50 87 50c74 0 104 -81 104 -136c0 -42 -7 -77 -24 -102c-21 -32 -52 -49 -87 -49zM413 66c41 1 46 82 46 122
s-10 136 -56 136c-42 0 -48 -80 -48 -121s13 -139 58 -137zM405 51c-71 0 -106 75 -106 137c0 36 7 71 26 100c21 33 51 50 87 50c74 0 104 -81 104 -136c0 -42 -7 -77 -24 -102c-21 -32 -52 -49 -87 -49zM456 588c7 0 4 -11 -1 -19c-120 -186 -215 -335 -330 -508
c-5 -8 -18 -13 -20 -10c-3 5 2 15 8 25c114 169 212 324 319 489c13 20 18 23 24 23zM151 302c42 1 47 83 47 122c0 40 -10 136 -57 136c-42 0 -47 -79 -47 -120c0 -42 12 -140 57 -138zM143 288c-72 0 -106 76 -106 138c0 36 7 70 26 100c21 31 50 49 88 49
c71 0 103 -81 103 -137c0 -43 -8 -78 -25 -103c-23 -33 -55 -47 -86 -47z" />
    <glyph glyph-name="questiondown" unicode="&#xbf;" horiz-adv-x="348" 
d="M172 -156c15 0 36 7 44 10c8 4 19 4 28 -4c10 -12 17 -37 17 -49c0 -9 -8 -21 -40 -21c-47 0 -96 47 -123 86c-37 51 -48 97 -48 135c0 35 14 65 51 83l56 27c33 16 33 41 33 61c0 9 2 15 6 15s6 -5 10 -13c5 -16 14 -59 14 -86c0 -16 -6 -31 -18 -42
c-22 -16 -53 -29 -78 -43c-27 -15 -37 -37 -37 -60c0 -22 8 -48 20 -63c15 -20 38 -36 65 -36zM183 372c25 0 47 -21 48 -51c0 -24 -20 -50 -50 -50c-31 0 -46 32 -46 51c0 31 29 50 48 50z" />
    <glyph glyph-name="grave" unicode="`" horiz-adv-x="350" 
d="M139 579c4 0 9 -3 12 -9c2 -7 48 -128 54 -141c2 -7 2 -15 -1 -15c-5 0 -9 6 -14 12c-4 7 -52 84 -79 131c-8 12 -4 15 -1 17c3 3 18 5 29 5z" />
    <glyph glyph-name="acute" unicode="&#xb4;" horiz-adv-x="350" 
d="M244 574c7 0 8 -3 8 -6c0 -2 -1 -7 -3 -10c-22 -35 -66 -100 -95 -141c-5 -8 -12 -11 -14 -11c-3 0 -4 4 0 13c1 3 62 135 64 138c6 6 26 16 40 17z" />
    <glyph glyph-name="circumflex" unicode="&#x2c6;" horiz-adv-x="350" 
d="M180 574c2 0 6 -5 9 -11l60 -138c4 -9 3 -16 -1 -16s-12 11 -17 18c-8 12 -33 50 -52 85c-2 3 -3 5 -8 -2c-9 -12 -36 -54 -60 -86c-2 -3 -8 -9 -12 -9c-3 0 -2 9 2 15c5 11 49 95 57 112l15 25c2 3 4 7 7 7z" />
    <glyph glyph-name="tilde" unicode="&#x2dc;" horiz-adv-x="350" 
d="M121 515c13 0 17 -1 31 -2c13 -1 50 -9 69 -9c20 0 34 5 50 26c5 7 10 10 13 10c2 0 4 -6 -1 -13l-39 -50c-5 -7 -16 -13 -21 -13c-23 0 -81 13 -99 13c-20 0 -26 -4 -45 -28c-5 -4 -7 -6 -11 -6c-2 0 -3 2 2 15c6 12 24 35 36 48c6 6 12 9 15 9z" />
    <glyph glyph-name="macron" unicode="&#xaf;" horiz-adv-x="350" 
d="M99 509c19 1 145 3 160 3c2 0 6 -3 6 -7s-4 -19 -7 -26c-2 -3 -5 -4 -6 -4c-10 -1 -145 -4 -162 -4c-2 0 -5 4 -5 10c0 5 3 18 6 24c3 2 7 4 8 4z" />
    <glyph glyph-name="breve" unicode="&#x2d8;" horiz-adv-x="350" 
d="M171 439c-45 0 -75 30 -77 86c0 5 2 16 5 16c6 0 8 -9 9 -16c7 -28 30 -46 63 -46c27 0 63 7 73 49c2 6 5 10 8 10s4 -7 4 -14c-1 -31 -23 -85 -85 -85z" />
    <glyph glyph-name="dotaccent" unicode="&#x2d9;" horiz-adv-x="350" 
d="M176 543c23 0 36 -19 36 -39c0 -30 -22 -42 -40 -42s-35 16 -35 39c0 30 22 42 39 42z" />
    <glyph glyph-name="dieresis" unicode="&#xa8;" horiz-adv-x="350" 
d="M108 536c18 0 33 -16 33 -33c0 -26 -20 -38 -38 -38c-12 0 -30 11 -30 33c0 21 15 38 35 38zM243 536c19 0 33 -17 33 -35c0 -21 -19 -36 -37 -36c-17 0 -32 15 -32 35c0 23 18 36 36 36z" />
    <glyph glyph-name="ring" unicode="&#x2da;" horiz-adv-x="350" 
d="M174 550c35 0 57 -28 57 -57c0 -30 -22 -58 -57 -58s-56 28 -56 58c0 29 21 57 56 57zM174 531c-19 0 -38 -16 -38 -38c0 -25 20 -37 38 -37c19 0 38 11 38 39c0 20 -18 36 -38 36z" />
    <glyph glyph-name="cedilla" unicode="&#xb8;" horiz-adv-x="350" 
d="M220 -117c0 -42 -51 -77 -86 -77c-26 0 -41 13 -41 28c0 7 10 21 23 21c6 0 10 -6 16 -17c5 -8 14 -14 23 -14c11 0 28 8 28 36c0 30 -22 43 -48 53c-9 3 -11 5 -11 8c0 1 1 4 3 6c12 13 53 57 75 82h15c-25 -28 -40 -43 -45 -50c-3 -4 -2 -8 -1 -9c16 -11 49 -26 49 -67
z" />
    <glyph glyph-name="hungarumlaut" unicode="&#x2dd;" horiz-adv-x="350" 
d="M173 550c6 0 7 -1 7 -4s-2 -11 -4 -14c-16 -34 -43 -81 -62 -116c-5 -9 -10 -12 -12 -12c-3 0 -3 4 -1 13c1 3 40 115 42 118c6 6 19 14 30 15zM266 558c4 0 7 -1 7 -4c0 -2 -1 -9 -3 -12c-16 -34 -45 -86 -66 -123c-5 -8 -9 -9 -11 -9c-3 0 -3 3 -1 12
c1 3 41 116 43 119c6 6 23 17 31 17z" />
    <glyph glyph-name="ogonek" unicode="&#x2db;" horiz-adv-x="350" 
d="M229 11h12c-48 -39 -96 -97 -96 -140c0 -27 22 -40 42 -40s34 7 48 17c4 3 8 3 8 -2c0 -4 -4 -10 -11 -19c-16 -20 -45 -42 -75 -42c-28 0 -60 17 -60 64c0 55 82 126 132 162z" />
    <glyph glyph-name="caron" unicode="&#x2c7;" horiz-adv-x="350" 
d="M169 410c-2 0 -6 6 -9 12c-7 14 -57 129 -60 137c-4 9 -4 16 1 16c4 0 11 -11 17 -19c7 -11 33 -49 52 -84c2 -2 5 -2 8 2c10 13 30 46 60 86c1 3 8 9 12 9c3 0 2 -8 -2 -15c-5 -11 -50 -95 -58 -111c-7 -14 -12 -23 -15 -27c-2 -3 -4 -6 -6 -6z" />
    <glyph glyph-name="emdash" unicode="&#x2014;" horiz-adv-x="749" 
d="M49 211h659c3 0 7 -2 7 -5c0 -6 -2 -17 -5 -22c-2 -3 -8 -4 -10 -4l-648 -2c-6 0 -17 1 -17 6c0 3 1 16 5 22c2 3 7 5 9 5z" />
    <glyph glyph-name="AE" unicode="&#xc6;" horiz-adv-x="840" 
d="M520 315h109c52 0 60 2 67 8c10 4 23 31 26 40c3 6 7 13 10 13s5 -8 5 -13c0 -6 -3 -42 -4 -55c-1 -15 2 -55 2 -65c1 -13 -2 -18 -6 -18c-3 0 -5 5 -10 17c-5 16 -13 39 -30 42c-22 4 -47 6 -175 6c-2 0 -4 -4 -4 -10c0 -47 3 -181 3 -200c1 -29 13 -52 27 -56
c17 -6 58 -7 101 -7c75 0 94 6 107 16c16 11 35 36 48 54c7 10 13 16 16 16c4 0 4 -6 1 -17c-3 -8 -22 -64 -27 -75c-4 -9 -13 -16 -17 -16c-105 0 -214 5 -317 5c-33 0 -77 -5 -89 -5c-10 0 -21 2 -21 6c0 7 10 9 21 10c36 6 57 18 59 63c2 32 6 137 4 202c0 6 -2 12 -7 12
h-158c-6 0 -14 -8 -19 -16c-14 -24 -75 -133 -91 -171c-15 -32 -17 -48 -15 -59c3 -16 22 -21 52 -30c8 -3 14 -5 14 -8c0 -6 -8 -9 -18 -9c-17 0 -64 5 -87 5c-24 0 -68 -4 -82 -5c-11 -1 -17 3 -17 7s7 8 20 10c42 7 65 29 98 87c36 62 223 390 273 482c9 14 12 22 -13 27
c-14 1 -30 4 -45 6c-8 1 -16 3 -16 9c0 4 7 6 20 6c36 0 72 -4 107 -4c80 0 185 2 243 2c37 1 51 1 59 1c7 0 11 -5 12 -14c1 -10 9 -59 10 -75c3 -7 -1 -14 -5 -14c-3 0 -7 4 -12 15c-18 37 -37 59 -59 62c-18 4 -47 5 -168 5c-10 0 -13 -2 -13 -27c0 -27 3 -183 3 -252
c0 -8 1 -13 8 -13zM420 313c5 0 6 8 6 14c0 40 2 138 2 260c0 10 -6 13 -14 -2c-26 -47 -115 -207 -144 -264c-2 -4 -2 -9 3 -9c30 0 125 -1 147 1z" />
    <glyph glyph-name="ordfeminine" unicode="&#xaa;" horiz-adv-x="195" 
d="M102 501c37 0 57 -27 58 -61c0 -22 0 -53 -1 -78c-1 -15 1 -28 17 -28c7 0 11 2 16 5c3 2 5 1 5 -1s0 -4 -2 -8c-7 -15 -25 -25 -45 -25c-18 0 -31 9 -36 23c0 2 -2 3 -3 1c-21 -15 -37 -24 -54 -24c-18 0 -41 19 -41 44c0 19 13 31 28 36c20 7 51 15 68 21c2 1 4 3 4 7
c0 5 1 18 1 31c0 25 -11 42 -35 42c-6 0 -14 -4 -17 -7c-5 -5 -5 -8 -6 -23c0 -3 -2 -6 -5 -8c-6 -3 -27 -13 -32 -14c-4 -2 -7 2 -7 5c0 6 6 16 16 25c18 17 48 37 71 37zM62 361c0 -22 13 -31 26 -31c9 0 15 2 20 6c4 3 5 6 5 11c1 12 3 34 2 47c0 3 -1 3 -2 3
c-10 -2 -27 -8 -37 -13c-9 -5 -14 -14 -14 -23z" />
    <glyph glyph-name="Lslash" unicode="&#x141;" horiz-adv-x="508" 
d="M40 624c0 3 6 6 17 6c31 0 64 -5 93 -5c34 0 60 4 86 4c13 0 17 -2 17 -6s-7 -8 -14 -9c-40 -8 -43 -14 -46 -82c-1 -16 -1 -100 -1 -185c0 -2 3 -5 5 -5c38 13 85 28 123 42c10 4 15 0 15 -4c0 -6 -6 -10 -18 -14c-36 -14 -85 -31 -121 -44c-3 -1 -4 -7 -4 -10
c0 -86 0 -176 2 -193c3 -40 4 -67 13 -78c10 -15 38 -25 117 -26c40 0 66 1 83 5c22 5 45 32 65 68c9 12 13 16 17 16c5 0 4 -15 -1 -30c-3 -7 -24 -64 -28 -71s-13 -10 -22 -10c-10 0 -86 -1 -135 2c-49 2 -118 5 -157 5c-30 0 -78 -5 -91 -5c-12 0 -22 1 -22 7
c0 5 9 7 18 9c42 7 48 20 51 51c4 33 5 104 5 220c0 5 -1 13 -4 11c-13 -3 -40 -11 -51 -15c-7 -2 -17 -1 -19 6c0 4 4 7 11 10l58 20c3 1 5 4 5 10c0 126 -1 187 -3 220c-3 57 -8 63 -49 70c-12 3 -15 6 -15 10z" />
    <glyph glyph-name="Oslash" unicode="&#xd8;" horiz-adv-x="741" 
d="M370 643c65 0 130 -23 180 -59c2 -1 6 0 7 2l30 39c8 9 14 17 21 17c5 0 6 -11 -3 -22c-7 -12 -24 -34 -33 -47c-2 -2 -1 -4 1 -6c74 -62 123 -157 123 -262c0 -161 -109 -259 -186 -293c-41 -18 -87 -30 -135 -30c-70 0 -134 23 -187 60c-1 1 -6 0 -7 -1
c-6 -9 -34 -42 -45 -56c-2 -4 -11 -12 -16 -7c-3 3 -2 13 4 19l41 56c3 3 1 5 0 7c-73 62 -120 156 -120 258c0 100 34 189 131 262c51 40 129 63 194 63zM354 627c-48 0 -106 -27 -145 -75c-49 -59 -69 -141 -69 -229c0 -66 24 -147 67 -208c2 -3 5 -1 7 2
c106 142 207 282 310 421c1 1 0 5 -1 6c-34 43 -91 83 -169 83zM392 1c42 0 76 13 107 42c42 36 102 119 102 262c0 79 -20 149 -62 216c-1 1 -4 1 -5 0c-105 -145 -203 -279 -308 -422c-2 -2 -3 -7 -1 -8c13 -17 27 -31 40 -42c40 -31 81 -48 127 -48z" />
    <glyph glyph-name="OE" unicode="&#x152;" horiz-adv-x="1047" 
d="M366 626c-53 0 -112 -26 -152 -71c-53 -61 -74 -143 -74 -241c0 -149 107 -311 255 -311c39 0 86 10 122 33c62 43 122 135 122 270c0 106 -28 178 -91 246c-41 43 -106 74 -182 74zM376 643c106 0 199 -49 255 -127c3 -5 5 -3 5 2c0 19 -3 88 -3 91c0 14 3 17 8 17
c8 0 44 -1 51 -1c53 0 167 2 207 2c38 0 54 2 63 2c4 0 8 -10 9 -16c1 -9 6 -60 9 -76c0 -5 -2 -13 -5 -13s-8 4 -12 14c-17 43 -37 63 -55 66c-17 3 -67 3 -172 3c-11 0 -15 -15 -15 -34c-1 -20 -1 -164 -1 -235c0 -6 2 -12 6 -12h117c43 0 60 1 68 7c8 4 19 25 25 40
c3 4 7 11 10 11s4 -8 4 -11c0 -6 -4 -42 -5 -56c0 -14 2 -50 2 -57c2 -14 -2 -18 -6 -18c-3 0 -6 4 -11 18c-5 10 -11 32 -26 35c-24 4 -56 5 -179 5c-3 0 -7 -8 -7 -16c0 -39 4 -189 4 -208c0 -27 7 -46 25 -52c17 -5 44 -7 95 -7c76 0 99 2 122 22c14 12 29 34 39 47
c7 10 12 16 15 16c4 0 5 -6 2 -17c-3 -7 -22 -67 -27 -78c-3 -5 -10 -11 -16 -11c-105 0 -198 4 -274 4c-13 0 -56 -2 -64 -3c-6 -1 -10 0 -9 14c1 28 2 62 2 88c0 6 -2 7 -7 1c-58 -74 -147 -116 -245 -116c-188 0 -335 148 -335 339c0 89 33 185 135 259
c44 33 108 61 196 61z" />
    <glyph glyph-name="ordmasculine" unicode="&#xba;" horiz-adv-x="236" 
d="M120 305c-59 0 -102 44 -102 98c0 57 44 98 100 98c59 0 100 -43 100 -98c0 -57 -44 -98 -98 -98zM126 315c32 0 45 40 45 82c0 52 -25 94 -56 94c-32 0 -48 -35 -48 -78c0 -51 24 -98 59 -98z" />
    <glyph glyph-name="ae" unicode="&#xe6;" horiz-adv-x="490" 
d="M187 371c48 0 72 -36 82 -54c2 -2 5 -2 7 -1c23 25 65 52 104 52c33 0 58 -10 75 -27c18 -19 21 -39 21 -48c0 -5 -7 -15 -18 -19c-52 -23 -153 -62 -169 -66c-5 -2 -6 -9 -7 -12v-67c2 -30 6 -50 20 -66c20 -24 42 -34 80 -34c19 0 50 7 75 29c9 6 11 8 15 8
c5 0 4 -5 -3 -14c-19 -29 -76 -63 -123 -63c-56 0 -93 17 -120 57c-2 2 -7 2 -10 -1c-35 -28 -77 -55 -112 -55c-42 0 -78 34 -78 84c0 33 20 54 49 66c36 14 75 28 125 49c10 4 14 10 14 13c1 10 1 51 1 60c0 34 -9 51 -23 63c-12 10 -28 14 -44 14c-13 0 -25 -3 -34 -9
c-12 -8 -21 -22 -21 -51c0 -3 -3 -6 -7 -8c-10 -6 -35 -15 -44 -18c-5 -1 -11 1 -11 7c0 11 9 25 21 37c13 14 35 35 70 53c26 14 49 21 65 21zM148 34c22 0 37 5 52 16c14 9 15 16 15 32c-1 15 -2 49 -2 88c0 4 -1 7 -5 6c-17 -6 -61 -22 -82 -34c-22 -12 -28 -28 -28 -51
c0 -41 30 -57 50 -57zM357 348c-11 0 -26 -5 -43 -19c-23 -23 -31 -61 -31 -100c0 -5 0 -8 5 -6c13 4 72 28 90 36c18 7 26 20 26 39c0 29 -13 50 -47 50z" />
    <glyph glyph-name="dotlessi" unicode="&#x131;" horiz-adv-x="206" 
d="M35 333c0 3 3 6 12 8c32 8 54 17 79 27c8 4 12 7 15 7s5 -3 4 -14c-2 -20 -2 -79 -2 -138c0 -90 0 -166 2 -182c2 -20 11 -26 27 -30c11 -2 15 -4 15 -8c0 -5 -8 -7 -16 -7c-11 0 -44 4 -75 4c-35 0 -54 -2 -65 -2c-7 0 -14 2 -14 6s5 7 19 10c22 5 32 15 32 54
c1 30 3 210 3 220c0 15 -1 21 -28 37c-5 2 -8 6 -8 8z" />
    <glyph glyph-name="lslash" unicode="&#x142;" horiz-adv-x="206" 
d="M38 652c0 3 5 6 15 7c31 6 59 17 81 25c4 1 9 3 12 3c2 0 4 -5 4 -11c0 -7 -4 -168 -4 -312c0 -3 1 -5 2 -5l54 21c5 3 9 -3 9 -5c0 -5 -4 -8 -12 -12c-5 -3 -33 -15 -49 -22c-4 -2 -4 -6 -4 -8v-90c0 -132 1 -168 2 -186c1 -36 9 -40 34 -44c6 -2 14 -4 14 -8
c0 -5 -8 -7 -21 -7c-19 0 -56 2 -73 2c-26 0 -50 -2 -68 -2c-12 0 -18 1 -18 6s6 6 17 9c26 6 32 11 35 55c2 28 4 138 6 239c0 2 -3 5 -6 3l-38 -14c-7 -2 -13 4 -13 6c0 4 3 6 5 7l48 21c4 2 5 8 5 11v54c0 75 1 163 1 205c0 21 -4 29 -28 42c-7 4 -10 7 -10 10z" />
    <glyph glyph-name="oslash" unicode="&#xf8;" horiz-adv-x="453" 
d="M227 371c38 0 72 -10 102 -28c2 -1 3 -1 5 1l19 25c6 7 11 12 14 12c4 0 6 -9 3 -14l-22 -32c-1 -2 0 -5 1 -6c42 -34 71 -88 71 -148c0 -75 -44 -130 -76 -155c-32 -24 -77 -38 -115 -38c-41 0 -80 11 -111 32c-2 1 -4 1 -6 -1c-8 -9 -17 -22 -24 -29
c-6 -7 -12 -10 -14 -9c-4 1 -4 11 0 16l26 34c1 2 0 4 -2 5c-41 35 -65 84 -65 137c0 77 36 125 71 152c31 25 77 46 123 46zM152 59c22 -31 57 -54 89 -54c19 0 42 8 58 24c14 13 42 62 42 134c0 42 -9 86 -27 119c-1 3 -3 4 -5 0c-53 -68 -103 -139 -157 -211
c-3 -4 -3 -8 0 -12zM208 354c-48 0 -96 -58 -96 -158c0 -35 4 -74 24 -108c3 -5 4 -6 7 -1c52 67 104 142 156 210c3 3 4 5 1 9c-23 30 -55 48 -92 48z" />
    <glyph glyph-name="oe" unicode="&#x153;" horiz-adv-x="643" 
d="M230 371c52 0 109 -32 135 -66c3 -2 6 -2 8 0c28 34 73 66 137 66c63 0 116 -42 116 -100c0 -6 -7 -13 -15 -15c-35 0 -113 1 -155 1h-40c-3 0 -6 -3 -8 -7c-3 -8 -5 -24 -5 -41c0 -46 9 -85 34 -124c20 -28 58 -47 87 -47c33 0 60 9 85 25c8 5 11 4 11 0s0 -7 -8 -15
c-29 -34 -74 -57 -128 -57c-47 0 -86 25 -117 58c-2 3 -6 2 -8 0c-40 -39 -78 -61 -130 -61c-111 0 -196 83 -196 188c0 78 42 128 76 154c42 33 92 41 121 41zM217 354c-75 0 -104 -86 -104 -149c0 -44 4 -92 33 -139c30 -48 67 -63 97 -63c21 0 44 10 60 30
c19 21 32 67 32 126c0 102 -32 195 -118 195zM504 357c-24 0 -41 -9 -55 -21c-24 -17 -35 -47 -35 -55c0 -4 2 -8 10 -8c17 0 100 -1 114 -1c16 0 22 9 22 17c0 11 0 38 -19 55c-8 7 -21 13 -37 13z" />
    <glyph glyph-name="germandbls" unicode="&#xdf;" horiz-adv-x="445" 
d="M292 690c91 0 124 -77 124 -127c0 -55 -25 -80 -51 -105c-13 -13 -33 -31 -51 -49c-27 -26 -33 -46 -33 -63s9 -33 24 -47s47 -41 64 -58c25 -24 48 -52 48 -99c0 -63 -55 -112 -91 -132c-35 -19 -66 -22 -73 -22c-13 0 -49 8 -49 30c0 6 7 17 15 23c6 5 9 5 14 2
c25 -15 48 -22 67 -22c36 0 65 32 65 71c0 41 -26 72 -76 114c-41 35 -69 64 -69 109c0 19 13 39 21 47c17 15 32 29 53 49c52 48 76 92 76 134c0 75 -50 125 -103 125c-62 0 -99 -45 -116 -143c-9 -52 -11 -134 -11 -268c0 -95 3 -193 4 -213c1 -22 15 -28 26 -32
c10 -3 18 -7 18 -11s-8 -6 -16 -6c-16 0 -38 3 -67 3c-42 0 -53 -4 -71 -4c-10 0 -18 2 -18 5c0 4 5 6 15 9c30 7 33 19 35 40c3 18 3 115 3 161c0 47 -1 75 -2 95c0 8 -2 14 -6 15c-5 0 -19 2 -28 2c-8 1 -11 3 -10 8c0 6 17 14 35 23c5 4 9 8 10 14c1 75 18 180 79 250
c29 34 76 72 145 72z" />
    <glyph glyph-name="logicalnot" unicode="&#xac;" horiz-adv-x="410" 
d="M41 245c0 10 6 22 9 22l310 1c4 0 8 -8 8 -14v-186c0 -11 -19 -12 -24 -12c-2 0 -9 2 -9 6l-2 155c0 11 -4 19 -10 19l-268 1c-13 0 -14 5 -14 8z" />
    <glyph glyph-name="mu" unicode="&#xb5;" horiz-adv-x="423" 
d="M92 376c16 0 33 -8 45 -17c3 -2 12 -17 11 -24c0 -12 -7 -40 -11 -62c-8 -49 -23 -118 -30 -166c-2 -12 -2 -22 3 -29c9 -15 22 -24 38 -24c43 0 91 58 116 122c4 10 7 28 8 39c3 61 10 123 12 138c1 10 10 23 15 23c27 0 53 -16 58 -22c3 -3 6 -11 5 -19
c-1 -37 -43 -157 -60 -194c-5 -13 -5 -18 -5 -30c0 -38 24 -53 50 -53c29 0 51 14 63 27c2 2 7 1 7 -3c0 -11 -8 -38 -14 -51c-15 -34 -37 -46 -63 -46c-31 0 -54 29 -57 107c0 7 -4 4 -6 -1c-47 -76 -79 -101 -109 -101c-28 0 -57 48 -68 69c-1 5 -4 -1 -5 -6
c-9 -66 -15 -170 -10 -199c7 -40 29 -65 68 -90c2 -1 2 -5 1 -8c-6 -14 -36 -33 -54 -33c-5 0 -13 2 -20 11c-15 18 -16 49 -16 120c0 53 3 202 3 225c1 20 0 25 0 48c-3 52 -2 178 -1 231c0 5 3 12 8 15c6 2 12 3 18 3z" />
    <glyph glyph-name="trademark" unicode="&#x2122;" horiz-adv-x="204" 
d="M172 549c2 0 18 1 20 1c6 0 5 -4 2 -5l-8 -3c-2 -1 -3 -2 -3 -5v-38c1 -12 0 -13 12 -17c6 -2 2 -5 -3 -5c-6 0 -10 1 -14 1c-9 0 -15 -1 -19 -1c-5 0 -5 4 -1 5c8 3 12 5 12 14c1 15 1 37 1 38s-1 1 -2 0c-2 -3 -17 -34 -24 -55c-1 -2 -2 -2 -4 0c-5 15 -15 34 -23 52
c-1 2 -1 1 -1 0c-1 -12 -2 -26 -2 -35c0 -7 2 -10 12 -13c6 -3 4 -6 -2 -6s-10 1 -17 1c-5 0 -10 -1 -13 -1c-5 0 -8 3 -3 5c7 3 14 6 15 14c1 9 3 32 3 36c0 2 0 5 -2 7c-2 4 -4 4 -8 5c-6 2 -7 6 1 6s16 -1 21 -1c2 0 4 -5 7 -11l17 -32c1 -1 2 -2 3 -1c5 11 11 26 18 40
c0 3 2 4 5 4zM24 549h44c7 0 11 1 16 3c1 1 2 0 2 -1c-1 -6 -2 -19 -2 -20c0 -4 -2 -4 -4 -1c-2 4 -4 12 -10 12l-13 -1c-1 0 -2 -1 -2 -2v-39c0 -11 1 -14 14 -18c4 -1 3 -5 -1 -5s-15 1 -20 1c-10 0 -12 -1 -20 -1c-4 0 -6 4 -1 5c10 3 14 6 14 19v33c0 6 0 7 -2 7l-12 1
c-7 0 -9 -5 -12 -10c-1 -2 -2 -4 -3 -4c-2 0 -2 1 -2 5c0 1 3 15 3 18c0 1 2 2 3 1z" />
    <glyph glyph-name="Eth" unicode="&#xd0;" horiz-adv-x="689" 
d="M36 620c0 4 7 6 18 6c43 0 86 0 127 4c28 3 70 7 92 7c82 0 155 -12 224 -54c79 -50 147 -135 147 -264c0 -202 -138 -291 -265 -322c-27 -6 -68 -8 -93 -8c-24 0 -49 2 -77 4c-30 2 -58 5 -88 5c-27 0 -59 -2 -69 -2c-11 0 -20 2 -20 8c0 3 5 6 17 8c36 6 45 14 48 53
c3 24 4 105 4 203c0 14 0 30 -1 41c0 3 -1 6 -3 6l-56 1c-8 0 -14 4 -14 11c0 3 8 9 17 9l53 1c2 0 4 6 4 9c1 54 -2 186 -4 212c-3 35 -8 45 -45 52c-9 2 -16 5 -16 10zM355 331c0 -8 -8 -14 -23 -14l-142 -2c-3 0 -5 -2 -5 -7c1 -87 4 -142 6 -190c3 -48 10 -72 35 -90
c14 -12 46 -23 75 -23c41 0 78 8 107 25c59 32 139 110 139 273c0 91 -29 179 -92 238c-56 51 -118 78 -197 78c-23 0 -49 -5 -59 -9c-5 -2 -11 -9 -11 -28c-2 -33 -3 -63 -3 -236c0 -4 1 -9 5 -9h133c28 0 32 -2 32 -6z" />
    <glyph glyph-name="onehalf" unicode="&#xbd;" horiz-adv-x="443" 
d="M54 533c0 2 4 5 10 6c26 6 56 13 70 22c2 1 5 -1 5 -5c0 -2 -2 -18 -3 -60c-1 -39 -1 -93 -1 -122c1 -41 4 -48 29 -54c8 -2 12 -3 12 -6s-5 -5 -12 -5c-14 0 -38 3 -54 3c-24 0 -39 -3 -54 -3c-9 0 -12 1 -12 4c0 2 2 4 13 7c24 6 29 11 30 31c1 21 3 57 3 103
c0 27 0 50 -1 60c0 5 -2 8 -6 10c-6 2 -13 3 -18 4c-6 1 -11 3 -11 5zM372 567c6 0 4 -10 -1 -17c-96 -160 -201 -333 -290 -482c-4 -6 -15 -11 -17 -8c-3 4 2 13 8 21c86 145 194 324 280 466c10 17 15 20 20 20zM328 335c39 0 67 -29 67 -69c0 -22 -8 -43 -34 -70
c-23 -26 -46 -48 -69 -70c-2 -2 -1 -3 1 -3c22 -1 89 1 96 1c8 1 12 3 26 22c4 4 6 6 9 6s2 -8 -1 -14c-6 -20 -15 -46 -15 -50c0 -3 -2 -4 -4 -4c-10 0 -62 3 -98 2h-47c-9 0 -13 1 -13 4s2 7 5 11c14 13 30 27 50 49c29 30 49 66 49 101c0 32 -23 49 -45 49
c-19 0 -37 -11 -48 -24c-5 -5 -7 -5 -8 -4c-3 2 1 11 4 16c17 26 43 47 75 47z" />
    <glyph glyph-name="plusminus" unicode="&#xb1;" horiz-adv-x="410" 
d="M189 411c0 6 20 10 23 10c4 0 10 1 10 -12v-139c0 -3 2 -8 5 -8h140c3 0 5 -1 5 -7c0 -11 -4 -22 -7 -22l-138 -1c-3 0 -5 -6 -5 -11l-1 -144c0 -5 -12 -10 -22 -10c-2 0 -11 0 -11 6v152c0 6 -1 7 -4 7l-141 1c-5 0 -6 3 -6 7c0 8 5 21 10 21l136 1c4 0 5 6 5 9zM368 31
c1 0 4 -2 4 -8c0 -8 -4 -22 -7 -22h-322c-4 0 -6 6 -6 7c0 9 5 22 10 22c107 1 215 2 321 1z" />
    <glyph glyph-name="Thorn" unicode="&#xde;" horiz-adv-x="495" 
d="M40 623c0 3 7 5 16 5c24 -1 43 -3 78 -3c33 0 75 4 88 4c11 1 17 -1 17 -5c0 -3 -4 -7 -15 -9c-26 -7 -36 -11 -37 -31c-1 -29 -2 -49 -2 -89c0 -2 1 -7 5 -7c10 2 38 4 66 4c75 0 125 -17 155 -44c38 -31 54 -81 54 -124c0 -87 -54 -137 -89 -157
c-34 -18 -77 -28 -109 -28c-25 0 -55 4 -76 11c-2 1 -5 -2 -5 -6c0 -44 3 -64 5 -91c2 -25 8 -34 35 -40c16 -2 25 -5 25 -10s-10 -7 -18 -7c-18 0 -57 4 -95 4c-27 0 -74 -4 -85 -4c-8 0 -16 2 -16 6s4 8 20 10c30 6 40 15 42 48c3 24 2 135 2 201v141c0 108 -1 144 -3 178
c-1 24 -16 29 -43 33c-11 3 -15 7 -15 10zM225 476c-13 0 -28 -3 -34 -6c-4 -3 -6 -7 -6 -23c0 -83 -2 -216 0 -268c1 -7 3 -13 8 -15c13 -4 34 -4 44 -4c32 0 71 14 96 42c25 27 40 68 40 114c0 119 -73 160 -148 160z" />
    <glyph glyph-name="onequarter" unicode="&#xbc;" horiz-adv-x="415" 
d="M318 74c-5 0 -5 4 -5 12c0 6 1 44 1 71c0 3 -1 5 -3 5c-22 0 -97 -1 -98 -1c-2 0 -5 2 -5 5s6 11 11 17c6 6 88 111 100 124c6 7 30 28 38 28c2 0 4 -3 4 -9c0 -2 -1 -109 -1 -139c0 -1 1 -3 5 -3l34 1c2 0 5 -3 5 -6c-2 -7 -6 -17 -9 -18c-2 0 -20 1 -32 1
c-1 0 -2 -3 -2 -6v-66c0 -5 -1 -10 -5 -11c-5 -2 -34 -5 -38 -5zM54 533c0 2 4 5 10 6c26 6 56 13 70 22c2 1 5 -1 5 -5c0 -2 -2 -18 -3 -60c-1 -39 -1 -93 -1 -122c1 -41 4 -48 29 -54c8 -2 12 -3 12 -6s-5 -5 -12 -5c-14 0 -38 3 -54 3c-24 0 -39 -3 -54 -3
c-9 0 -12 1 -12 4c0 2 2 4 13 7c24 6 29 11 30 31c1 21 3 57 3 103c0 27 0 50 -1 60c0 5 -2 8 -6 10c-6 2 -13 3 -18 4c-6 1 -11 3 -11 5zM378 567c6 0 4 -10 -1 -17c-96 -160 -201 -333 -290 -482c-4 -6 -15 -11 -17 -8c-3 4 2 13 8 21c86 145 194 324 280 466
c10 17 15 20 20 20zM244 184l68 -1c2 0 2 2 2 3c0 14 3 79 4 96c0 3 -2 3 -3 2c-19 -22 -53 -65 -75 -96c-1 -2 2 -4 4 -4z" />
    <glyph glyph-name="divide" unicode="&#xf7;" horiz-adv-x="410" 
d="M369 204c1 0 4 -2 4 -8c0 -9 -4 -21 -8 -21h-322c-4 0 -6 5 -6 6c0 10 5 22 11 22c107 1 214 2 321 1zM204 104c17 0 26 -14 26 -27c0 -18 -9 -29 -26 -29s-27 11 -27 29c0 13 10 27 27 27zM204 271c-13 0 -27 10 -27 27c0 15 14 28 27 28c17 0 27 -13 27 -28
c0 -17 -10 -27 -27 -27z" />
    <glyph glyph-name="brokenbar" unicode="&#xa6;" horiz-adv-x="231" 
d="M94 -170v340h43v-340h-43zM94 655h43v-340h-43v340z" />
    <glyph glyph-name="degree" unicode="&#xb0;" horiz-adv-x="410" 
d="M207 560c39 0 72 -28 72 -77c0 -41 -35 -76 -75 -76s-73 33 -73 76c0 42 36 77 76 77zM202 542c-24 0 -48 -26 -48 -59c0 -34 24 -56 54 -56c23 0 48 20 48 56c0 33 -22 59 -54 59z" />
    <glyph glyph-name="thorn" unicode="&#xfe;" horiz-adv-x="440" 
d="M238 12c13 0 29 5 44 18c24 19 53 65 53 141c0 51 -17 104 -50 133c-15 14 -40 29 -73 29c-25 0 -47 -2 -65 -15c-7 -4 -9 -8 -10 -20c-3 -26 -3 -190 -1 -213c1 -7 4 -15 9 -25c21 -35 65 -48 93 -48zM20 654c0 3 5 7 19 9c17 2 53 11 78 22c9 4 14 4 16 4s4 -4 4 -17
c-1 -21 -2 -85 -3 -175c-1 -91 0 -151 1 -163c0 -4 2 -7 5 -4c45 30 77 40 121 40c40 0 81 -23 104 -48c30 -34 42 -81 42 -119c0 -109 -64 -172 -135 -199c-23 -8 -44 -14 -71 -14c-18 0 -48 5 -57 8c-4 1 -6 -8 -7 -12c-3 -18 -3 -92 -1 -136c1 -41 3 -75 7 -84
c6 -21 21 -25 49 -30c10 -2 14 -4 14 -9s-8 -7 -21 -7c-15 0 -51 4 -89 4c-33 0 -66 -6 -78 -6s-18 2 -18 6c0 3 4 7 17 9c33 9 41 20 44 48c0 16 3 60 2 139c-1 122 -2 376 -2 403c0 75 -1 265 -3 282c-1 19 -5 24 -26 38c-8 5 -12 8 -12 11z" />
    <glyph glyph-name="threequarters" unicode="&#xbe;" horiz-adv-x="398" 
d="M301 74c-5 0 -5 4 -5 12c0 6 1 44 1 71c0 3 -1 5 -3 5c-22 0 -97 -1 -98 -1c-2 0 -5 2 -5 5s6 11 11 17c6 6 88 111 100 124c6 7 30 28 38 28c2 0 4 -3 4 -9c0 -2 -1 -109 -1 -139c0 -1 1 -3 5 -3l34 1c2 0 5 -3 5 -6c-2 -7 -6 -17 -9 -18c-2 0 -20 1 -32 1
c-1 0 -2 -3 -2 -6v-66c0 -5 -1 -10 -5 -11c-5 -2 -34 -5 -38 -5zM105 561c35 0 54 -25 54 -46c0 -25 -19 -41 -42 -53c-2 -1 -3 -4 0 -4c49 -5 66 -32 66 -61c0 -34 -28 -65 -70 -86c-19 -8 -38 -12 -52 -12c-19 0 -39 11 -39 23c0 4 8 16 14 17c2 0 8 0 11 -2
c13 -13 27 -20 46 -20c24 0 47 19 47 58c0 38 -26 55 -50 55c-11 0 -24 -5 -30 -6c-1 -1 -5 -1 -5 1s1 4 5 7c5 4 8 6 15 10c35 20 44 36 44 54c0 20 -13 37 -35 37c-16 0 -29 -7 -41 -19c-5 -5 -7 -6 -8 -6c-2 0 -2 6 0 9c10 17 34 44 70 44zM366 567c6 0 4 -10 -1 -17
c-96 -160 -201 -333 -290 -482c-4 -6 -15 -11 -17 -8c-3 4 2 13 8 21c86 145 194 324 280 466c10 17 15 20 20 20zM227 184l68 -1c2 0 2 2 2 3c0 14 3 79 4 96c0 3 -2 3 -3 2c-19 -22 -53 -65 -75 -96c-1 -2 2 -4 4 -4z" />
    <glyph glyph-name="registered" unicode="&#xae;" horiz-adv-x="119" 
d="M63 573c30 0 53 -23 53 -53c0 -24 -19 -54 -54 -54c-29 0 -52 24 -52 54c0 28 23 53 53 53zM63 566c-25 1 -44 -20 -44 -46s19 -46 44 -46c27 0 44 20 44 46s-20 46 -44 46zM48 507v25c0 8 0 11 -6 12c-4 0 -4 2 1 2c6 0 13 1 21 1c13 0 19 -6 19 -13c0 -8 -7 -12 -9 -13
c0 0 -1 -1 0 -2c8 -14 14 -19 19 -21c2 -1 2 -1 2 -2s-2 -2 -6 -2c-6 0 -10 2 -14 7c-3 3 -7 10 -9 13s-4 4 -6 4s-2 -1 -2 -2v-7c0 -7 1 -8 8 -10c2 -1 2 -3 0 -3h-26c-3 0 -3 2 0 3c6 2 8 4 8 8zM58 541v-17c0 -2 0 -3 4 -3c7 0 11 4 11 10c0 8 -5 12 -10 12
c-4 0 -5 -1 -5 -2z" />
    <glyph glyph-name="minus" unicode="&#x2212;" horiz-adv-x="410" 
d="M369 204c1 0 4 -2 4 -8c0 -9 -4 -21 -8 -21h-322c-4 0 -6 5 -6 6c0 10 5 22 11 22c107 1 214 2 321 1z" />
    <glyph glyph-name="eth" unicode="&#xf0;" horiz-adv-x="444" 
d="M85 685c0 5 8 4 15 4c46 -3 122 -41 181 -97c1 -1 3 -1 5 0l77 44c4 2 13 -1 13 -7c0 -3 -4 -7 -14 -12c-14 -9 -37 -24 -62 -38c-2 -1 -2 -4 0 -6c65 -81 108 -189 108 -315c0 -137 -47 -203 -86 -233c-28 -23 -65 -37 -102 -37c-110 0 -187 87 -187 188
c0 47 15 85 35 113c33 46 95 81 163 81c15 0 56 -5 87 -26c2 -1 5 0 5 5c-6 66 -36 151 -67 200c-2 2 -5 2 -7 1l-87 -47c-6 -4 -13 3 -13 6s3 5 6 7l85 50c2 1 1 4 0 5c-36 47 -95 90 -144 105c-6 3 -11 6 -11 9zM218 355c-20 0 -45 -6 -66 -35c-23 -27 -38 -74 -38 -137
c0 -64 20 -112 40 -138c20 -25 45 -42 73 -42c25 0 51 16 70 52c20 38 33 87 33 153c0 67 -9 88 -21 102c-29 32 -64 45 -91 45z" />
    <glyph glyph-name="multiply" unicode="&#xd7;" horiz-adv-x="410" 
d="M61 312c-3 3 2 14 9 22c2 2 9 -2 13 -6l119 -117c2 -2 5 -2 6 -1l118 122c5 5 9 5 11 3c12 -13 9 -19 8 -20l-119 -124c-2 -2 0 -5 1 -6l122 -124c3 -3 2 -14 -5 -22c-1 -1 -7 -4 -10 -1l-130 129c-3 2 -6 1 -8 -2l-115 -116c-3 -3 -7 -7 -13 -3c-7 5 -11 12 -8 17
l120 120c3 3 3 5 1 7z" />
    <glyph glyph-name="copyright" unicode="&#xa9;" horiz-adv-x="673" 
d="M337 611c176 0 296 -135 296 -300c0 -163 -125 -301 -296 -301c-175 0 -297 138 -297 301c0 162 125 300 297 300zM337 593c-155 0 -273 -124 -273 -281c0 -158 118 -284 273 -284s274 124 274 284c0 155 -119 281 -274 281zM373 484c17 0 37 -3 54 -6l39 -6
c2 0 6 -6 6 -10c1 -17 7 -38 7 -62c0 -4 -1 -10 -4 -10c-2 0 -6 7 -8 13c-7 21 -14 40 -38 52c-15 9 -40 15 -70 15c-80 0 -121 -73 -121 -151c0 -89 55 -163 133 -163c47 0 81 21 96 50c6 13 13 23 16 25s5 -5 4 -10c-2 -9 -8 -33 -14 -47s-16 -19 -39 -26
c-21 -7 -44 -10 -71 -10c-53 0 -96 16 -127 39c-44 33 -65 84 -65 129c0 57 21 97 57 128s85 50 145 50z" />
    <glyph glyph-name="Aacute" unicode="&#xc1;" horiz-adv-x="646" 
d="M342 642c3 0 6 -4 7 -11c3 -19 13 -49 26 -83c65 -174 126 -330 185 -463c25 -57 35 -66 60 -71c12 -3 17 -7 17 -10c0 -5 -10 -8 -18 -8c-22 0 -39 4 -91 4c-43 0 -79 -5 -104 -5c-11 0 -18 3 -18 7c0 5 9 9 19 10c37 6 47 22 45 45c-3 19 -36 107 -68 190
c-3 7 -10 12 -14 12c-39 -2 -159 -2 -181 -2c-5 0 -11 -10 -14 -17c-10 -24 -38 -96 -52 -144c-10 -35 -10 -55 1 -66c9 -10 23 -13 43 -18c10 -2 15 -6 15 -10c0 -5 -9 -7 -21 -7c-19 0 -59 5 -94 5c-25 0 -45 -5 -70 -5c-11 0 -18 2 -18 7s10 7 20 9c45 10 56 19 94 103
c30 64 117 281 173 427c4 13 5 20 5 28c0 4 2 9 4 10c14 9 36 32 41 53c2 6 3 10 8 10zM379 291c1 0 3 5 1 11c-37 105 -67 175 -80 206c-3 8 -5 5 -8 -2c-21 -50 -63 -169 -77 -209c-1 -3 -1 -8 3 -8c20 -1 45 -1 78 -1c35 0 74 0 83 3zM414 758c8 5 18 8 24 5
c10 -4 20 -13 20 -19s-10 -13 -20 -20c-36 -23 -76 -48 -112 -66c-10 -5 -19 -7 -20 -3c0 2 2 6 7 11c29 28 67 64 101 92z" />
    <glyph glyph-name="Acircumflex" unicode="&#xc2;" horiz-adv-x="646" 
d="M342 642c3 0 6 -4 7 -11c3 -19 13 -49 26 -83c65 -174 126 -330 185 -463c25 -57 35 -66 60 -71c12 -3 17 -7 17 -10c0 -5 -10 -8 -18 -8c-22 0 -39 4 -91 4c-43 0 -79 -5 -104 -5c-11 0 -18 3 -18 7c0 5 9 9 19 10c37 6 47 22 45 45c-3 19 -36 107 -68 190
c-3 7 -10 12 -14 12c-39 -2 -159 -2 -181 -2c-5 0 -11 -10 -14 -17c-10 -24 -38 -96 -52 -144c-10 -35 -10 -55 1 -66c9 -10 23 -13 43 -18c10 -2 15 -6 15 -10c0 -5 -9 -7 -21 -7c-19 0 -59 5 -94 5c-25 0 -45 -5 -70 -5c-11 0 -18 2 -18 7s10 7 20 9c45 10 56 19 94 103
c30 64 117 281 173 427c4 13 5 20 5 28c0 4 2 9 4 10c14 9 36 32 41 53c2 6 3 10 8 10zM379 291c1 0 3 5 1 11c-37 105 -67 175 -80 206c-3 8 -5 5 -8 -2c-21 -50 -63 -169 -77 -209c-1 -3 -1 -8 3 -8c20 -1 45 -1 78 -1c35 0 74 0 83 3zM334 749c6 0 13 -7 22 -18
c20 -25 65 -67 84 -85c8 -8 1 -10 -3 -9c-28 8 -80 46 -102 61c-4 3 -8 0 -10 -1c-27 -19 -77 -53 -100 -61c-6 -1 -16 0 -4 9c17 14 62 55 92 88c9 9 16 16 21 16z" />
    <glyph glyph-name="Adieresis" unicode="&#xc4;" horiz-adv-x="646" 
d="M342 642c3 0 6 -4 7 -11c3 -19 13 -49 26 -83c65 -174 126 -330 185 -463c25 -57 35 -66 60 -71c12 -3 17 -7 17 -10c0 -5 -10 -8 -18 -8c-22 0 -39 4 -91 4c-43 0 -79 -5 -104 -5c-11 0 -18 3 -18 7c0 5 9 9 19 10c37 6 47 22 45 45c-3 19 -36 107 -68 190
c-3 7 -10 12 -14 12c-39 -2 -159 -2 -181 -2c-5 0 -11 -10 -14 -17c-10 -24 -38 -96 -52 -144c-10 -35 -10 -55 1 -66c9 -10 23 -13 43 -18c10 -2 15 -6 15 -10c0 -5 -9 -7 -21 -7c-19 0 -59 5 -94 5c-25 0 -45 -5 -70 -5c-11 0 -18 2 -18 7s10 7 20 9c45 10 56 19 94 103
c30 64 117 281 173 427c4 13 5 20 5 28c0 4 2 9 4 10c14 9 36 32 41 53c2 6 3 10 8 10zM379 291c1 0 3 5 1 11c-37 105 -67 175 -80 206c-3 8 -5 5 -8 -2c-21 -50 -63 -169 -77 -209c-1 -3 -1 -8 3 -8c20 -1 45 -1 78 -1c35 0 74 0 83 3zM255 721c17 0 32 -14 32 -31
c0 -25 -18 -37 -36 -37c-10 0 -28 8 -28 31c0 18 12 37 32 37zM408 721c16 0 32 -16 32 -34c0 -16 -19 -34 -36 -34s-30 15 -30 34c0 22 16 34 34 34z" />
    <glyph glyph-name="Agrave" unicode="&#xc0;" horiz-adv-x="646" 
d="M342 642c3 0 6 -4 7 -11c3 -19 13 -49 26 -83c65 -174 126 -330 185 -463c25 -57 35 -66 60 -71c12 -3 17 -7 17 -10c0 -5 -10 -8 -18 -8c-22 0 -39 4 -91 4c-43 0 -79 -5 -104 -5c-11 0 -18 3 -18 7c0 5 9 9 19 10c37 6 47 22 45 45c-3 19 -36 107 -68 190
c-3 7 -10 12 -14 12c-39 -2 -159 -2 -181 -2c-5 0 -11 -10 -14 -17c-10 -24 -38 -96 -52 -144c-10 -35 -10 -55 1 -66c9 -10 23 -13 43 -18c10 -2 15 -6 15 -10c0 -5 -9 -7 -21 -7c-19 0 -59 5 -94 5c-25 0 -45 -5 -70 -5c-11 0 -18 2 -18 7s10 7 20 9c45 10 56 19 94 103
c30 64 117 281 173 427c4 13 5 20 5 28c0 4 2 9 4 10c14 9 36 32 41 53c2 6 3 10 8 10zM379 291c1 0 3 5 1 11c-37 105 -67 175 -80 206c-3 8 -5 5 -8 -2c-21 -50 -63 -169 -77 -209c-1 -3 -1 -8 3 -8c20 -1 45 -1 78 -1c35 0 74 0 83 3zM233 772c5 2 16 2 23 -5
c34 -34 57 -63 87 -100c14 -16 3 -20 -13 -9c-30 23 -68 46 -104 78c-11 8 -15 13 -15 18s9 14 22 18z" />
    <glyph glyph-name="Aring" unicode="&#xc5;" horiz-adv-x="646" 
d="M342 642c3 0 6 -4 7 -11c3 -19 13 -49 26 -83c65 -174 126 -330 185 -463c25 -57 35 -66 60 -71c12 -3 17 -7 17 -10c0 -5 -10 -8 -18 -8c-22 0 -39 4 -91 4c-43 0 -79 -5 -104 -5c-11 0 -18 3 -18 7c0 5 9 9 19 10c37 6 47 22 45 45c-3 19 -36 107 -68 190
c-3 7 -10 12 -14 12c-39 -2 -159 -2 -181 -2c-5 0 -11 -10 -14 -17c-10 -24 -38 -96 -52 -144c-10 -35 -10 -55 1 -66c9 -10 23 -13 43 -18c10 -2 15 -6 15 -10c0 -5 -9 -7 -21 -7c-19 0 -59 5 -94 5c-25 0 -45 -5 -70 -5c-11 0 -18 2 -18 7s10 7 20 9c45 10 56 19 94 103
c30 64 117 281 173 427c4 13 5 20 5 28c0 4 2 9 4 10c14 9 36 32 41 53c2 6 3 10 8 10zM379 291c1 0 3 5 1 11c-37 105 -67 175 -80 206c-3 8 -5 5 -8 -2c-21 -50 -63 -169 -77 -209c-1 -3 -1 -8 3 -8c20 -1 45 -1 78 -1c35 0 74 0 83 3zM328 773c37 0 62 -31 62 -63
c0 -33 -25 -63 -62 -63c-38 0 -61 30 -61 63c0 32 23 63 61 63zM328 751c-21 0 -42 -17 -42 -41c0 -27 22 -40 42 -40s41 12 41 42c0 22 -20 39 -41 39z" />
    <glyph glyph-name="Atilde" unicode="&#xc3;" horiz-adv-x="646" 
d="M342 642c3 0 6 -4 7 -11c3 -19 13 -49 26 -83c65 -174 126 -330 185 -463c25 -57 35 -66 60 -71c12 -3 17 -7 17 -10c0 -5 -10 -8 -18 -8c-22 0 -39 4 -91 4c-43 0 -79 -5 -104 -5c-11 0 -18 3 -18 7c0 5 9 9 19 10c37 6 47 22 45 45c-3 19 -36 107 -68 190
c-3 7 -10 12 -14 12c-39 -2 -159 -2 -181 -2c-5 0 -11 -10 -14 -17c-10 -24 -38 -96 -52 -144c-10 -35 -10 -55 1 -66c9 -10 23 -13 43 -18c10 -2 15 -6 15 -10c0 -5 -9 -7 -21 -7c-19 0 -59 5 -94 5c-25 0 -45 -5 -70 -5c-11 0 -18 2 -18 7s10 7 20 9c45 10 56 19 94 103
c30 64 117 281 173 427c4 13 5 20 5 28c0 4 2 9 4 10c14 9 36 32 41 53c2 6 3 10 8 10zM379 291c1 0 3 5 1 11c-37 105 -67 175 -80 206c-3 8 -5 5 -8 -2c-21 -50 -63 -169 -77 -209c-1 -3 -1 -8 3 -8c20 -1 45 -1 78 -1c35 0 74 0 83 3zM284 721c12 0 17 -1 33 -3
c13 -1 47 -5 64 -5c30 0 41 3 53 18c6 8 10 11 13 11c2 0 3 -6 -2 -14c-6 -12 -31 -40 -45 -50c-7 -5 -17 -6 -20 -6c-23 0 -80 8 -100 8s-24 -2 -45 -27c-5 -4 -7 -6 -11 -6c-2 0 -3 2 2 16c6 12 24 34 37 48c7 6 17 10 21 10z" />
    <glyph glyph-name="Ccedilla" unicode="&#xc7;" horiz-adv-x="650" 
d="M438 -125c0 -44 -52 -80 -88 -80c-27 0 -43 14 -43 29c0 7 11 22 23 22c6 0 11 -7 17 -18c6 -8 14 -15 24 -15c12 0 29 9 29 37c0 32 -23 46 -50 56c-9 3 -11 5 -11 8c0 1 2 4 4 6l53 62h-5c-122 0 -202 44 -262 105c-43 44 -84 134 -84 221c0 119 48 194 112 252
c52 47 142 83 236 83c75 0 162 -28 195 -47c8 -6 11 -12 11 -18c-3 -23 1 -68 2 -78c0 -10 -4 -16 -7 -16s-7 5 -9 13c-8 34 -29 65 -47 79c-37 34 -88 51 -152 51c-65 0 -125 -33 -166 -75c-46 -50 -77 -140 -77 -235c0 -86 36 -182 90 -241c48 -52 115 -73 168 -73
c57 0 91 12 117 28c38 23 60 56 76 97c4 12 6 16 10 16s6 -9 6 -15c0 -16 -12 -65 -14 -77c-2 -7 -5 -13 -11 -17c-55 -32 -103 -50 -174 -52c-14 -17 -18 -24 -22 -30c-3 -3 -3 -8 -1 -9c17 -12 50 -27 50 -69z" />
    <glyph glyph-name="Eacute" unicode="&#xc9;" horiz-adv-x="513" 
d="M38 623c0 3 6 6 15 6c24 0 61 -4 88 -4c57 0 188 2 228 2c37 0 52 2 61 2c5 0 9 -6 11 -16c1 -10 4 -52 8 -71c1 -6 -1 -15 -4 -15c-4 0 -7 3 -12 14c-17 41 -37 60 -55 63c-21 4 -142 4 -180 3c-8 -1 -12 -3 -12 -40v-226c0 -11 3 -15 6 -15h121c43 0 57 2 66 8
c8 4 16 15 26 39c3 6 6 11 10 11s5 -6 5 -11c0 -6 -4 -39 -5 -55c-2 -17 1 -50 2 -56c2 -15 -4 -20 -6 -20c-4 0 -6 4 -12 19c-4 11 -11 30 -27 34c-23 5 -49 6 -179 6c-6 0 -7 -3 -7 -17c0 -51 3 -194 3 -213c0 -11 8 -36 26 -44c15 -7 32 -9 97 -9c76 0 97 1 118 20
c11 11 27 36 37 49c9 12 14 17 18 17s5 -7 1 -19c-6 -20 -17 -65 -23 -76c-3 -8 -9 -13 -17 -13c-106 0 -218 4 -299 4c-34 0 -93 -5 -104 -5c-12 0 -18 3 -18 7c0 5 7 7 18 9c32 6 52 18 53 62c5 159 5 275 5 464c0 57 -12 69 -48 76c-10 2 -15 6 -15 10zM335 765
c8 5 18 8 24 5c10 -4 20 -13 20 -19s-10 -13 -20 -20c-36 -23 -76 -48 -112 -66c-10 -5 -19 -7 -20 -3c0 2 2 6 7 11c29 28 67 64 101 92z" />
    <glyph glyph-name="Ecircumflex" unicode="&#xca;" horiz-adv-x="513" 
d="M38 623c0 3 6 6 15 6c24 0 61 -4 88 -4c57 0 188 2 228 2c37 0 52 2 61 2c5 0 9 -6 11 -16c1 -10 4 -52 8 -71c1 -6 -1 -15 -4 -15c-4 0 -7 3 -12 14c-17 41 -37 60 -55 63c-21 4 -142 4 -180 3c-8 -1 -12 -3 -12 -40v-226c0 -11 3 -15 6 -15h121c43 0 57 2 66 8
c8 4 16 15 26 39c3 6 6 11 10 11s5 -6 5 -11c0 -6 -4 -39 -5 -55c-2 -17 1 -50 2 -56c2 -15 -4 -20 -6 -20c-4 0 -6 4 -12 19c-4 11 -11 30 -27 34c-23 5 -49 6 -179 6c-6 0 -7 -3 -7 -17c0 -51 3 -194 3 -213c0 -11 8 -36 26 -44c15 -7 32 -9 97 -9c76 0 97 1 118 20
c11 11 27 36 37 49c9 12 14 17 18 17s5 -7 1 -19c-6 -20 -17 -65 -23 -76c-3 -8 -9 -13 -17 -13c-106 0 -218 4 -299 4c-34 0 -93 -5 -104 -5c-12 0 -18 3 -18 7c0 5 7 7 18 9c32 6 52 18 53 62c5 159 5 275 5 464c0 57 -12 69 -48 76c-10 2 -15 6 -15 10zM262 771
c6 0 13 -7 22 -18c20 -25 65 -67 84 -85c8 -8 1 -10 -3 -9c-28 8 -80 46 -102 61c-4 3 -8 0 -10 -1c-27 -19 -77 -53 -100 -61c-6 -1 -16 0 -4 9c17 14 62 55 92 88c9 9 16 16 21 16z" />
    <glyph glyph-name="Edieresis" unicode="&#xcb;" horiz-adv-x="513" 
d="M38 623c0 3 6 6 15 6c24 0 61 -4 88 -4c57 0 188 2 228 2c37 0 52 2 61 2c5 0 9 -6 11 -16c1 -10 4 -52 8 -71c1 -6 -1 -15 -4 -15c-4 0 -7 3 -12 14c-17 41 -37 60 -55 63c-21 4 -142 4 -180 3c-8 -1 -12 -3 -12 -40v-226c0 -11 3 -15 6 -15h121c43 0 57 2 66 8
c8 4 16 15 26 39c3 6 6 11 10 11s5 -6 5 -11c0 -6 -4 -39 -5 -55c-2 -17 1 -50 2 -56c2 -15 -4 -20 -6 -20c-4 0 -6 4 -12 19c-4 11 -11 30 -27 34c-23 5 -49 6 -179 6c-6 0 -7 -3 -7 -17c0 -51 3 -194 3 -213c0 -11 8 -36 26 -44c15 -7 32 -9 97 -9c76 0 97 1 118 20
c11 11 27 36 37 49c9 12 14 17 18 17s5 -7 1 -19c-6 -20 -17 -65 -23 -76c-3 -8 -9 -13 -17 -13c-106 0 -218 4 -299 4c-34 0 -93 -5 -104 -5c-12 0 -18 3 -18 7c0 5 7 7 18 9c32 6 52 18 53 62c5 159 5 275 5 464c0 57 -12 69 -48 76c-10 2 -15 6 -15 10zM186 739
c17 0 32 -14 32 -31c0 -25 -18 -37 -36 -37c-10 0 -28 8 -28 31c0 18 12 37 32 37zM339 739c16 0 32 -16 32 -34c0 -16 -19 -34 -36 -34s-30 15 -30 34c0 22 16 34 34 34z" />
    <glyph glyph-name="Egrave" unicode="&#xc8;" horiz-adv-x="513" 
d="M38 623c0 3 6 6 15 6c24 0 61 -4 88 -4c57 0 188 2 228 2c37 0 52 2 61 2c5 0 9 -6 11 -16c1 -10 4 -52 8 -71c1 -6 -1 -15 -4 -15c-4 0 -7 3 -12 14c-17 41 -37 60 -55 63c-21 4 -142 4 -180 3c-8 -1 -12 -3 -12 -40v-226c0 -11 3 -15 6 -15h121c43 0 57 2 66 8
c8 4 16 15 26 39c3 6 6 11 10 11s5 -6 5 -11c0 -6 -4 -39 -5 -55c-2 -17 1 -50 2 -56c2 -15 -4 -20 -6 -20c-4 0 -6 4 -12 19c-4 11 -11 30 -27 34c-23 5 -49 6 -179 6c-6 0 -7 -3 -7 -17c0 -51 3 -194 3 -213c0 -11 8 -36 26 -44c15 -7 32 -9 97 -9c76 0 97 1 118 20
c11 11 27 36 37 49c9 12 14 17 18 17s5 -7 1 -19c-6 -20 -17 -65 -23 -76c-3 -8 -9 -13 -17 -13c-106 0 -218 4 -299 4c-34 0 -93 -5 -104 -5c-12 0 -18 3 -18 7c0 5 7 7 18 9c32 6 52 18 53 62c5 159 5 275 5 464c0 57 -12 69 -48 76c-10 2 -15 6 -15 10zM181 779
c5 2 16 2 23 -5c34 -34 57 -63 87 -100c14 -16 3 -20 -13 -9c-30 23 -68 46 -104 78c-11 8 -15 13 -15 18s9 14 22 18z" />
    <glyph glyph-name="Iacute" unicode="&#xcd;" horiz-adv-x="287" 
d="M36 624c0 3 6 5 15 5c37 0 60 -4 90 -4c36 0 68 4 91 4c9 0 15 -2 15 -5c0 -4 -5 -8 -16 -10c-40 -6 -41 -21 -43 -62c-3 -49 -2 -164 -2 -224c0 -148 2 -230 4 -261c2 -39 9 -45 38 -53c13 -3 17 -6 17 -10c0 -6 -8 -7 -20 -7c-19 0 -42 3 -74 3c-54 0 -82 -5 -101 -5
c-11 0 -18 2 -18 7c0 3 4 6 22 11c37 7 43 23 45 84c2 57 1 329 1 373c0 49 -3 86 -5 101c-4 32 -15 37 -47 44c-8 3 -12 6 -12 9zM231 767c8 5 18 8 24 5c10 -4 20 -13 20 -19s-10 -13 -20 -20c-36 -23 -76 -48 -112 -66c-10 -5 -19 -7 -20 -3c0 2 2 6 7 11
c29 28 67 64 101 92z" />
    <glyph glyph-name="Icircumflex" unicode="&#xce;" horiz-adv-x="287" 
d="M36 624c0 3 6 5 15 5c37 0 60 -4 90 -4c36 0 68 4 91 4c9 0 15 -2 15 -5c0 -4 -5 -8 -16 -10c-40 -6 -41 -21 -43 -62c-3 -49 -2 -164 -2 -224c0 -148 2 -230 4 -261c2 -39 9 -45 38 -53c13 -3 17 -6 17 -10c0 -6 -8 -7 -20 -7c-19 0 -42 3 -74 3c-54 0 -82 -5 -101 -5
c-11 0 -18 2 -18 7c0 3 4 6 22 11c37 7 43 23 45 84c2 57 1 329 1 373c0 49 -3 86 -5 101c-4 32 -15 37 -47 44c-8 3 -12 6 -12 9zM147 769c6 0 13 -7 22 -18c20 -25 65 -67 84 -85c8 -8 1 -10 -3 -9c-28 8 -80 46 -102 61c-4 3 -8 0 -10 -1c-27 -19 -77 -53 -100 -61
c-6 -1 -16 0 -4 9c17 14 62 55 92 88c9 9 16 16 21 16z" />
    <glyph glyph-name="Idieresis" unicode="&#xcf;" horiz-adv-x="287" 
d="M36 624c0 3 6 5 15 5c37 0 60 -4 90 -4c36 0 68 4 91 4c9 0 15 -2 15 -5c0 -4 -5 -8 -16 -10c-40 -6 -41 -21 -43 -62c-3 -49 -2 -164 -2 -224c0 -148 2 -230 4 -261c2 -39 9 -45 38 -53c13 -3 17 -6 17 -10c0 -6 -8 -7 -20 -7c-19 0 -42 3 -74 3c-54 0 -82 -5 -101 -5
c-11 0 -18 2 -18 7c0 3 4 6 22 11c37 7 43 23 45 84c2 57 1 329 1 373c0 49 -3 86 -5 101c-4 32 -15 37 -47 44c-8 3 -12 6 -12 9zM69 739c17 0 32 -14 32 -31c0 -25 -18 -37 -36 -37c-10 0 -28 8 -28 31c0 18 12 37 32 37zM222 739c16 0 32 -16 32 -34
c0 -16 -19 -34 -36 -34s-30 15 -30 34c0 22 16 34 34 34z" />
    <glyph glyph-name="Igrave" unicode="&#xcc;" horiz-adv-x="287" 
d="M36 624c0 3 6 5 15 5c37 0 60 -4 90 -4c36 0 68 4 91 4c9 0 15 -2 15 -5c0 -4 -5 -8 -16 -10c-40 -6 -41 -21 -43 -62c-3 -49 -2 -164 -2 -224c0 -148 2 -230 4 -261c2 -39 9 -45 38 -53c13 -3 17 -6 17 -10c0 -6 -8 -7 -20 -7c-19 0 -42 3 -74 3c-54 0 -82 -5 -101 -5
c-11 0 -18 2 -18 7c0 3 4 6 22 11c37 7 43 23 45 84c2 57 1 329 1 373c0 49 -3 86 -5 101c-4 32 -15 37 -47 44c-8 3 -12 6 -12 9zM57 780c5 2 16 2 23 -5c34 -34 57 -63 87 -100c14 -16 3 -20 -13 -9c-30 23 -68 46 -104 78c-11 8 -15 13 -15 18s9 14 22 18z" />
    <glyph glyph-name="Ntilde" unicode="&#xd1;" horiz-adv-x="722" 
d="M17 623c0 4 6 7 21 7c35 0 94 -6 130 -5c5 0 9 -3 23 -20c66 -84 315 -363 402 -460c4 -3 7 -2 7 6c0 35 -2 298 -5 385c-1 59 -23 69 -56 77c-11 2 -19 5 -19 9c0 5 10 7 20 7c18 0 48 -4 70 -4c29 0 56 4 67 4s16 -2 16 -6c0 -5 -8 -8 -17 -11c-39 -12 -42 -34 -46 -59
c-4 -43 -6 -246 -6 -339c0 -90 -2 -150 0 -203c1 -22 -2 -32 -9 -32c-4 0 -17 14 -35 37c-53 66 -313 363 -445 517c-5 6 -9 4 -9 -2c0 -31 -2 -356 -2 -404c1 -44 3 -65 11 -82c7 -18 32 -27 50 -32c10 -3 17 -6 17 -12c0 -5 -10 -6 -20 -6c-17 0 -44 5 -76 5
c-29 0 -62 -5 -70 -5c-14 0 -17 2 -17 6c0 5 8 7 19 10c35 11 48 19 53 76c4 39 12 344 12 435c0 58 -10 66 -18 72c-13 10 -27 15 -49 19c-14 3 -19 5 -19 10zM324 735c12 0 17 -1 33 -3c13 -1 47 -5 64 -5c30 0 41 3 53 18c6 8 10 11 13 11c2 0 3 -6 -2 -14
c-6 -12 -31 -40 -45 -50c-7 -5 -17 -6 -20 -6c-23 0 -80 8 -100 8s-24 -2 -45 -27c-5 -4 -7 -6 -11 -6c-2 0 -3 2 2 16c6 12 24 34 37 48c7 6 17 10 21 10z" />
    <glyph glyph-name="Oacute" unicode="&#xd3;" horiz-adv-x="741" 
d="M370 643c177 0 326 -151 326 -338c0 -161 -109 -259 -186 -293c-41 -18 -87 -30 -135 -30c-182 0 -330 153 -330 336c0 100 34 189 130 262c52 40 130 63 195 63zM354 627c-58 0 -117 -41 -145 -74c-47 -57 -69 -145 -69 -229c0 -80 30 -168 79 -228
c54 -70 116 -95 173 -95c35 0 73 11 106 42c42 36 102 119 102 262c0 89 -26 170 -80 239c-35 43 -87 83 -166 83zM448 777c8 5 18 8 24 5c10 -4 20 -13 20 -19s-10 -13 -20 -20c-36 -23 -76 -48 -112 -66c-10 -5 -19 -7 -20 -3c0 2 2 6 7 11c29 28 67 64 101 92z" />
    <glyph glyph-name="Ocircumflex" unicode="&#xd4;" horiz-adv-x="741" 
d="M370 643c177 0 326 -151 326 -338c0 -161 -109 -259 -186 -293c-41 -18 -87 -30 -135 -30c-182 0 -330 153 -330 336c0 100 34 189 130 262c52 40 130 63 195 63zM354 627c-58 0 -117 -41 -145 -74c-47 -57 -69 -145 -69 -229c0 -80 30 -168 79 -228
c54 -70 116 -95 173 -95c35 0 73 11 106 42c42 36 102 119 102 262c0 89 -26 170 -80 239c-35 43 -87 83 -166 83zM373 776c6 0 13 -7 22 -18c20 -25 65 -67 84 -85c8 -8 1 -10 -3 -9c-28 8 -80 46 -102 61c-4 3 -8 0 -10 -1c-27 -19 -77 -53 -100 -61c-6 -1 -16 0 -4 9
c17 14 62 55 92 88c9 9 16 16 21 16z" />
    <glyph glyph-name="Odieresis" unicode="&#xd6;" horiz-adv-x="741" 
d="M370 643c177 0 326 -151 326 -338c0 -161 -109 -259 -186 -293c-41 -18 -87 -30 -135 -30c-182 0 -330 153 -330 336c0 100 34 189 130 262c52 40 130 63 195 63zM354 627c-58 0 -117 -41 -145 -74c-47 -57 -69 -145 -69 -229c0 -80 30 -168 79 -228
c54 -70 116 -95 173 -95c35 0 73 11 106 42c42 36 102 119 102 262c0 89 -26 170 -80 239c-35 43 -87 83 -166 83zM293 749c17 0 32 -14 32 -31c0 -25 -18 -37 -36 -37c-10 0 -28 8 -28 31c0 18 12 37 32 37zM446 749c16 0 32 -16 32 -34c0 -16 -19 -34 -36 -34
s-30 15 -30 34c0 22 16 34 34 34z" />
    <glyph glyph-name="Ograve" unicode="&#xd2;" horiz-adv-x="741" 
d="M370 643c177 0 326 -151 326 -338c0 -161 -109 -259 -186 -293c-41 -18 -87 -30 -135 -30c-182 0 -330 153 -330 336c0 100 34 189 130 262c52 40 130 63 195 63zM354 627c-58 0 -117 -41 -145 -74c-47 -57 -69 -145 -69 -229c0 -80 30 -168 79 -228
c54 -70 116 -95 173 -95c35 0 73 11 106 42c42 36 102 119 102 262c0 89 -26 170 -80 239c-35 43 -87 83 -166 83zM286 792c5 2 16 2 23 -5c34 -34 57 -63 87 -100c14 -16 3 -20 -13 -9c-30 23 -68 46 -104 78c-11 8 -15 13 -15 18s9 14 22 18z" />
    <glyph glyph-name="Otilde" unicode="&#xd5;" horiz-adv-x="741" 
d="M370 643c177 0 326 -151 326 -338c0 -161 -109 -259 -186 -293c-41 -18 -87 -30 -135 -30c-182 0 -330 153 -330 336c0 100 34 189 130 262c52 40 130 63 195 63zM354 627c-58 0 -117 -41 -145 -74c-47 -57 -69 -145 -69 -229c0 -80 30 -168 79 -228
c54 -70 116 -95 173 -95c35 0 73 11 106 42c42 36 102 119 102 262c0 89 -26 170 -80 239c-35 43 -87 83 -166 83zM317 748c12 0 17 -1 33 -3c13 -1 47 -5 64 -5c30 0 41 3 53 18c6 8 10 11 13 11c2 0 3 -6 -2 -14c-6 -12 -31 -40 -45 -50c-7 -5 -17 -6 -20 -6
c-23 0 -80 8 -100 8s-24 -2 -45 -27c-5 -4 -7 -6 -11 -6c-2 0 -3 2 2 16c6 12 24 34 37 48c7 6 17 10 21 10z" />
    <glyph glyph-name="Scaron" unicode="&#x160;" horiz-adv-x="445" 
d="M259 643c49 0 100 -13 117 -19c5 -1 7 -8 7 -11c0 -27 3 -57 5 -68c2 -12 -2 -20 -6 -20c-3 0 -6 5 -9 16c-8 26 -18 46 -38 60c-22 17 -56 26 -81 26c-48 0 -117 -37 -117 -120c0 -52 31 -86 70 -113c37 -25 69 -47 101 -70c39 -29 99 -74 99 -163
c0 -113 -107 -179 -213 -179c-47 0 -107 12 -138 28c-10 6 -14 13 -17 25c-1 16 -9 53 -10 77c-1 12 1 19 5 19c5 0 8 -6 12 -20c18 -75 83 -111 146 -111c79 0 131 61 131 127c0 65 -47 104 -118 151c-82 55 -140 109 -140 196c0 53 25 98 64 128c28 22 72 41 130 41z
M242 671c-4 0 -11 6 -20 17c-20 25 -64 65 -86 86c-9 8 -1 9 3 8c28 -8 80 -44 102 -60c4 -3 8 0 10 2c28 18 77 51 100 59c6 2 17 1 5 -8c-17 -14 -64 -56 -94 -89c-9 -9 -16 -15 -20 -15z" />
    <glyph glyph-name="Uacute" unicode="&#xda;" horiz-adv-x="668" 
d="M137 625c33 0 60 3 85 3c12 0 16 -3 16 -6c0 -5 -7 -8 -16 -10c-48 -8 -47 -38 -47 -85c-2 -94 -2 -223 -1 -280c1 -77 20 -135 53 -169c38 -41 94 -54 139 -54c109 0 183 57 190 256c1 36 2 83 2 114c0 189 -9 201 -36 212c-8 2 -18 5 -26 6c-9 1 -17 6 -17 9
c0 5 6 7 17 7c23 0 39 -3 71 -3c22 0 48 3 73 3c12 0 18 -2 18 -5c0 -5 -5 -8 -21 -11c-40 -7 -43 -27 -46 -71c-4 -59 -5 -189 -9 -246c-5 -99 -16 -187 -73 -247c-52 -55 -128 -65 -177 -65c-54 0 -118 15 -158 46c-61 48 -83 106 -86 233c-3 79 -1 227 -5 286
c-3 49 -5 56 -45 67c-7 2 -13 5 -13 9c0 5 9 5 18 5c26 0 56 -4 94 -4zM428 765c8 5 18 8 24 5c10 -4 20 -13 20 -19s-10 -13 -20 -20c-36 -23 -76 -48 -112 -66c-10 -5 -19 -7 -20 -3c0 2 2 6 7 11c29 28 67 64 101 92z" />
    <glyph glyph-name="Ucircumflex" unicode="&#xdb;" horiz-adv-x="668" 
d="M137 625c33 0 60 3 85 3c12 0 16 -3 16 -6c0 -5 -7 -8 -16 -10c-48 -8 -47 -38 -47 -85c-2 -94 -2 -223 -1 -280c1 -77 20 -135 53 -169c38 -41 94 -54 139 -54c109 0 183 57 190 256c1 36 2 83 2 114c0 189 -9 201 -36 212c-8 2 -18 5 -26 6c-9 1 -17 6 -17 9
c0 5 6 7 17 7c23 0 39 -3 71 -3c22 0 48 3 73 3c12 0 18 -2 18 -5c0 -5 -5 -8 -21 -11c-40 -7 -43 -27 -46 -71c-4 -59 -5 -189 -9 -246c-5 -99 -16 -187 -73 -247c-52 -55 -128 -65 -177 -65c-54 0 -118 15 -158 46c-61 48 -83 106 -86 233c-3 79 -1 227 -5 286
c-3 49 -5 56 -45 67c-7 2 -13 5 -13 9c0 5 9 5 18 5c26 0 56 -4 94 -4zM361 773c6 0 13 -7 22 -18c20 -25 65 -67 84 -85c8 -8 1 -10 -3 -9c-28 8 -80 46 -102 61c-4 3 -8 0 -10 -1c-27 -19 -77 -53 -100 -61c-6 -1 -16 0 -4 9c17 14 62 55 92 88c9 9 16 16 21 16z" />
    <glyph glyph-name="Udieresis" unicode="&#xdc;" horiz-adv-x="668" 
d="M137 625c33 0 60 3 85 3c12 0 16 -3 16 -6c0 -5 -7 -8 -16 -10c-48 -8 -47 -38 -47 -85c-2 -94 -2 -223 -1 -280c1 -77 20 -135 53 -169c38 -41 94 -54 139 -54c109 0 183 57 190 256c1 36 2 83 2 114c0 189 -9 201 -36 212c-8 2 -18 5 -26 6c-9 1 -17 6 -17 9
c0 5 6 7 17 7c23 0 39 -3 71 -3c22 0 48 3 73 3c12 0 18 -2 18 -5c0 -5 -5 -8 -21 -11c-40 -7 -43 -27 -46 -71c-4 -59 -5 -189 -9 -246c-5 -99 -16 -187 -73 -247c-52 -55 -128 -65 -177 -65c-54 0 -118 15 -158 46c-61 48 -83 106 -86 233c-3 79 -1 227 -5 286
c-3 49 -5 56 -45 67c-7 2 -13 5 -13 9c0 5 9 5 18 5c26 0 56 -4 94 -4zM288 736c17 0 32 -14 32 -31c0 -25 -18 -37 -36 -37c-10 0 -28 8 -28 31c0 18 12 37 32 37zM441 736c16 0 32 -16 32 -34c0 -16 -19 -34 -36 -34s-30 15 -30 34c0 22 16 34 34 34z" />
    <glyph glyph-name="Ugrave" unicode="&#xd9;" horiz-adv-x="668" 
d="M137 625c33 0 60 3 85 3c12 0 16 -3 16 -6c0 -5 -7 -8 -16 -10c-48 -8 -47 -38 -47 -85c-2 -94 -2 -223 -1 -280c1 -77 20 -135 53 -169c38 -41 94 -54 139 -54c109 0 183 57 190 256c1 36 2 83 2 114c0 189 -9 201 -36 212c-8 2 -18 5 -26 6c-9 1 -17 6 -17 9
c0 5 6 7 17 7c23 0 39 -3 71 -3c22 0 48 3 73 3c12 0 18 -2 18 -5c0 -5 -5 -8 -21 -11c-40 -7 -43 -27 -46 -71c-4 -59 -5 -189 -9 -246c-5 -99 -16 -187 -73 -247c-52 -55 -128 -65 -177 -65c-54 0 -118 15 -158 46c-61 48 -83 106 -86 233c-3 79 -1 227 -5 286
c-3 49 -5 56 -45 67c-7 2 -13 5 -13 9c0 5 9 5 18 5c26 0 56 -4 94 -4zM279 773c5 2 16 2 23 -5c34 -34 57 -63 87 -100c14 -16 3 -20 -13 -9c-30 23 -68 46 -104 78c-11 8 -15 13 -15 18s9 14 22 18z" />
    <glyph glyph-name="Yacute" unicode="&#xdd;" horiz-adv-x="588" 
d="M-3 624c0 6 8 6 20 6c19 0 70 -5 100 -5c32 0 65 3 86 3c11 0 16 -2 16 -6c0 -5 -6 -8 -16 -10c-24 -5 -29 -11 -29 -19c0 -6 5 -19 16 -37c18 -31 103 -180 128 -212c1 -1 8 -6 10 -1c31 50 95 153 116 192c17 28 24 43 24 53c0 12 -13 21 -38 26c-9 2 -17 5 -17 10
c0 3 6 5 16 5c28 0 44 -4 72 -4c24 0 59 5 73 5c12 0 18 -2 18 -6s-6 -8 -21 -10c-39 -8 -57 -26 -78 -55c-51 -66 -118 -182 -146 -230c-7 -11 -13 -27 -13 -37c-2 -37 -2 -91 -2 -138c0 -25 0 -44 1 -78c2 -47 10 -56 46 -64c13 -3 21 -5 21 -11c0 -5 -10 -6 -18 -6
c-45 0 -56 5 -101 5c-37 0 -59 -4 -87 -4c-14 0 -21 3 -21 8c0 4 10 7 22 9c40 5 47 16 50 53c2 21 4 86 4 129c0 63 0 79 -2 93c-1 8 -4 19 -7 23c-29 55 -113 197 -143 238c-32 44 -47 59 -79 65c-16 3 -21 7 -21 10zM393 764c8 5 18 8 24 5c10 -4 20 -13 20 -19
s-10 -13 -20 -20c-36 -23 -76 -48 -112 -66c-10 -5 -19 -7 -20 -3c0 2 2 6 7 11c29 28 67 64 101 92z" />
    <glyph glyph-name="Ydieresis" unicode="&#x178;" horiz-adv-x="588" 
d="M-3 624c0 6 8 6 20 6c19 0 70 -5 100 -5c32 0 65 3 86 3c11 0 16 -2 16 -6c0 -5 -6 -8 -16 -10c-24 -5 -29 -11 -29 -19c0 -6 5 -19 16 -37c18 -31 103 -180 128 -212c1 -1 8 -6 10 -1c31 50 95 153 116 192c17 28 24 43 24 53c0 12 -13 21 -38 26c-9 2 -17 5 -17 10
c0 3 6 5 16 5c28 0 44 -4 72 -4c24 0 59 5 73 5c12 0 18 -2 18 -6s-6 -8 -21 -10c-39 -8 -57 -26 -78 -55c-51 -66 -118 -182 -146 -230c-7 -11 -13 -27 -13 -37c-2 -37 -2 -91 -2 -138c0 -25 0 -44 1 -78c2 -47 10 -56 46 -64c13 -3 21 -5 21 -11c0 -5 -10 -6 -18 -6
c-45 0 -56 5 -101 5c-37 0 -59 -4 -87 -4c-14 0 -21 3 -21 8c0 4 10 7 22 9c40 5 47 16 50 53c2 21 4 86 4 129c0 63 0 79 -2 93c-1 8 -4 19 -7 23c-29 55 -113 197 -143 238c-32 44 -47 59 -79 65c-16 3 -21 7 -21 10zM240 739c17 0 32 -14 32 -31c0 -25 -18 -37 -36 -37
c-10 0 -28 8 -28 31c0 18 12 37 32 37zM393 739c16 0 32 -16 32 -34c0 -16 -19 -34 -36 -34s-30 15 -30 34c0 22 16 34 34 34z" />
    <glyph glyph-name="Zcaron" unicode="&#x17d;" horiz-adv-x="610" 
d="M64 639c7 -2 23 -9 43 -10s156 -4 347 -4c47 0 90 2 102 3c6 1 9 -6 3 -14c-6 -6 -47 -57 -83 -116c-34 -55 -261 -392 -302 -464c-1 -3 -3 -9 4 -9c108 0 268 2 307 6c24 4 35 8 50 24c10 11 28 37 38 54c5 8 9 14 15 14c4 0 4 -8 2 -16c-4 -10 -19 -69 -22 -95
c-2 -11 -25 -12 -41 -12c-18 0 -318 0 -364 -1c-27 0 -82 -2 -104 -3c-10 0 -15 5 -8 14c86 120 315 461 384 578c3 5 3 12 -1 12c-47 0 -288 -1 -315 -2c-13 -2 -27 -3 -40 -14s-33 -34 -49 -58c-5 -7 -9 -9 -13 -9c-5 0 -6 9 0 20c15 30 28 75 35 96c2 6 3 9 12 6z
M297 661c-4 0 -11 6 -20 17c-20 25 -64 65 -86 86c-9 8 -1 9 3 8c28 -8 80 -44 102 -60c4 -3 8 0 10 2c28 18 77 51 100 59c6 2 17 1 5 -8c-17 -14 -64 -56 -94 -89c-9 -9 -16 -15 -20 -15z" />
    <glyph glyph-name="aacute" unicode="&#xe1;" horiz-adv-x="349" 
d="M187 371c37 0 67 -21 79 -49c12 -21 16 -63 16 -93c0 -40 -2 -132 -2 -158c0 -18 9 -36 35 -36c9 0 19 2 30 8c5 3 9 -1 5 -9c-15 -30 -48 -46 -80 -46s-53 24 -61 46c-1 2 -4 3 -5 1c-30 -28 -60 -45 -98 -45c-40 0 -80 34 -80 87c0 32 25 53 36 58c25 13 113 39 136 47
c8 3 12 11 13 15c1 12 2 34 2 47c0 41 -8 67 -24 80c-13 10 -29 16 -41 16c-15 0 -26 -3 -39 -12c-6 -5 -12 -12 -14 -22c-1 -4 0 -14 0 -21c0 -3 -3 -7 -5 -9c-10 -6 -41 -22 -51 -24c-4 -1 -9 5 -9 10c0 8 8 19 20 33c22 25 52 44 76 57c23 12 45 19 61 19zM154 30
c16 0 31 5 41 15c4 4 9 13 11 23c3 16 5 57 5 96c0 1 -2 7 -5 6c-12 -3 -64 -21 -85 -32c-13 -7 -26 -23 -26 -51c0 -34 29 -57 59 -57zM257 574c7 0 8 -3 8 -6c0 -2 -1 -7 -3 -10c-22 -35 -66 -100 -95 -141c-5 -8 -12 -11 -14 -11c-3 0 -4 4 0 13c1 3 62 135 64 138
c6 6 26 16 40 17z" />
    <glyph glyph-name="acircumflex" unicode="&#xe2;" horiz-adv-x="349" 
d="M187 371c37 0 67 -21 79 -49c12 -21 16 -63 16 -93c0 -40 -2 -132 -2 -158c0 -18 9 -36 35 -36c9 0 19 2 30 8c5 3 9 -1 5 -9c-15 -30 -48 -46 -80 -46s-53 24 -61 46c-1 2 -4 3 -5 1c-30 -28 -60 -45 -98 -45c-40 0 -80 34 -80 87c0 32 25 53 36 58c25 13 113 39 136 47
c8 3 12 11 13 15c1 12 2 34 2 47c0 41 -8 67 -24 80c-13 10 -29 16 -41 16c-15 0 -26 -3 -39 -12c-6 -5 -12 -12 -14 -22c-1 -4 0 -14 0 -21c0 -3 -3 -7 -5 -9c-10 -6 -41 -22 -51 -24c-4 -1 -9 5 -9 10c0 8 8 19 20 33c22 25 52 44 76 57c23 12 45 19 61 19zM154 30
c16 0 31 5 41 15c4 4 9 13 11 23c3 16 5 57 5 96c0 1 -2 7 -5 6c-12 -3 -64 -21 -85 -32c-13 -7 -26 -23 -26 -51c0 -34 29 -57 59 -57zM174 570c2 0 6 -5 9 -11l60 -138c4 -9 3 -16 -1 -16s-12 11 -17 18c-8 12 -33 50 -52 85c-2 3 -3 5 -8 -2c-9 -12 -36 -54 -60 -86
c-2 -3 -8 -9 -12 -9c-3 0 -2 9 2 15c5 11 49 95 57 112l15 25c2 3 4 7 7 7z" />
    <glyph glyph-name="adieresis" unicode="&#xe4;" horiz-adv-x="349" 
d="M187 371c37 0 67 -21 79 -49c12 -21 16 -63 16 -93c0 -40 -2 -132 -2 -158c0 -18 9 -36 35 -36c9 0 19 2 30 8c5 3 9 -1 5 -9c-15 -30 -48 -46 -80 -46s-53 24 -61 46c-1 2 -4 3 -5 1c-30 -28 -60 -45 -98 -45c-40 0 -80 34 -80 87c0 32 25 53 36 58c25 13 113 39 136 47
c8 3 12 11 13 15c1 12 2 34 2 47c0 41 -8 67 -24 80c-13 10 -29 16 -41 16c-15 0 -26 -3 -39 -12c-6 -5 -12 -12 -14 -22c-1 -4 0 -14 0 -21c0 -3 -3 -7 -5 -9c-10 -6 -41 -22 -51 -24c-4 -1 -9 5 -9 10c0 8 8 19 20 33c22 25 52 44 76 57c23 12 45 19 61 19zM154 30
c16 0 31 5 41 15c4 4 9 13 11 23c3 16 5 57 5 96c0 1 -2 7 -5 6c-12 -3 -64 -21 -85 -32c-13 -7 -26 -23 -26 -51c0 -34 29 -57 59 -57zM105 535c18 0 33 -16 33 -33c0 -26 -20 -38 -38 -38c-12 0 -30 11 -30 33c0 21 15 38 35 38zM240 535c19 0 33 -17 33 -35
c0 -21 -19 -36 -37 -36c-17 0 -32 15 -32 35c0 23 18 36 36 36z" />
    <glyph glyph-name="agrave" unicode="&#xe0;" horiz-adv-x="349" 
d="M187 371c37 0 67 -21 79 -49c12 -21 16 -63 16 -93c0 -40 -2 -132 -2 -158c0 -18 9 -36 35 -36c9 0 19 2 30 8c5 3 9 -1 5 -9c-15 -30 -48 -46 -80 -46s-53 24 -61 46c-1 2 -4 3 -5 1c-30 -28 -60 -45 -98 -45c-40 0 -80 34 -80 87c0 32 25 53 36 58c25 13 113 39 136 47
c8 3 12 11 13 15c1 12 2 34 2 47c0 41 -8 67 -24 80c-13 10 -29 16 -41 16c-15 0 -26 -3 -39 -12c-6 -5 -12 -12 -14 -22c-1 -4 0 -14 0 -21c0 -3 -3 -7 -5 -9c-10 -6 -41 -22 -51 -24c-4 -1 -9 5 -9 10c0 8 8 19 20 33c22 25 52 44 76 57c23 12 45 19 61 19zM154 30
c16 0 31 5 41 15c4 4 9 13 11 23c3 16 5 57 5 96c0 1 -2 7 -5 6c-12 -3 -64 -21 -85 -32c-13 -7 -26 -23 -26 -51c0 -34 29 -57 59 -57zM129 579c4 0 9 -3 12 -9c2 -7 48 -128 54 -141c2 -7 2 -15 -1 -15c-5 0 -9 6 -14 12c-4 7 -52 84 -79 131c-8 12 -4 15 -1 17
c3 3 18 5 29 5z" />
    <glyph glyph-name="aring" unicode="&#xe5;" horiz-adv-x="349" 
d="M187 371c37 0 67 -21 79 -49c12 -21 16 -63 16 -93c0 -40 -2 -132 -2 -158c0 -18 9 -36 35 -36c9 0 19 2 30 8c5 3 9 -1 5 -9c-15 -30 -48 -46 -80 -46s-53 24 -61 46c-1 2 -4 3 -5 1c-30 -28 -60 -45 -98 -45c-40 0 -80 34 -80 87c0 32 25 53 36 58c25 13 113 39 136 47
c8 3 12 11 13 15c1 12 2 34 2 47c0 41 -8 67 -24 80c-13 10 -29 16 -41 16c-15 0 -26 -3 -39 -12c-6 -5 -12 -12 -14 -22c-1 -4 0 -14 0 -21c0 -3 -3 -7 -5 -9c-10 -6 -41 -22 -51 -24c-4 -1 -9 5 -9 10c0 8 8 19 20 33c22 25 52 44 76 57c23 12 45 19 61 19zM154 30
c16 0 31 5 41 15c4 4 9 13 11 23c3 16 5 57 5 96c0 1 -2 7 -5 6c-12 -3 -64 -21 -85 -32c-13 -7 -26 -23 -26 -51c0 -34 29 -57 59 -57zM171 546c35 0 57 -28 57 -57c0 -30 -22 -58 -57 -58s-56 28 -56 58c0 29 21 57 56 57zM171 527c-19 0 -38 -16 -38 -38
c0 -25 20 -37 38 -37c19 0 38 11 38 39c0 20 -18 36 -38 36z" />
    <glyph glyph-name="atilde" unicode="&#xe3;" horiz-adv-x="349" 
d="M187 371c37 0 67 -21 79 -49c12 -21 16 -63 16 -93c0 -40 -2 -132 -2 -158c0 -18 9 -36 35 -36c9 0 19 2 30 8c5 3 9 -1 5 -9c-15 -30 -48 -46 -80 -46s-53 24 -61 46c-1 2 -4 3 -5 1c-30 -28 -60 -45 -98 -45c-40 0 -80 34 -80 87c0 32 25 53 36 58c25 13 113 39 136 47
c8 3 12 11 13 15c1 12 2 34 2 47c0 41 -8 67 -24 80c-13 10 -29 16 -41 16c-15 0 -26 -3 -39 -12c-6 -5 -12 -12 -14 -22c-1 -4 0 -14 0 -21c0 -3 -3 -7 -5 -9c-10 -6 -41 -22 -51 -24c-4 -1 -9 5 -9 10c0 8 8 19 20 33c22 25 52 44 76 57c23 12 45 19 61 19zM154 30
c16 0 31 5 41 15c4 4 9 13 11 23c3 16 5 57 5 96c0 1 -2 7 -5 6c-12 -3 -64 -21 -85 -32c-13 -7 -26 -23 -26 -51c0 -34 29 -57 59 -57zM116 515c13 0 17 -1 31 -2c13 -1 50 -9 69 -9c20 0 34 5 50 26c5 7 10 10 13 10c2 0 4 -6 -1 -13l-39 -50c-5 -7 -16 -13 -21 -13
c-23 0 -81 13 -99 13c-20 0 -26 -4 -45 -28c-5 -4 -7 -6 -11 -6c-2 0 -3 2 2 15c6 12 24 35 36 48c6 6 12 9 15 9z" />
    <glyph glyph-name="ccedilla" unicode="&#xe7;" horiz-adv-x="369" 
d="M243 371c46 0 76 -13 93 -25c10 -6 13 -15 13 -20c0 -19 -19 -33 -28 -33c-3 0 -10 3 -16 9c-18 18 -43 35 -58 42c-12 6 -25 8 -38 8c-37 0 -102 -38 -102 -152c0 -63 25 -106 49 -127c26 -25 62 -36 91 -36c40 0 70 8 103 38c3 3 6 2 6 -2s-2 -8 -8 -16
c-13 -18 -41 -43 -81 -57c-19 -20 -33 -36 -37 -42c-3 -4 -2 -7 -1 -8c16 -12 48 -26 48 -67c0 -42 -51 -77 -86 -77c-26 0 -42 13 -42 28c0 7 11 21 23 21c6 0 11 -6 17 -17c5 -8 13 -14 23 -14c11 0 28 8 28 36c0 30 -23 43 -49 53c-8 3 -10 5 -10 8c0 1 0 4 3 6l64 68
c-13 -3 -25 -6 -39 -6c-91 0 -176 67 -176 184c0 63 32 113 62 140c31 29 85 58 148 58z" />
    <glyph glyph-name="eacute" unicode="&#xe9;" horiz-adv-x="368" 
d="M217 371c62 0 123 -44 123 -104c0 -6 -6 -11 -10 -11c-9 0 -138 3 -162 3h-49c-2 0 -8 -6 -9 -9c-5 -10 -8 -27 -8 -51c0 -51 20 -91 46 -120c26 -30 66 -41 96 -41c41 0 71 9 95 32c8 7 12 5 12 1s-3 -9 -9 -16c-38 -43 -82 -66 -142 -66c-48 0 -89 19 -119 51
c-31 32 -48 80 -48 134c0 48 17 107 60 148c27 25 72 49 124 49zM207 357c-24 0 -47 -15 -68 -36c-12 -15 -21 -36 -21 -43c0 -2 2 -5 4 -5h121c23 0 25 12 25 21c0 14 -3 31 -14 44c-9 9 -25 19 -47 19zM291 574c7 0 8 -3 8 -6c0 -2 -1 -7 -3 -10
c-22 -35 -66 -100 -95 -141c-5 -8 -12 -11 -14 -11c-3 0 -4 4 0 13c1 3 62 135 64 138c6 6 26 16 40 17z" />
    <glyph glyph-name="ecircumflex" unicode="&#xea;" horiz-adv-x="368" 
d="M217 371c62 0 123 -44 123 -104c0 -6 -6 -11 -10 -11c-9 0 -138 3 -162 3h-49c-2 0 -8 -6 -9 -9c-5 -10 -8 -27 -8 -51c0 -51 20 -91 46 -120c26 -30 66 -41 96 -41c41 0 71 9 95 32c8 7 12 5 12 1s-3 -9 -9 -16c-38 -43 -82 -66 -142 -66c-48 0 -89 19 -119 51
c-31 32 -48 80 -48 134c0 48 17 107 60 148c27 25 72 49 124 49zM207 357c-24 0 -47 -15 -68 -36c-12 -15 -21 -36 -21 -43c0 -2 2 -5 4 -5h121c23 0 25 12 25 21c0 14 -3 31 -14 44c-9 9 -25 19 -47 19zM211 569c2 0 6 -5 9 -11l60 -138c4 -9 3 -16 -1 -16s-12 11 -17 18
c-8 12 -33 50 -52 85c-2 3 -3 5 -8 -2c-9 -12 -36 -54 -60 -86c-2 -3 -8 -9 -12 -9c-3 0 -2 9 2 15c5 11 49 95 57 112l15 25c2 3 4 7 7 7z" />
    <glyph glyph-name="edieresis" unicode="&#xeb;" horiz-adv-x="368" 
d="M217 371c62 0 123 -44 123 -104c0 -6 -6 -11 -10 -11c-9 0 -138 3 -162 3h-49c-2 0 -8 -6 -9 -9c-5 -10 -8 -27 -8 -51c0 -51 20 -91 46 -120c26 -30 66 -41 96 -41c41 0 71 9 95 32c8 7 12 5 12 1s-3 -9 -9 -16c-38 -43 -82 -66 -142 -66c-48 0 -89 19 -119 51
c-31 32 -48 80 -48 134c0 48 17 107 60 148c27 25 72 49 124 49zM207 357c-24 0 -47 -15 -68 -36c-12 -15 -21 -36 -21 -43c0 -2 2 -5 4 -5h121c23 0 25 12 25 21c0 14 -3 31 -14 44c-9 9 -25 19 -47 19zM138 536c18 0 33 -16 33 -33c0 -26 -20 -38 -38 -38
c-12 0 -30 11 -30 33c0 21 15 38 35 38zM273 536c19 0 33 -17 33 -35c0 -21 -19 -36 -37 -36c-17 0 -32 15 -32 35c0 23 18 36 36 36z" />
    <glyph glyph-name="egrave" unicode="&#xe8;" horiz-adv-x="368" 
d="M217 371c62 0 123 -44 123 -104c0 -6 -6 -11 -10 -11c-9 0 -138 3 -162 3h-49c-2 0 -8 -6 -9 -9c-5 -10 -8 -27 -8 -51c0 -51 20 -91 46 -120c26 -30 66 -41 96 -41c41 0 71 9 95 32c8 7 12 5 12 1s-3 -9 -9 -16c-38 -43 -82 -66 -142 -66c-48 0 -89 19 -119 51
c-31 32 -48 80 -48 134c0 48 17 107 60 148c27 25 72 49 124 49zM207 357c-24 0 -47 -15 -68 -36c-12 -15 -21 -36 -21 -43c0 -2 2 -5 4 -5h121c23 0 25 12 25 21c0 14 -3 31 -14 44c-9 9 -25 19 -47 19zM159 577c4 0 9 -3 12 -9c2 -7 48 -128 54 -141c2 -7 2 -15 -1 -15
c-5 0 -9 6 -14 12c-4 7 -52 84 -79 131c-8 12 -4 15 -1 17c3 3 18 5 29 5z" />
    <glyph glyph-name="iacute" unicode="&#xed;" horiz-adv-x="206" 
d="M35 333c0 3 3 6 12 8c32 8 54 17 79 27c8 4 12 7 15 7s5 -3 4 -14c-2 -20 -2 -79 -2 -138c0 -90 0 -166 2 -182c2 -20 11 -26 27 -30c11 -2 15 -4 15 -8c0 -5 -8 -7 -16 -7c-11 0 -44 4 -75 4c-35 0 -54 -2 -65 -2c-7 0 -14 2 -14 6s5 7 19 10c22 5 32 15 32 54
c1 30 3 210 3 220c0 15 -1 21 -28 37c-5 2 -8 6 -8 8zM199 574c7 0 8 -3 8 -6c0 -2 -1 -7 -3 -10c-22 -35 -66 -100 -95 -141c-5 -8 -12 -11 -14 -11c-3 0 -4 4 0 13c1 3 62 135 64 138c6 6 26 16 40 17z" />
    <glyph glyph-name="icircumflex" unicode="&#xee;" horiz-adv-x="206" 
d="M35 333c0 3 3 6 12 8c32 8 54 17 79 27c8 4 12 7 15 7s5 -3 4 -14c-2 -20 -2 -79 -2 -138c0 -90 0 -166 2 -182c2 -20 11 -26 27 -30c11 -2 15 -4 15 -8c0 -5 -8 -7 -16 -7c-11 0 -44 4 -75 4c-35 0 -54 -2 -65 -2c-7 0 -14 2 -14 6s5 7 19 10c22 5 32 15 32 54
c1 30 3 210 3 220c0 15 -1 21 -28 37c-5 2 -8 6 -8 8zM108 570c2 0 6 -5 9 -11l60 -138c4 -9 3 -16 -1 -16s-12 11 -17 18c-8 12 -33 50 -52 85c-2 3 -3 5 -8 -2c-9 -12 -36 -54 -60 -86c-2 -3 -8 -9 -12 -9c-3 0 -2 9 2 15c5 11 49 95 57 112l15 25c2 3 4 7 7 7z" />
    <glyph glyph-name="idieresis" unicode="&#xef;" horiz-adv-x="206" 
d="M35 333c0 3 3 6 12 8c32 8 54 17 79 27c8 4 12 7 15 7s5 -3 4 -14c-2 -20 -2 -79 -2 -138c0 -90 0 -166 2 -182c2 -20 11 -26 27 -30c11 -2 15 -4 15 -8c0 -5 -8 -7 -16 -7c-11 0 -44 4 -75 4c-35 0 -54 -2 -65 -2c-7 0 -14 2 -14 6s5 7 19 10c22 5 32 15 32 54
c1 30 3 210 3 220c0 15 -1 21 -28 37c-5 2 -8 6 -8 8zM36 536c18 0 33 -16 33 -33c0 -26 -20 -38 -38 -38c-12 0 -30 11 -30 33c0 21 15 38 35 38zM171 536c19 0 33 -17 33 -35c0 -21 -19 -36 -37 -36c-17 0 -32 15 -32 35c0 23 18 36 36 36z" />
    <glyph glyph-name="igrave" unicode="&#xec;" horiz-adv-x="206" 
d="M35 333c0 3 3 6 12 8c32 8 54 17 79 27c8 4 12 7 15 7s5 -3 4 -14c-2 -20 -2 -79 -2 -138c0 -90 0 -166 2 -182c2 -20 11 -26 27 -30c11 -2 15 -4 15 -8c0 -5 -8 -7 -16 -7c-11 0 -44 4 -75 4c-35 0 -54 -2 -65 -2c-7 0 -14 2 -14 6s5 7 19 10c22 5 32 15 32 54
c1 30 3 210 3 220c0 15 -1 21 -28 37c-5 2 -8 6 -8 8zM52 575c4 0 9 -3 12 -9c2 -7 48 -128 54 -141c2 -7 2 -15 -1 -15c-5 0 -9 6 -14 12c-4 7 -52 84 -79 131c-8 12 -4 15 -1 17c3 3 18 5 29 5z" />
    <glyph glyph-name="ntilde" unicode="&#xf1;" horiz-adv-x="446" 
d="M273 371c41 0 65 -19 79 -35c22 -23 31 -72 32 -129c0 -54 1 -63 1 -114c1 -67 4 -74 31 -80c9 -3 15 -6 15 -10c0 -6 -7 -7 -17 -7c-16 0 -46 4 -67 4c-40 0 -55 -4 -68 -4c-8 0 -16 2 -16 6s6 8 18 11c25 6 29 13 29 41v138c0 80 -7 104 -31 123c-15 12 -34 18 -55 18
c-25 0 -49 -10 -72 -29c-6 -6 -11 -20 -11 -28c0 -14 1 -64 1 -121c1 -65 3 -96 5 -110c3 -23 14 -28 31 -32c12 -4 16 -6 16 -11c0 -6 -10 -6 -19 -6s-60 4 -82 4c-14 0 -36 -2 -58 -2c-11 0 -18 2 -18 7s8 8 20 10c26 5 28 12 29 33c2 69 3 159 3 243c0 10 -2 21 -25 33
c-7 5 -8 7 -8 10s4 5 14 8c25 6 69 25 85 35c3 2 8 -2 8 -8c-1 -11 -3 -37 -2 -52c0 -2 3 -4 5 -2c24 18 47 34 67 43c21 10 42 13 60 13zM173 515c13 0 17 -1 31 -2c13 -1 50 -9 69 -9c20 0 34 5 50 26c5 7 10 10 13 10c2 0 4 -6 -1 -13l-39 -50c-5 -7 -16 -13 -21 -13
c-23 0 -81 13 -99 13c-20 0 -26 -4 -45 -28c-5 -4 -7 -6 -11 -6c-2 0 -3 2 2 15c6 12 24 35 36 48c6 6 12 9 15 9z" />
    <glyph glyph-name="oacute" unicode="&#xf3;" horiz-adv-x="453" 
d="M226 371c112 0 194 -84 194 -189c0 -77 -45 -131 -77 -156c-32 -24 -79 -38 -115 -38c-105 0 -195 82 -195 187c0 75 36 124 72 153c29 23 75 43 121 43zM212 354c-48 0 -99 -57 -99 -156c0 -44 9 -98 39 -140c26 -36 60 -53 89 -53c24 0 45 10 60 25c14 13 39 61 39 134
c0 100 -44 190 -128 190zM305 574c7 0 8 -3 8 -6c0 -2 -1 -7 -3 -10c-22 -35 -66 -100 -95 -141c-5 -8 -12 -11 -14 -11c-3 0 -4 4 0 13c1 3 62 135 64 138c6 6 26 16 40 17z" />
    <glyph glyph-name="ocircumflex" unicode="&#xf4;" horiz-adv-x="453" 
d="M226 371c112 0 194 -84 194 -189c0 -77 -45 -131 -77 -156c-32 -24 -79 -38 -115 -38c-105 0 -195 82 -195 187c0 75 36 124 72 153c29 23 75 43 121 43zM212 354c-48 0 -99 -57 -99 -156c0 -44 9 -98 39 -140c26 -36 60 -53 89 -53c24 0 45 10 60 25c14 13 39 61 39 134
c0 100 -44 190 -128 190zM231 569c2 0 6 -5 9 -11l60 -138c4 -9 3 -16 -1 -16s-12 11 -17 18c-8 12 -33 50 -52 85c-2 3 -3 5 -8 -2c-9 -12 -36 -54 -60 -86c-2 -3 -8 -9 -12 -9c-3 0 -2 9 2 15c5 11 49 95 57 112l15 25c2 3 4 7 7 7z" />
    <glyph glyph-name="odieresis" unicode="&#xf6;" horiz-adv-x="453" 
d="M226 371c112 0 194 -84 194 -189c0 -77 -45 -131 -77 -156c-32 -24 -79 -38 -115 -38c-105 0 -195 82 -195 187c0 75 36 124 72 153c29 23 75 43 121 43zM212 354c-48 0 -99 -57 -99 -156c0 -44 9 -98 39 -140c26 -36 60 -53 89 -53c24 0 45 10 60 25c14 13 39 61 39 134
c0 100 -44 190 -128 190zM159 536c18 0 33 -16 33 -33c0 -26 -20 -38 -38 -38c-12 0 -30 11 -30 33c0 21 15 38 35 38zM294 536c19 0 33 -17 33 -35c0 -21 -19 -36 -37 -36c-17 0 -32 15 -32 35c0 23 18 36 36 36z" />
    <glyph glyph-name="ograve" unicode="&#xf2;" horiz-adv-x="453" 
d="M226 371c112 0 194 -84 194 -189c0 -77 -45 -131 -77 -156c-32 -24 -79 -38 -115 -38c-105 0 -195 82 -195 187c0 75 36 124 72 153c29 23 75 43 121 43zM212 354c-48 0 -99 -57 -99 -156c0 -44 9 -98 39 -140c26 -36 60 -53 89 -53c24 0 45 10 60 25c14 13 39 61 39 134
c0 100 -44 190 -128 190zM176 576c4 0 9 -3 12 -9c2 -7 48 -128 54 -141c2 -7 2 -15 -1 -15c-5 0 -9 6 -14 12c-4 7 -52 84 -79 131c-8 12 -4 15 -1 17c3 3 18 5 29 5z" />
    <glyph glyph-name="otilde" unicode="&#xf5;" horiz-adv-x="453" 
d="M226 371c112 0 194 -84 194 -189c0 -77 -45 -131 -77 -156c-32 -24 -79 -38 -115 -38c-105 0 -195 82 -195 187c0 75 36 124 72 153c29 23 75 43 121 43zM212 354c-48 0 -99 -57 -99 -156c0 -44 9 -98 39 -140c26 -36 60 -53 89 -53c24 0 45 10 60 25c14 13 39 61 39 134
c0 100 -44 190 -128 190zM172 507c13 0 17 -1 31 -2c13 -1 50 -9 69 -9c20 0 34 5 50 26c5 7 10 10 13 10c2 0 4 -6 -1 -13l-39 -50c-5 -7 -16 -13 -21 -13c-23 0 -81 13 -99 13c-20 0 -26 -4 -45 -28c-5 -4 -7 -6 -11 -6c-2 0 -3 2 2 15c6 12 24 35 36 48c6 6 12 9 15 9z
" />
    <glyph glyph-name="scaron" unicode="&#x161;" horiz-adv-x="289" 
d="M164 355c-30 0 -60 -22 -60 -59c0 -42 37 -64 67 -82c64 -42 89 -68 89 -119c0 -43 -31 -71 -50 -83c-22 -16 -58 -24 -85 -24c-25 0 -51 6 -81 18c-7 3 -14 11 -15 16c0 14 -2 41 -3 52c-2 13 1 17 3 17c3 0 6 -1 13 -20c9 -24 24 -44 42 -55c16 -10 30 -13 46 -13
c28 0 64 26 64 65c0 35 -24 56 -67 84c-47 29 -82 69 -82 111c0 35 16 63 40 81c18 14 48 27 84 27c28 0 59 -7 71 -12c2 -1 5 -6 5 -9c1 -11 5 -30 6 -49c0 -11 -2 -16 -6 -16s-5 5 -8 13c-6 15 -10 29 -25 41c-12 10 -29 16 -48 16zM156 406c-2 0 -6 6 -9 12
c-7 14 -57 129 -60 137c-4 9 -4 16 1 16c4 0 11 -11 17 -19c7 -11 33 -49 52 -84c2 -2 5 -2 8 2c10 13 30 46 60 86c1 3 8 9 12 9c3 0 2 -8 -2 -15c-5 -11 -50 -95 -58 -111c-7 -14 -12 -23 -15 -27c-2 -3 -4 -6 -6 -6z" />
    <glyph glyph-name="uacute" unicode="&#xfa;" horiz-adv-x="434" 
d="M165 -9c-37 0 -63 8 -86 36c-13 17 -18 42 -18 63c-1 33 -1 200 -3 217c-1 18 -10 25 -22 33c-9 6 -12 9 -12 12c0 4 5 6 16 6c38 0 77 8 92 12c3 1 6 -5 5 -11c-3 -57 -4 -190 -3 -239c1 -42 9 -57 15 -65c13 -16 34 -24 55 -24c32 0 54 7 77 29c11 9 16 22 17 44
c2 28 3 70 3 103c0 15 -1 64 -2 90c-2 34 -10 39 -42 46c-11 2 -16 5 -16 8c0 5 9 7 15 7c13 0 28 -1 45 -1c41 0 60 7 72 7c3 0 4 -4 4 -11c-4 -44 -6 -152 -6 -260c0 -28 0 -42 2 -54c2 -9 5 -12 12 -11c10 3 33 8 40 9c7 0 12 -7 12 -11c0 -5 -10 -7 -20 -9
c-12 -1 -79 -13 -107 -27c-9 -4 -11 -3 -13 0s-2 8 -2 17c0 11 1 32 1 40c0 3 -1 9 -3 6c-21 -19 -50 -40 -68 -48c-19 -8 -41 -14 -60 -14zM302 573c7 0 8 -3 8 -6c0 -2 -1 -7 -3 -10c-22 -35 -66 -100 -95 -141c-5 -8 -12 -11 -14 -11c-3 0 -4 4 0 13c1 3 62 135 64 138
c6 6 26 16 40 17z" />
    <glyph glyph-name="ucircumflex" unicode="&#xfb;" horiz-adv-x="434" 
d="M165 -9c-37 0 -63 8 -86 36c-13 17 -18 42 -18 63c-1 33 -1 200 -3 217c-1 18 -10 25 -22 33c-9 6 -12 9 -12 12c0 4 5 6 16 6c38 0 77 8 92 12c3 1 6 -5 5 -11c-3 -57 -4 -190 -3 -239c1 -42 9 -57 15 -65c13 -16 34 -24 55 -24c32 0 54 7 77 29c11 9 16 22 17 44
c2 28 3 70 3 103c0 15 -1 64 -2 90c-2 34 -10 39 -42 46c-11 2 -16 5 -16 8c0 5 9 7 15 7c13 0 28 -1 45 -1c41 0 60 7 72 7c3 0 4 -4 4 -11c-4 -44 -6 -152 -6 -260c0 -28 0 -42 2 -54c2 -9 5 -12 12 -11c10 3 33 8 40 9c7 0 12 -7 12 -11c0 -5 -10 -7 -20 -9
c-12 -1 -79 -13 -107 -27c-9 -4 -11 -3 -13 0s-2 8 -2 17c0 11 1 32 1 40c0 3 -1 9 -3 6c-21 -19 -50 -40 -68 -48c-19 -8 -41 -14 -60 -14zM221 570c2 0 6 -5 9 -11l60 -138c4 -9 3 -16 -1 -16s-12 11 -17 18c-8 12 -33 50 -52 85c-2 3 -3 5 -8 -2c-9 -12 -36 -54 -60 -86
c-2 -3 -8 -9 -12 -9c-3 0 -2 9 2 15c5 11 49 95 57 112l15 25c2 3 4 7 7 7z" />
    <glyph glyph-name="udieresis" unicode="&#xfc;" horiz-adv-x="434" 
d="M165 -9c-37 0 -63 8 -86 36c-13 17 -18 42 -18 63c-1 33 -1 200 -3 217c-1 18 -10 25 -22 33c-9 6 -12 9 -12 12c0 4 5 6 16 6c38 0 77 8 92 12c3 1 6 -5 5 -11c-3 -57 -4 -190 -3 -239c1 -42 9 -57 15 -65c13 -16 34 -24 55 -24c32 0 54 7 77 29c11 9 16 22 17 44
c2 28 3 70 3 103c0 15 -1 64 -2 90c-2 34 -10 39 -42 46c-11 2 -16 5 -16 8c0 5 9 7 15 7c13 0 28 -1 45 -1c41 0 60 7 72 7c3 0 4 -4 4 -11c-4 -44 -6 -152 -6 -260c0 -28 0 -42 2 -54c2 -9 5 -12 12 -11c10 3 33 8 40 9c7 0 12 -7 12 -11c0 -5 -10 -7 -20 -9
c-12 -1 -79 -13 -107 -27c-9 -4 -11 -3 -13 0s-2 8 -2 17c0 11 1 32 1 40c0 3 -1 9 -3 6c-21 -19 -50 -40 -68 -48c-19 -8 -41 -14 -60 -14zM149 536c18 0 33 -16 33 -33c0 -26 -20 -38 -38 -38c-12 0 -30 11 -30 33c0 21 15 38 35 38zM284 536c19 0 33 -17 33 -35
c0 -21 -19 -36 -37 -36c-17 0 -32 15 -32 35c0 23 18 36 36 36z" />
    <glyph glyph-name="ugrave" unicode="&#xf9;" horiz-adv-x="434" 
d="M165 -9c-37 0 -63 8 -86 36c-13 17 -18 42 -18 63c-1 33 -1 200 -3 217c-1 18 -10 25 -22 33c-9 6 -12 9 -12 12c0 4 5 6 16 6c38 0 77 8 92 12c3 1 6 -5 5 -11c-3 -57 -4 -190 -3 -239c1 -42 9 -57 15 -65c13 -16 34 -24 55 -24c32 0 54 7 77 29c11 9 16 22 17 44
c2 28 3 70 3 103c0 15 -1 64 -2 90c-2 34 -10 39 -42 46c-11 2 -16 5 -16 8c0 5 9 7 15 7c13 0 28 -1 45 -1c41 0 60 7 72 7c3 0 4 -4 4 -11c-4 -44 -6 -152 -6 -260c0 -28 0 -42 2 -54c2 -9 5 -12 12 -11c10 3 33 8 40 9c7 0 12 -7 12 -11c0 -5 -10 -7 -20 -9
c-12 -1 -79 -13 -107 -27c-9 -4 -11 -3 -13 0s-2 8 -2 17c0 11 1 32 1 40c0 3 -1 9 -3 6c-21 -19 -50 -40 -68 -48c-19 -8 -41 -14 -60 -14zM159 576c4 0 9 -3 12 -9c2 -7 48 -128 54 -141c2 -7 2 -15 -1 -15c-5 0 -9 6 -14 12c-4 7 -52 84 -79 131c-8 12 -4 15 -1 17
c3 3 18 5 29 5z" />
    <glyph glyph-name="yacute" unicode="&#xfd;" horiz-adv-x="357" 
d="M76 359c14 0 41 2 57 2c10 1 17 -2 17 -6s-8 -8 -14 -9c-20 -6 -23 -12 -15 -34c14 -38 66 -165 86 -207c2 -5 4 -4 6 -1c16 39 66 170 74 194c4 11 5 24 5 28c0 7 -6 15 -24 20c-14 3 -18 7 -18 10s5 6 15 6c12 0 34 -3 49 -3c18 0 33 3 47 3c6 0 12 -1 12 -5
c0 -3 -5 -6 -13 -9c-21 -7 -31 -13 -48 -50c-13 -26 -73 -177 -90 -218l-43 -110c-24 -59 -59 -155 -75 -193c-8 -17 -12 -29 -20 -38c-9 -12 -22 -16 -32 -16c-19 0 -35 15 -35 34c0 17 14 32 30 32c6 0 14 -3 22 -3c11 0 19 3 25 17c10 21 37 97 71 184c4 11 3 21 0 30
c-16 40 -81 203 -126 301c-7 14 -19 24 -35 28c-13 3 -18 7 -18 9c0 6 8 7 15 7c24 0 47 -3 75 -3zM296 572c7 0 8 -3 8 -6c0 -2 -1 -7 -3 -10c-22 -35 -66 -100 -95 -141c-5 -8 -12 -11 -14 -11c-3 0 -4 4 0 13c1 3 62 135 64 138c6 6 26 16 40 17z" />
    <glyph glyph-name="ydieresis" unicode="&#xff;" horiz-adv-x="357" 
d="M76 359c14 0 41 2 57 2c10 1 17 -2 17 -6s-8 -8 -14 -9c-20 -6 -23 -12 -15 -34c14 -38 66 -165 86 -207c2 -5 4 -4 6 -1c16 39 66 170 74 194c4 11 5 24 5 28c0 7 -6 15 -24 20c-14 3 -18 7 -18 10s5 6 15 6c12 0 34 -3 49 -3c18 0 33 3 47 3c6 0 12 -1 12 -5
c0 -3 -5 -6 -13 -9c-21 -7 -31 -13 -48 -50c-13 -26 -73 -177 -90 -218l-43 -110c-24 -59 -59 -155 -75 -193c-8 -17 -12 -29 -20 -38c-9 -12 -22 -16 -32 -16c-19 0 -35 15 -35 34c0 17 14 32 30 32c6 0 14 -3 22 -3c11 0 19 3 25 17c10 21 37 97 71 184c4 11 3 21 0 30
c-16 40 -81 203 -126 301c-7 14 -19 24 -35 28c-13 3 -18 7 -18 9c0 6 8 7 15 7c24 0 47 -3 75 -3zM126 536c18 0 33 -16 33 -33c0 -26 -20 -38 -38 -38c-12 0 -30 11 -30 33c0 21 15 38 35 38zM261 536c19 0 33 -17 33 -35c0 -21 -19 -36 -37 -36c-17 0 -32 15 -32 35
c0 23 18 36 36 36z" />
    <glyph glyph-name="zcaron" unicode="&#x17e;" horiz-adv-x="350" 
d="M225 359c31 0 53 1 73 1c7 0 10 1 13 -2c2 -2 0 -8 -3 -12c-33 -38 -131 -222 -181 -314c-2 -4 -2 -9 2 -9c13 -2 60 -4 91 -4c40 0 55 4 68 12c10 7 29 31 36 42c6 9 11 15 15 15c6 0 4 -13 0 -26c-10 -28 -17 -46 -22 -56c-3 -6 -9 -8 -18 -8h-77c-36 0 -80 2 -112 2
c-42 0 -61 -1 -81 -3c-11 -1 -12 8 -4 17c9 12 41 64 66 105c28 45 105 177 121 212c2 5 1 8 -1 8c-35 0 -102 0 -121 -1c-19 0 -35 -9 -51 -36c-9 -14 -12 -17 -14 -17c-4 0 -6 8 -2 21c4 14 18 55 21 69c3 13 10 10 13 1c5 -9 14 -12 28 -14c30 -3 58 -3 140 -3zM175 404
c-2 0 -6 6 -9 12c-7 14 -57 129 -60 137c-4 9 -4 16 1 16c4 0 11 -11 17 -19c7 -11 33 -49 52 -84c2 -2 5 -2 8 2c10 13 30 46 60 86c1 3 8 9 12 9c3 0 2 -8 -2 -15c-5 -11 -50 -95 -58 -111c-7 -14 -12 -23 -15 -27c-2 -3 -4 -6 -6 -6z" />
    <glyph glyph-name="twodotenleader" unicode="&#x2025;" horiz-adv-x="500" 
d="M126 83c29 0 44 -25 44 -47c0 -32 -26 -48 -46 -48c-25 0 -44 23 -44 47c0 27 21 48 46 48zM377 83c28 0 43 -25 43 -47c0 -32 -26 -48 -45 -48c-26 0 -45 23 -45 47c0 27 21 48 47 48z" />
    <glyph glyph-name="onedotenleader" unicode="&#x2024;" horiz-adv-x="500" 
d="M251 83c28 0 44 -25 44 -47c0 -32 -26 -48 -46 -48c-25 0 -45 23 -45 47c0 27 22 48 47 48z" />
    <glyph glyph-name="emdash.alt" horiz-adv-x="622" 
d="M49 211h529c3 0 7 -2 7 -5c0 -6 -2 -17 -5 -22c-2 -3 -8 -4 -10 -4l-518 -2c-6 0 -17 1 -17 6c0 3 1 16 5 22c2 3 7 5 9 5z" />
    <glyph glyph-name="colonmonetary" unicode="&#x20a1;" horiz-adv-x="420" 
d="M387 529v-44c0 -19 -7 -21 -8 -21c-3 0 -6 3 -7 17c-7 38 -25 69 -52 85c-1 0 -4 -1 -4 -2c-5 -61 -45 -469 -50 -530c0 -3 2 -5 4 -5c55 5 85 30 102 82c6 15 9 19 12 19c4 0 6 -7 4 -16c-3 -13 -12 -53 -17 -67c-1 -7 -8 -14 -12 -16c-15 -8 -54 -17 -92 -21
c-2 0 -4 -2 -4 -5l-6 -50c-1 -4 -5 -12 -11 -12c-4 0 -7 9 -6 12l5 51c0 1 -1 4 -3 4c-10 0 -28 3 -39 5c-2 0 -4 -1 -4 -3l-8 -60c-1 -4 -7 -10 -10 -9c-5 0 -7 7 -7 10l7 63c0 3 -1 6 -2 6c-76 34 -146 107 -146 275c0 154 88 269 202 290c2 1 4 3 4 5l5 44
c1 7 6 14 10 14c5 0 6 -8 6 -12l-4 -43c0 -2 1 -3 3 -3c11 1 29 0 39 -1c2 0 4 2 4 5l6 40c1 10 6 15 9 15c6 0 7 -6 7 -11l-4 -49c0 -3 1 -6 3 -6c19 -6 39 -17 57 -21c4 -2 7 -14 7 -35zM186 62l50 506c0 1 -1 3 -4 2c-78 -30 -119 -159 -119 -269c0 -125 30 -202 69 -240
c3 -3 4 -2 4 1zM248 35l50 534c0 3 0 6 -3 6c-9 2 -25 4 -38 1c-2 -1 -3 -4 -3 -5l-51 -524c0 -2 1 -6 3 -7c10 -6 26 -10 38 -11c1 0 4 4 4 6z" />
    <glyph glyph-name="R_p" unicode="&#xf6dd;" horiz-adv-x="828" 
d="M548 -3v-127c0 -39 1 -62 6 -71c6 -14 19 -19 44 -26c5 -2 11 -5 11 -9s-5 -7 -17 -7c-14 0 -60 3 -90 3c-29 0 -54 -5 -65 -5c-12 0 -17 2 -17 6s5 7 20 11c26 8 31 13 33 42c1 9 3 35 4 131v38c0 5 -2 6 -4 6c-1 0 -5 -1 -11 -1c-45 0 -94 8 -127 55
c-35 47 -88 172 -106 202c-6 12 -17 21 -27 25c-5 2 -20 4 -36 4c-2 0 -3 -6 -3 -10v-86c0 -38 1 -75 1 -103c1 -42 6 -56 42 -63c10 -1 18 -6 18 -10c0 -5 -8 -7 -18 -7c-16 0 -43 4 -84 4c-33 0 -63 -6 -79 -6c-9 0 -18 2 -18 7c0 4 7 7 19 10c26 6 36 18 38 50
c3 52 5 117 5 247c0 123 0 173 -1 199c-1 31 -17 38 -43 42c-8 2 -16 4 -16 10c0 4 8 6 18 6c12 0 45 -2 76 -2c41 0 66 4 97 4c58 0 94 -11 121 -30c39 -28 53 -69 53 -106c0 -75 -49 -114 -92 -135c-3 -1 -3 -5 0 -11c22 -51 69 -159 98 -205c35 -55 54 -67 75 -74
c2 0 4 1 4 4v227c0 40 -3 44 -21 55c-5 3 -9 6 -9 9c0 5 3 8 11 11c16 6 53 20 76 35c4 4 8 6 12 6c3 0 4 -3 4 -8c0 -6 -1 -35 -1 -43c0 -4 3 -4 5 -2c32 21 65 43 104 43c80 0 131 -76 131 -154c0 -99 -63 -153 -120 -180c-28 -14 -54 -18 -72 -18c-17 0 -32 3 -45 9
c-2 1 -4 3 -4 -2zM609 302c-18 0 -42 -10 -57 -21c-3 -1 -5 -8 -5 -16c0 -15 1 -148 1 -184c0 -9 1 -17 5 -24c19 -32 56 -42 83 -42c14 0 27 5 43 19c22 19 41 56 41 122c0 68 -40 147 -111 146zM194 549c-8 0 -18 -3 -21 -6s-6 -6 -7 -22c-2 -19 -3 -201 -3 -217
c0 -7 4 -14 6 -14c7 -2 14 -2 31 -2c35 0 54 5 75 21s36 53 36 102c0 46 -11 85 -34 106c-24 23 -45 32 -83 32z" />
    <glyph glyph-name="figuredash" unicode="&#x2012;" horiz-adv-x="234" 
d="M45 307c7 1 133 16 154 17c2 0 5 -3 5 -6c0 -4 -1 -19 -6 -28c-1 -2 -8 -5 -9 -5c-10 -3 -140 -13 -149 -13c-7 0 -9 2 -9 7c0 3 1 15 5 22c2 3 5 5 9 6z" />
    <glyph glyph-name="oneeighth" unicode="&#x215b;" horiz-adv-x="437" 
d="M54 533c0 2 4 5 10 6c26 6 56 13 70 22c2 1 5 -1 5 -5c0 -2 -2 -18 -3 -60c-1 -39 -1 -93 -1 -122c1 -41 4 -48 29 -54c8 -2 12 -3 12 -6s-5 -5 -12 -5c-14 0 -38 3 -54 3c-24 0 -39 -3 -54 -3c-9 0 -12 1 -12 4c0 2 2 4 13 7c24 6 29 11 30 31c1 21 3 57 3 103
c0 27 0 50 -1 60c0 5 -2 8 -6 10c-6 2 -13 3 -18 4c-6 1 -11 3 -11 5zM374 567c6 0 4 -10 -1 -17c-96 -160 -201 -333 -290 -482c-4 -6 -15 -11 -17 -8c-3 4 2 13 8 21c86 145 194 324 280 466c10 17 15 20 20 20zM330 336c41 0 73 -26 73 -60c0 -27 -20 -41 -44 -54
c-2 0 -2 -2 0 -4c35 -22 50 -43 50 -67c0 -44 -40 -70 -83 -70c-49 0 -78 31 -78 61c0 23 19 40 50 57c1 1 1 3 0 3c-22 16 -43 37 -43 66c0 42 37 68 75 68zM330 326c-24 0 -38 -15 -38 -41c0 -24 25 -44 54 -59c2 -2 3 -1 6 1c9 6 19 26 19 49c0 22 -15 50 -41 50zM332 90
c19 0 36 16 36 39c0 24 -19 44 -56 64c-3 2 -6 1 -8 -1c-13 -8 -20 -26 -20 -48c0 -26 20 -54 48 -54z" />
    <glyph glyph-name="threeeighths" unicode="&#x215c;" horiz-adv-x="412" 
d="M105 561c35 0 54 -25 54 -46c0 -25 -19 -41 -42 -53c-2 -1 -3 -4 0 -4c49 -5 66 -32 66 -61c0 -34 -28 -65 -70 -86c-19 -8 -38 -12 -52 -12c-19 0 -39 11 -39 23c0 4 8 16 14 17c2 0 8 0 11 -2c13 -13 27 -20 46 -20c24 0 47 19 47 58c0 38 -26 55 -50 55
c-11 0 -24 -5 -30 -6c-1 -1 -5 -1 -5 1s1 4 5 7c5 4 8 6 15 10c35 20 44 36 44 54c0 20 -13 37 -35 37c-16 0 -29 -7 -41 -19c-5 -5 -7 -6 -8 -6c-2 0 -2 6 0 9c10 17 34 44 70 44zM350 567c6 0 4 -10 -1 -17c-96 -160 -201 -333 -290 -482c-4 -6 -15 -11 -17 -8
c-3 4 2 13 8 21c86 145 194 324 280 466c10 17 15 20 20 20zM305 336c41 0 73 -26 73 -60c0 -27 -20 -41 -44 -54c-2 0 -2 -2 0 -4c35 -22 50 -43 50 -67c0 -44 -40 -70 -83 -70c-49 0 -78 31 -78 61c0 23 19 40 50 57c1 1 1 3 0 3c-22 16 -43 37 -43 66c0 42 37 68 75 68z
M305 326c-24 0 -38 -15 -38 -41c0 -24 25 -44 54 -59c2 -2 3 -1 6 1c9 6 19 26 19 49c0 22 -15 50 -41 50zM307 90c19 0 36 16 36 39c0 24 -19 44 -56 64c-3 2 -6 1 -8 -1c-13 -8 -20 -26 -20 -48c0 -26 20 -54 48 -54z" />
    <glyph glyph-name="fiveeighths" unicode="&#x215d;" horiz-adv-x="418" 
d="M184 393c0 -62 -70 -95 -130 -95c-5 0 -17 2 -17 6c0 2 3 5 10 5c48 4 94 26 94 71c0 35 -58 55 -101 63c-4 0 -6 6 -6 12c0 15 13 64 22 80c3 5 7 9 12 11c11 5 65 16 95 16c1 0 3 -2 3 -4c0 -13 -15 -38 -25 -41c-21 -3 -56 -5 -70 -6c-9 -1 -11 -2 -14 -6
c-3 -5 -5 -11 -5 -15c0 -2 4 -6 15 -8c56 -11 117 -33 117 -89zM354 567c6 0 4 -10 -1 -17c-96 -160 -201 -333 -290 -482c-4 -6 -15 -11 -17 -8c-3 4 2 13 8 21c86 145 194 324 280 466c10 17 15 20 20 20zM311 336c41 0 73 -26 73 -60c0 -27 -20 -41 -44 -54
c-2 0 -2 -2 0 -4c35 -22 50 -43 50 -67c0 -44 -40 -70 -83 -70c-49 0 -78 31 -78 61c0 23 19 40 50 57c1 1 1 3 0 3c-22 16 -43 37 -43 66c0 42 37 68 75 68zM311 326c-24 0 -38 -15 -38 -41c0 -24 25 -44 54 -59c2 -2 3 -1 6 1c9 6 19 26 19 49c0 22 -15 50 -41 50zM313 90
c19 0 36 16 36 39c0 24 -19 44 -56 64c-3 2 -6 1 -8 -1c-13 -8 -20 -26 -20 -48c0 -26 20 -54 48 -54z" />
    <glyph glyph-name="seveneighths" unicode="&#x215e;" horiz-adv-x="398" 
d="M291 336c41 0 73 -26 73 -60c0 -27 -20 -41 -44 -54c-2 0 -2 -2 0 -4c35 -22 50 -43 50 -67c0 -44 -40 -70 -83 -70c-49 0 -78 31 -78 61c0 23 19 40 50 57c1 1 1 3 0 3c-22 16 -43 37 -43 66c0 42 37 68 75 68zM109 554c62 0 83 2 87 2c3 0 3 -6 2 -7
c-8 -14 -52 -100 -85 -164l-43 -82c-1 -1 -4 -5 -7 -5c-6 0 -8 3 -8 6s6 13 9 20c36 64 75 136 98 181c2 4 1 6 -2 6c-7 1 -30 2 -44 2c-24 0 -50 -1 -63 -2c-13 -2 -16 -7 -24 -20c-5 -6 -7 -8 -11 -8c-2 0 -2 6 0 13c3 12 12 38 17 57c0 1 2 4 4 4c10 -2 36 -3 70 -3z
M314 567c6 0 4 -10 -1 -17c-96 -160 -201 -333 -290 -482c-4 -6 -15 -11 -17 -8c-3 4 2 13 8 21c86 145 194 324 280 466c10 17 15 20 20 20zM293 90c19 0 36 16 36 39c0 24 -19 44 -56 64c-3 2 -6 1 -8 -1c-13 -8 -20 -26 -20 -48c0 -26 20 -54 48 -54zM291 326
c-24 0 -38 -15 -38 -41c0 -24 25 -44 54 -59c2 -2 3 -1 6 1c9 6 19 26 19 49c0 22 -15 50 -41 50z" />
    <glyph glyph-name="onethird" unicode="&#x2153;" horiz-adv-x="444" 
d="M54 533c0 2 4 5 10 6c26 6 56 13 70 22c2 1 5 -1 5 -5c0 -2 -2 -18 -3 -60c-1 -39 -1 -93 -1 -122c1 -41 4 -48 29 -54c8 -2 12 -3 12 -6s-5 -5 -12 -5c-14 0 -38 3 -54 3c-24 0 -39 -3 -54 -3c-9 0 -12 1 -12 4c0 2 2 4 13 7c24 6 29 11 30 31c1 21 3 57 3 103
c0 27 0 50 -1 60c0 5 -2 8 -6 10c-6 2 -13 3 -18 4c-6 1 -11 3 -11 5zM375 567c6 0 4 -10 -1 -17c-96 -160 -201 -333 -290 -482c-4 -6 -15 -11 -17 -8c-3 4 2 13 8 21c86 145 194 324 280 466c10 17 15 20 20 20zM332 335c35 0 54 -25 54 -46c0 -25 -19 -41 -42 -53
c-2 -1 -3 -4 0 -4c49 -5 66 -32 66 -61c0 -34 -28 -65 -70 -86c-19 -8 -38 -12 -52 -12c-19 0 -39 11 -39 23c0 4 8 16 14 17c2 0 8 0 11 -2c13 -13 27 -20 46 -20c24 0 47 19 47 58c0 38 -26 55 -50 55c-11 0 -24 -5 -30 -6c-1 -1 -5 -1 -5 1s1 4 5 7c5 4 8 6 15 10
c35 20 44 36 44 54c0 20 -13 37 -35 37c-16 0 -29 -7 -41 -19c-5 -5 -7 -6 -8 -6c-2 0 -2 6 0 9c10 17 34 44 70 44z" />
    <glyph glyph-name="twothirds" unicode="&#x2154;" horiz-adv-x="449" 
d="M102 561c39 0 67 -29 67 -69c0 -22 -8 -43 -34 -70c-23 -26 -46 -48 -69 -70c-2 -2 -1 -3 1 -3c22 -1 89 1 96 1c8 1 12 3 26 22c4 4 6 6 9 6s2 -8 -1 -14c-6 -20 -15 -46 -15 -50c0 -3 -2 -4 -4 -4c-10 0 -62 3 -98 2h-47c-9 0 -13 1 -13 4s2 7 5 11c14 13 30 27 50 49
c29 30 49 66 49 101c0 32 -23 49 -45 49c-19 0 -37 -11 -48 -24c-5 -5 -7 -5 -8 -4c-3 2 1 11 4 16c17 26 43 47 75 47zM384 567c6 0 4 -10 -1 -17c-96 -160 -201 -333 -290 -482c-4 -6 -15 -11 -17 -8c-3 4 2 13 8 21c86 145 194 324 280 466c10 17 15 20 20 20zM337 335
c35 0 54 -25 54 -46c0 -25 -19 -41 -42 -53c-2 -1 -3 -4 0 -4c49 -5 66 -32 66 -61c0 -34 -28 -65 -70 -86c-19 -8 -38 -12 -52 -12c-19 0 -39 11 -39 23c0 4 8 16 14 17c2 0 8 0 11 -2c13 -13 27 -20 46 -20c24 0 47 19 47 58c0 38 -26 55 -50 55c-11 0 -24 -5 -30 -6
c-1 -1 -5 -1 -5 1s1 4 5 7c5 4 8 6 15 10c35 20 44 36 44 54c0 20 -13 37 -35 37c-16 0 -29 -7 -41 -19c-5 -5 -7 -6 -8 -6c-2 0 -2 6 0 9c10 17 34 44 70 44z" />
    <glyph glyph-name="zero.slash" unicode="&#xf638;" horiz-adv-x="420" 
d="M219 3c18 0 39 6 55 47c16 39 32 117 32 230c0 70 -7 142 -19 194c-1 2 -1 2 -2 0c-42 -114 -97 -275 -138 -385c-1 -3 0 -8 0 -11c16 -50 42 -75 72 -75zM141 117l136 385c1 5 0 8 0 11c-16 46 -41 72 -70 72c-16 0 -33 -9 -45 -28c-24 -37 -46 -104 -46 -237
c0 -68 6 -147 21 -203c0 -2 2 -4 4 0zM216 600c128 0 170 -181 170 -296c0 -174 -51 -259 -100 -293c-21 -15 -46 -24 -74 -24c-129 0 -177 178 -177 297c0 154 39 253 117 300c19 11 40 16 64 16z" />
    <glyph glyph-name="Euro" unicode="&#x20ac;" horiz-adv-x="420" 
d="M299 330l-155 1c-3 0 -6 -3 -6 -6c0 -14 -1 -36 1 -43c1 -2 2 -4 5 -4l148 1c12 0 17 -2 18 -5c0 -13 -14 -16 -29 -16l-136 2c-2 0 -4 -3 -4 -6c1 -125 50 -243 139 -243c46 0 81 32 106 91c5 12 6 12 11 12c4 0 3 -4 3 -14c0 -16 -12 -52 -19 -68
c-6 -11 -10 -12 -25 -20c-14 -8 -55 -19 -92 -19c-119 0 -197 101 -208 262c0 4 -2 5 -4 5l-38 1c-7 0 -9 2 -9 6c0 5 10 9 14 10h31c3 0 4 3 4 5c0 10 1 34 1 44c1 3 0 6 -4 6l-19 1c-9 0 -11 5 -11 9c0 5 8 6 14 6h20c2 0 5 2 5 4c9 82 68 248 224 248c21 0 39 -2 58 -8
c15 -4 28 -10 41 -13c6 -1 10 -16 10 -25v-52c0 -17 -3 -24 -7 -24s-6 7 -9 21c-6 25 -14 45 -33 65c-12 10 -33 22 -60 22c-78 0 -128 -101 -143 -231c0 -3 0 -6 4 -6l164 2c14 0 20 -3 20 -5c0 -13 -18 -16 -30 -16z" />
    <glyph glyph-name="franc" unicode="&#x20a3;" horiz-adv-x="420" 
d="M179 298v-103c0 -5 3 -9 5 -9h61c6 0 15 -2 15 -6c0 -5 -7 -10 -17 -10l-59 -1c-3 0 -5 -3 -5 -7v-78c0 -60 13 -66 42 -72c12 -3 19 -6 19 -10c0 -5 -8 -6 -22 -6c-25 0 -43 4 -80 4c-38 0 -55 -4 -81 -4c-12 0 -18 1 -18 6s9 7 21 10c24 5 32 9 36 55c1 13 1 55 1 93
c0 3 -1 9 -4 9l-35 1c-7 0 -16 1 -16 5c0 8 14 11 18 11h35c2 0 4 3 4 7c0 41 1 109 1 176c0 94 0 133 -2 159c-2 34 -2 42 -38 50c-12 3 -20 5 -20 10c0 4 2 5 17 5c39 0 88 -5 146 -5h49c55 0 115 2 124 4c4 0 8 -6 9 -13c1 -14 3 -53 3 -69c0 -10 -1 -20 -6 -20
c-7 0 -7 9 -12 24c-13 41 -26 52 -67 54c-28 2 -91 3 -112 2c-6 -1 -9 -10 -10 -20c-1 -24 -2 -186 -2 -221c0 -6 3 -8 6 -8c65 0 85 1 105 4c31 4 33 16 41 39c4 11 6 16 10 16s5 -10 5 -17c0 -11 -3 -36 -3 -54c0 -28 2 -38 2 -48c0 -8 -2 -17 -7 -17c-3 0 -6 7 -9 19
c-8 28 -15 34 -28 37c-17 3 -58 4 -118 4c-2 0 -4 -3 -4 -6z" />
    <glyph glyph-name="lira" unicode="&#x20a4;" horiz-adv-x="427" 
d="M293 266l-97 -7c-3 0 -6 -5 -7 -10c-21 -67 -38 -112 -80 -154c-3 -4 -2 -6 0 -6c32 2 64 -9 101 -27c52 -26 91 -45 117 -45c41 0 56 25 56 59c1 12 0 29 -6 50c-1 6 2 11 6 11c16 0 32 -7 32 -38c-2 -69 -91 -134 -151 -134c-49 0 -86 28 -136 65c-22 16 -36 27 -43 27
c-4 0 -9 -1 -15 -7c-24 -28 -53 -62 -62 -62c-5 0 -12 4 -11 14c0 24 36 57 64 73c6 3 9 5 14 10c15 18 27 63 35 162c0 3 -2 7 -4 7l-51 -2c-3 -1 -11 0 -11 5s11 10 13 11l52 4c2 0 5 4 5 7l3 29c0 3 -1 6 -3 6l-47 -1c-3 -1 -13 0 -12 5c0 5 12 10 14 11l46 3
c2 0 4 3 4 6c5 32 10 66 16 89c15 56 41 107 83 140c23 17 55 31 95 31c53 0 86 -34 85 -69c-1 -30 -19 -46 -36 -46c-4 -1 -9 2 -8 6c2 8 2 22 2 29c0 32 -17 67 -53 67c-46 0 -82 -64 -101 -240c0 -4 0 -8 3 -8l106 6c3 0 12 0 12 -6c0 -4 -11 -10 -14 -10l-106 -8
c-2 0 -4 -3 -4 -6c-2 -8 -3 -23 -4 -31c0 -4 1 -5 3 -5l97 5c3 0 12 0 11 -6c0 -4 -10 -9 -13 -10z" />
    <glyph glyph-name="peseta" unicode="&#x20a7;" horiz-adv-x="420" 
d="M66 330v77c0 2 -1 7 -4 7l-29 1c-5 0 -15 1 -15 6c0 7 11 10 16 10h29c2 0 3 3 3 5c0 63 -1 95 -2 105c0 17 -4 26 -35 30c-8 1 -16 3 -16 8s10 6 18 6l63 3c34 3 61 5 83 5c69 0 118 -16 152 -50c32 -33 43 -77 44 -108c0 -4 3 -4 3 -4h19c6 0 13 -1 13 -5
c0 -9 -14 -12 -19 -12h-13c-2 0 -4 -3 -4 -5c-7 -63 -39 -101 -66 -120c-33 -23 -69 -29 -97 -29c-11 0 -23 2 -28 4c-6 0 -10 4 -10 7s4 4 10 4h12c30 0 91 30 99 133c0 3 0 6 -3 6h-142c-2 0 -3 -3 -3 -6c-1 -52 -1 -96 -1 -136c0 -97 2 -189 4 -213c2 -35 10 -43 37 -48
c13 -3 19 -5 19 -10c0 -6 -7 -6 -16 -6c-15 0 -50 5 -90 5c-30 0 -69 -3 -79 -3c-5 0 -13 2 -13 7c0 4 4 6 14 8c28 5 38 11 42 41c3 23 5 135 5 277zM148 431h141c3 0 4 1 4 6c-2 35 -11 71 -37 101c-22 28 -54 41 -81 41c-12 0 -17 -3 -22 -4c-3 -2 -6 -8 -7 -17
c0 -9 -1 -61 -2 -121c0 -3 1 -6 4 -6z" />
    <glyph glyph-name="percent.alt" horiz-adv-x="370" 
d="M276 241c26 1 28 51 28 76c0 24 -5 84 -35 84c-25 0 -28 -49 -28 -75c0 -25 8 -86 35 -85zM272 232c-48 0 -71 47 -71 85c0 22 4 44 18 63c13 19 33 31 57 31c49 0 69 -51 69 -85c0 -26 -6 -48 -17 -64c-14 -20 -34 -30 -56 -30zM303 565c5 0 2 -8 -1 -13
c-79 -115 -139 -206 -215 -313c-3 -6 -14 -9 -15 -7c-3 3 1 10 4 16c75 105 138 201 208 303c8 13 15 14 19 14zM101 388c25 1 28 51 28 75c0 25 -6 85 -35 85c-25 0 -28 -49 -28 -75s8 -87 35 -85zM96 379c-48 0 -71 47 -71 85c0 23 6 44 18 62c14 20 32 31 57 31
c48 0 69 -51 69 -85c0 -27 -6 -48 -17 -64c-15 -20 -37 -29 -56 -29z" />
    <glyph glyph-name="uni2116" unicode="&#x2116;" horiz-adv-x="761" 
d="M458 601c17 0 28 -9 34 -23c2 -4 0 -10 -8 -10c-45 0 -69 -35 -69 -158v-258c0 -108 -1 -167 -17 -167c-7 0 -19 7 -59 84c-63 123 -124 256 -196 401c-3 7 -9 9 -9 0c0 -102 -1 -222 -1 -324c0 -140 -44 -162 -72 -162c-25 0 -40 22 -40 42c0 5 4 12 8 11s15 -3 23 -3
c37 0 55 34 59 156c1 43 5 165 4 293c-1 44 -7 76 -36 85l-43 11c-11 3 -13 4 -13 8s7 6 21 6c21 0 58 -4 105 -4c6 0 13 -4 18 -12c12 -15 21 -35 48 -88c47 -92 129 -263 175 -349c2 -4 6 -7 6 0c1 37 -5 272 -5 323c-1 129 45 138 67 138zM602 262
c-81 0 -122 75 -122 141c0 104 65 146 121 146c69 0 117 -57 117 -145c0 -93 -58 -142 -116 -142zM609 277c25 0 49 40 49 116c0 68 -23 143 -63 143c-33 0 -53 -52 -53 -118c0 -47 16 -141 67 -141zM519 214l179 20c4 1 6 -1 6 -4c0 -6 -1 -24 -12 -24l-174 -19
c-4 0 -9 1 -9 5c0 7 2 21 10 22z" />
    <glyph glyph-name="estimated" unicode="&#x212e;" horiz-adv-x="792" 
d="M759 307h-587c-3 0 -5 -1 -5 -4v-178c0 -8 4 -14 9 -20c55 -59 134 -96 222 -96c93 0 176 41 233 107h53c-66 -76 -171 -127 -287 -127c-200 0 -363 146 -363 326c0 181 163 326 363 326s362 -145 362 -326v-8zM627 330v178c0 9 -4 16 -10 22c-56 56 -134 92 -219 92
c-88 0 -165 -37 -221 -95c-6 -6 -10 -14 -10 -23v-174c0 -3 2 -5 5 -5h450c3 0 5 2 5 5z" />
    <glyph glyph-name="estimated.alt" horiz-adv-x="548" 
d="M305 601c125 0 207 -79 207 -189c0 -11 -13 -24 -26 -24c-16 0 -270 0 -349 1c-6 0 -10 -3 -12 -9c-5 -12 -7 -55 -7 -75c0 -154 90 -264 224 -264c71 0 122 31 151 65c5 6 10 9 10 1c0 -6 -3 -14 -6 -18c-42 -57 -114 -101 -204 -101c-161 0 -253 138 -253 297
c0 91 30 190 109 257c49 42 108 59 156 59zM298 585c-90 0 -147 -83 -165 -164c-2 -6 -1 -12 6 -13c44 -2 132 -1 218 1c55 2 75 3 75 46c0 74 -61 130 -134 130z" />
    <glyph glyph-name="Q.alt" horiz-adv-x="741" 
d="M367 643c108 0 166 -40 217 -82c66 -55 112 -161 112 -250c0 -114 -46 -182 -87 -225c-34 -35 -72 -60 -108 -76c-9 -3 -14 -7 -14 -11s2 -8 10 -15c71 -48 215 -126 375 -185c108 -40 205 -63 329 -63c59 0 119 15 166 40c8 5 16 4 16 0c0 -7 -11 -15 -15 -18
c-61 -38 -144 -65 -257 -65c-139 0 -276 38 -436 108c-89 41 -185 93 -310 167c-20 12 -43 20 -59 25c-38 14 -98 31 -150 77c-46 41 -111 124 -111 249c0 77 24 147 67 200c48 58 136 124 255 124zM361 627c-42 0 -86 -13 -129 -51c-67 -60 -94 -176 -92 -265
c2 -107 48 -187 84 -230c54 -64 127 -84 172 -84c29 0 64 12 98 34c46 30 106 143 106 266c0 85 -24 165 -60 218c-38 63 -96 112 -179 112z" />
    <glyph glyph-name="W.alt" horiz-adv-x="969" 
d="M13 621c0 4 5 8 19 8c25 0 68 -4 97 -4c21 0 66 3 89 3c14 0 19 -2 19 -7s-8 -9 -17 -11c-26 -5 -44 -13 -36 -35c10 -34 144 -406 156 -428c2 -5 4 -4 8 4c36 100 70 197 112 325c3 12 4 23 2 29c-6 21 -24 69 -32 81c-10 14 -21 20 -45 27c-8 2 -15 5 -15 9
c0 3 8 7 19 7c15 0 72 -4 98 -4c27 0 64 3 80 3c11 0 18 -2 18 -6c0 -5 -7 -9 -17 -11c-33 -9 -40 -15 -37 -37c2 -15 19 -62 28 -88c24 -70 105 -280 128 -341c5 -10 7 -8 10 1c27 74 83 243 114 339c11 34 22 76 22 89c0 17 -4 27 -40 37c-17 4 -22 7 -22 12c0 3 4 6 17 6
c24 0 50 -4 69 -4c27 0 57 4 75 4c14 0 19 0 20 -6c0 -4 -5 -7 -24 -13c-37 -11 -51 -21 -76 -89c-25 -66 -94 -259 -130 -371c-9 -30 -34 -104 -47 -149c-3 -12 -10 -21 -16 -21s-10 9 -21 41c-42 128 -115 319 -156 426c-2 7 -4 9 -7 -1c-50 -146 -120 -338 -133 -381
c-12 -37 -16 -56 -22 -70c-4 -11 -8 -15 -13 -15c-2 0 -8 5 -11 14c-48 158 -142 410 -187 526c-27 69 -38 84 -76 91c-12 2 -20 5 -20 10z" />
    <glyph glyph-name="a.end" horiz-adv-x="547" 
d="M106 -10c-42 0 -80 34 -80 87c0 42 38 57 47 60l121 44c13 5 18 14 18 17c2 12 3 33 3 46c0 43 -6 67 -25 82c-13 9 -26 13 -41 13c-18 0 -31 -6 -38 -10c-8 -6 -17 -18 -17 -48c0 -2 -2 -6 -5 -8c-10 -7 -35 -17 -45 -20c-7 -1 -13 3 -13 7c0 10 7 21 19 35
c22 25 52 44 76 57c23 12 45 19 61 19c39 0 68 -22 81 -51c13 -21 16 -49 16 -80c0 -39 -2 -116 -2 -142c0 -44 5 -56 29 -71c16 -9 51 -17 97 -17c49 0 83 6 83 51c0 9 -4 24 -5 28s3 11 7 15c2 3 25 25 31 25c9 0 12 -14 12 -28c0 -36 -38 -81 -67 -96
c-33 -17 -69 -24 -121 -24c-46 0 -77 5 -97 13c-24 9 -33 22 -40 39c-1 1 -3 2 -6 0c-34 -25 -70 -43 -99 -43zM157 30c8 0 30 4 41 14c4 4 8 13 10 23c2 16 4 58 4 97c0 3 -3 8 -5 6c-14 -4 -62 -24 -82 -34c-13 -6 -27 -19 -27 -45c0 -39 28 -61 59 -61z" />
    <glyph glyph-name="d.end" horiz-adv-x="605" 
d="M243 370c29 0 51 -4 63 -8c3 -1 6 4 6 9c1 18 0 187 -1 238c-1 8 -3 14 -6 18c-5 7 -15 12 -26 15c-7 3 -12 5 -12 9c0 3 6 6 14 7c38 6 82 20 91 24c6 3 10 6 13 6s7 -5 6 -18c-3 -30 -8 -378 -7 -452c0 -86 -1 -128 0 -154c1 -11 4 -21 13 -25c19 -10 44 -12 66 -12
c41 0 61 0 75 11c7 5 14 17 14 31c0 9 -7 25 -12 37c-2 3 8 18 15 25s22 18 27 18c9 0 13 -21 13 -34c0 -49 -40 -84 -62 -98c-24 -13 -57 -21 -90 -21c-36 0 -62 4 -84 4c-25 0 -38 -4 -43 -6c-7 -4 -11 0 -11 9c0 6 1 12 1 28c0 5 -1 7 -4 5c-41 -32 -82 -46 -113 -46
c-37 0 -72 12 -103 41c-29 26 -53 75 -53 133c0 85 47 141 90 169c31 21 76 37 120 37zM210 349c-20 0 -31 -5 -46 -16c-26 -21 -51 -68 -51 -141c0 -111 63 -166 118 -166c18 0 46 4 65 22c7 7 10 19 11 35c3 33 5 163 -1 198c-2 10 -8 24 -11 27c-23 27 -55 41 -85 41z
" />
    <glyph glyph-name="e.end" horiz-adv-x="593" 
d="M278 -32c-78 0 -172 25 -218 101c-17 30 -27 63 -27 109c0 80 49 147 102 174c23 12 45 19 70 19c46 0 74 -14 92 -30c21 -20 28 -48 28 -61c0 -8 -2 -14 -4 -17c-3 -3 -13 -4 -19 -4c-15 0 -43 1 -186 -1c-7 0 -11 -7 -12 -11c-1 -6 -5 -23 -5 -40
c0 -59 23 -106 53 -134c54 -49 130 -61 184 -61c136 0 175 38 197 64c12 14 13 31 11 43c-2 11 -8 23 -9 28c-1 4 -1 8 1 12c6 8 20 21 29 21c8 0 15 -17 15 -35c0 -41 -33 -82 -74 -112c-39 -29 -113 -65 -228 -65zM262 299c0 9 -5 24 -15 36c-15 15 -30 22 -53 22
c-25 0 -67 -33 -78 -74c-2 -6 0 -10 2 -10c17 0 102 2 113 3c10 0 18 2 23 6c6 3 8 10 8 17z" />
    <glyph glyph-name="h.end" horiz-adv-x="606" 
d="M347 -1c-38 0 -50 -3 -69 -3c-12 0 -18 3 -18 6c0 4 6 6 16 9c20 5 26 17 28 43c0 23 1 44 1 157c0 25 -2 67 -13 88c-14 22 -35 36 -68 36c-30 0 -62 -16 -78 -31c-10 -11 -12 -22 -12 -39c0 -119 3 -201 4 -223c3 -19 12 -26 33 -30c12 -2 21 -5 21 -9
c0 -3 -6 -7 -16 -7c-28 0 -58 4 -83 4c-34 0 -49 -4 -69 -4c-11 0 -16 2 -16 6s4 7 16 9c27 7 34 15 36 54s3 125 3 279c0 150 0 213 -1 251c-2 32 -10 35 -30 47c-4 3 -7 5 -7 8s6 6 17 9c31 9 58 15 80 26c6 3 9 4 11 4s6 -7 5 -21c0 -24 -4 -333 -3 -351c0 -2 3 -4 6 -1
c11 11 38 30 57 39c16 8 43 16 65 16c33 0 55 -11 70 -21c29 -20 43 -57 45 -111l3 -168c0 -17 4 -29 12 -35c11 -7 41 -10 63 -10c47 0 72 1 89 15c7 6 10 15 10 26c0 10 -8 29 -11 40c-2 9 7 22 13 28c7 7 19 18 23 18c11 0 15 -20 15 -33c0 -55 -42 -92 -65 -105
c-20 -11 -48 -19 -85 -19s-76 3 -98 3z" />
    <glyph glyph-name="m.end" horiz-adv-x="852" 
d="M270 368c44 0 77 -19 98 -61c1 -2 5 -3 7 -2c44 39 85 65 135 65c55 0 89 -34 101 -73c7 -20 12 -58 12 -95l4 -131c0 -17 4 -29 12 -35c11 -7 41 -10 63 -10c47 0 72 1 89 15c7 6 9 15 9 27c0 10 -7 29 -11 40c-2 5 6 19 14 26c7 7 19 19 23 19c11 0 15 -20 15 -33
c0 -55 -42 -92 -65 -105c-20 -11 -48 -19 -85 -19s-77 4 -97 3c-21 0 -56 -3 -65 -3c-13 0 -18 2 -18 6s6 7 15 9c15 4 23 13 25 40c1 120 -4 175 -8 205c-9 51 -34 75 -81 75c-33 0 -61 -19 -77 -35c-5 -4 -7 -16 -7 -32c3 -31 5 -183 7 -210c2 -28 5 -35 29 -41
c12 -3 16 -5 16 -9s-6 -7 -16 -7c-22 0 -49 3 -81 3c-23 0 -48 -3 -59 -3c-12 0 -16 2 -16 6c0 3 5 7 17 10c21 5 31 15 31 39l1 155c0 55 -5 79 -25 101c-15 16 -31 22 -57 22c-32 0 -55 -14 -70 -27c-7 -7 -10 -16 -11 -23c-1 -11 -2 -35 -2 -72c0 -52 2 -147 4 -164
c2 -15 8 -26 31 -31c11 -2 15 -5 15 -8c0 -5 -8 -8 -15 -8c-19 0 -53 3 -77 3c-34 0 -54 -3 -70 -3c-9 0 -17 3 -17 8c0 4 6 7 19 9c31 7 31 17 33 35c3 20 4 106 4 158c0 35 0 60 -1 78c-1 15 -7 24 -22 34c-7 4 -10 7 -10 11c0 3 4 5 12 8c23 5 56 17 74 30c6 5 11 7 15 7
s5 -4 5 -10v-47c0 -3 1 -9 5 -5c36 29 80 55 123 55z" />
    <glyph glyph-name="n.end" horiz-adv-x="607" 
d="M272 371c41 0 65 -20 78 -35c24 -25 32 -72 33 -129c0 -54 1 -84 1 -136c1 -17 4 -29 13 -35c10 -7 41 -10 63 -10c47 0 71 1 89 15c7 6 9 15 9 26c0 10 -8 29 -11 40c-2 5 6 21 14 28c6 7 19 19 23 19c10 0 15 -20 15 -34c0 -54 -43 -92 -65 -105
c-20 -11 -48 -19 -86 -19c-36 0 -75 3 -97 3c-30 0 -54 -3 -68 -3c-12 0 -18 2 -18 6s6 7 15 9c19 5 27 14 29 38v143c1 80 -7 102 -31 123c-14 12 -35 19 -54 19c-25 0 -47 -8 -70 -27c-10 -8 -13 -20 -13 -30c0 -17 0 -80 1 -142c1 -56 3 -78 5 -91c3 -22 14 -27 31 -31
c12 -4 16 -6 16 -11c0 -6 -10 -6 -19 -6s-60 4 -82 4c-14 0 -36 -2 -58 -2c-11 0 -18 2 -18 7s8 8 20 10c26 5 28 16 29 40c2 67 3 147 3 232c0 16 -2 24 -25 37c-7 4 -9 8 -9 11c0 2 5 5 14 8c25 6 70 27 84 35c4 3 9 -2 9 -8c0 -13 -1 -33 -2 -48c0 -8 2 -8 10 -2
c23 17 44 30 65 39c21 10 39 12 57 12z" />
    <glyph glyph-name="r.end" horiz-adv-x="432" 
d="M246 371c18 0 41 -8 61 -18c27 -14 43 -23 62 -23c18 0 28 9 28 23c0 9 -4 17 -8 25c-4 7 -1 12 1 17c5 8 17 18 25 18c11 0 15 -16 15 -26c0 -23 -17 -48 -37 -66c-19 -20 -46 -35 -72 -35c-23 0 -39 8 -68 23c-22 11 -36 14 -49 14c-15 0 -36 -10 -51 -32
c-6 -9 -13 -23 -13 -36v-69c0 -73 1 -110 3 -131c4 -32 16 -39 54 -43c14 -2 19 -5 19 -10s-10 -7 -25 -7c-21 0 -51 5 -95 5c-35 0 -44 -4 -64 -4c-12 0 -16 3 -16 7s5 7 14 8c23 5 31 13 34 41c2 17 3 74 4 140c0 63 0 84 -1 97c0 13 -7 24 -27 39c-6 5 -8 7 -6 11
c2 3 10 6 15 7c22 4 61 19 70 25c7 4 11 6 16 6c4 0 5 -6 5 -18c-1 -8 -1 -31 -1 -52c0 -6 3 -10 6 -7c12 16 35 41 53 53c14 9 32 18 48 18z" />
    <glyph glyph-name="longs" unicode="&#x17f;" horiz-adv-x="207" 
d="M142 315c0 -40 2 -220 4 -248c3 -48 3 -47 37 -55c12 -2 18 -5 18 -9c0 -5 -8 -7 -17 -7c-30 0 -32 4 -87 4c-23 0 -45 -3 -61 -4c-10 0 -15 2 -15 6s6 7 19 10c24 6 29 19 29 55v239c0 9 -2 13 -5 14c-6 0 -17 0 -28 1c-6 1 -13 6 -13 9c0 2 5 5 12 10c7 4 16 9 25 15
c6 4 9 10 9 14c0 51 5 118 18 159c17 53 46 104 106 137c28 18 60 25 87 25c42 0 71 -22 71 -37c0 -11 -17 -27 -27 -32c-4 -3 -15 0 -19 3c-16 14 -44 37 -75 37c-44 0 -73 -32 -83 -147c-3 -40 -5 -119 -5 -199z" />
    <glyph glyph-name="t.end" horiz-adv-x="407" 
d="M383 467c12 0 19 -20 19 -41c0 -43 -32 -71 -56 -83c-21 -9 -47 -14 -83 -16c-33 -1 -61 -2 -122 -2c-1 0 -6 -3 -6 -9c0 -18 0 -177 1 -207c1 -29 4 -41 11 -51c14 -21 35 -27 58 -27c21 0 42 8 52 13c9 6 11 4 11 0c0 -5 -8 -16 -21 -26c-25 -18 -55 -27 -84 -27
c-45 0 -72 13 -89 45c-9 13 -13 40 -13 64v203c0 10 -1 16 -5 18s-14 4 -23 6c-7 2 -12 5 -12 9c0 2 1 4 12 9c25 10 60 39 86 70c10 12 17 9 17 4c0 -7 -1 -41 -1 -51c0 -4 2 -9 8 -9s38 -2 68 -2c38 0 80 0 107 1c51 2 52 18 52 33c0 8 -6 23 -13 33c-4 7 -4 7 -4 13
s21 30 30 30z" />
    <glyph glyph-name="t.endalt" horiz-adv-x="450" 
d="M25 336c0 2 1 4 12 9c25 10 60 39 86 70c10 12 17 9 17 4c0 -7 -1 -42 -1 -52c0 -3 1 -9 6 -9c18 0 96 3 116 3c2 0 6 -5 6 -13c0 -18 -5 -28 -10 -28c-33 0 -87 3 -115 3c-1 0 -3 -3 -3 -8c0 -19 -1 -181 -1 -211c0 -27 3 -47 37 -68c27 -16 77 -22 106 -22
c89 0 111 24 121 38c3 4 5 16 -1 24c-5 6 -10 13 -10 18c0 15 12 29 26 29c11 0 23 -8 23 -30c0 -35 -41 -70 -82 -86c-42 -17 -88 -24 -140 -24c-38 0 -115 8 -142 57c-7 13 -11 31 -11 59v202c0 11 -1 17 -5 19s-14 5 -23 7c-7 2 -12 5 -12 9z" />
    <glyph glyph-name="u.end" horiz-adv-x="595" 
d="M24 355c0 3 5 5 16 5c31 0 78 6 93 10c3 1 6 -5 5 -11c-4 -57 -5 -190 -4 -239c1 -42 10 -57 16 -65c13 -16 36 -24 57 -24c28 0 54 9 77 28c10 10 14 24 14 46c2 45 2 69 2 109c0 16 0 57 -1 83c-1 34 -9 40 -42 46c-12 2 -17 5 -17 8c0 5 9 7 16 7c13 0 38 -1 55 -1
c19 0 50 8 62 8c3 0 5 -3 4 -11c-3 -39 -5 -139 -5 -231c0 -27 0 -41 1 -59c1 -11 4 -21 13 -25c19 -10 44 -12 66 -12c51 0 66 3 79 11c7 6 11 11 11 29c0 10 -7 26 -12 37c-2 4 8 20 15 27c6 6 21 18 25 18c10 0 14 -21 14 -34c0 -49 -39 -86 -62 -98
c-21 -15 -58 -21 -90 -21c-36 0 -62 4 -84 4c-29 0 -38 -4 -43 -6c-6 -4 -10 -1 -10 7s1 30 2 46c0 2 -1 5 -4 3c-21 -17 -54 -37 -70 -45c-18 -10 -41 -14 -59 -14c-36 0 -62 8 -85 36c-13 17 -18 40 -18 68c-1 33 -1 197 -2 215s-9 25 -23 33c-9 6 -12 9 -12 12z" />
    <glyph glyph-name="z.end" horiz-adv-x="487" 
d="M82 359l90 -1c63 0 114 4 134 4c3 0 8 -1 8 -3c1 -2 1 -4 -2 -9c-3 -8 -22 -36 -43 -72c-22 -37 -94 -170 -129 -243c-2 -4 1 -7 3 -8c7 -4 65 -6 152 -6c98 0 153 18 153 78c0 12 -4 25 -7 30c-7 9 -11 13 -11 19c0 7 19 25 26 25c11 0 22 -22 22 -43
c0 -29 -14 -59 -31 -78c-30 -36 -70 -55 -149 -55h-162c-49 0 -70 0 -91 -1c-5 0 -12 2 -12 7c0 7 32 57 56 100c23 40 85 151 124 226c2 6 1 9 -5 9h-127c-21 0 -32 -21 -40 -39c-6 -11 -11 -16 -14 -16c-2 0 -4 3 -4 10s3 14 6 28c3 11 8 30 10 44c0 5 0 7 5 12
c2 2 5 2 7 -1c8 -7 16 -17 31 -17z" />
    <glyph glyph-name="c_h" horiz-adv-x="785" 
d="M209 352c-37 0 -102 -38 -102 -152c0 -63 24 -107 48 -128c26 -25 63 -35 92 -35c43 0 68 7 101 37c3 3 8 3 8 -1s-2 -8 -8 -16c-19 -26 -65 -68 -139 -68c-47 0 -93 17 -126 50c-32 32 -50 79 -50 134c0 63 32 113 62 140c31 29 85 58 147 58c47 0 77 -13 94 -25
c10 -6 13 -15 13 -20c0 -19 -18 -33 -27 -33c-4 0 -11 4 -17 9c-15 15 -43 35 -58 42c-12 6 -25 8 -38 8zM568 334c-37 0 -66 -18 -81 -33c-5 -5 -10 -15 -10 -34c-1 -137 3 -199 5 -220c3 -19 10 -30 32 -35c14 -3 21 -5 21 -10c0 -3 -6 -6 -16 -6c-28 0 -58 4 -83 4
c-34 0 -49 -4 -69 -4c-11 0 -16 2 -16 6s4 6 16 9c28 7 34 11 36 47c2 39 3 132 3 286c0 150 2 214 0 251c-1 32 -8 35 -30 47c-4 3 -7 5 -7 8s6 6 17 9c31 9 58 15 81 26c5 3 8 4 10 4c3 0 6 -6 5 -20c0 -24 -5 -333 -4 -351c0 -4 3 -5 4 -4c13 12 40 31 59 40
c17 9 42 17 67 17c34 0 68 -12 91 -45c12 -14 23 -45 24 -106c1 -73 0 -135 1 -177c1 -19 5 -26 33 -31c13 -3 17 -6 17 -10s-8 -7 -17 -7c-26 0 -44 5 -74 5c-38 0 -44 -4 -69 -4c-12 0 -16 3 -16 6c0 5 5 6 15 9c27 5 29 13 33 43c2 23 4 69 4 168c0 25 -3 55 -14 76
c-14 23 -36 36 -68 36z" />
    <glyph glyph-name="c_k" horiz-adv-x="773" 
d="M209 352c-37 0 -102 -38 -102 -152c0 -63 24 -107 48 -128c26 -25 63 -35 92 -35c43 0 68 7 101 37c3 3 8 3 8 -1s-2 -8 -8 -16c-19 -26 -65 -68 -139 -68c-47 0 -93 17 -126 50c-32 32 -50 79 -50 134c0 63 32 113 62 140c31 29 85 58 147 58c47 0 77 -13 94 -25
c10 -6 13 -15 13 -20c0 -19 -18 -33 -27 -33c-4 0 -11 4 -17 9c-15 15 -43 35 -58 42c-12 6 -25 8 -38 8zM592 360c16 0 37 -1 47 -1c26 0 65 5 93 5c11 0 15 -3 15 -6s-3 -6 -15 -8c-34 -7 -52 -14 -91 -44c-25 -20 -69 -58 -89 -78c-2 -1 0 -5 1 -6
c32 -39 103 -118 148 -164c28 -29 41 -40 71 -46c9 -3 14 -6 14 -10c0 -6 -8 -7 -17 -7c-40 0 -77 5 -116 5c-18 0 -32 -1 -46 -1c-12 0 -18 1 -18 6s5 7 22 11c16 4 19 13 10 26c-20 23 -86 97 -116 128c-9 9 -16 17 -20 17c-3 0 -3 -6 -4 -10c-1 -18 -1 -56 0 -105
s10 -52 38 -59c10 -2 16 -5 16 -9c0 -5 -9 -7 -19 -7c-29 0 -53 3 -79 3c-33 0 -58 -3 -67 -3c-10 0 -17 2 -17 7c0 3 6 6 14 8c30 7 36 16 38 49c4 73 5 155 6 233c0 69 2 208 2 281c0 23 -1 34 -3 47c-1 7 -11 14 -23 20c-6 3 -9 6 -9 8c0 4 5 6 16 9c47 11 74 23 78 25
c7 3 12 5 16 5c1 0 3 -3 3 -8c-1 -33 -5 -124 -5 -199c0 -31 -5 -173 -5 -268c0 -11 2 -16 5 -16c4 0 12 6 20 11c39 30 90 77 108 102c5 6 10 13 10 17c0 6 -7 13 -31 16c-9 2 -17 4 -17 9c0 4 8 7 16 7z" />
    <glyph glyph-name="c_t" horiz-adv-x="623" 
d="M412 100v213c0 5 -2 9 -5 9c-16 4 -25 5 -27 7c-1 1 -3 4 -3 6s8 7 33 22c4 3 8 7 10 18c1 14 2 33 2 55c0 91 -37 117 -91 117c-82 0 -118 -65 -118 -131c0 -21 5 -36 8 -42c1 -3 4 -4 7 -4c18 -1 59 -4 79 -19c10 -7 10 -12 10 -16c0 -12 -26 -30 -29 -30
c-7 0 -16 4 -21 11c-18 17 -44 32 -72 32c-49 0 -94 -44 -94 -140c0 -54 20 -103 46 -127c27 -25 57 -35 88 -35c58 0 89 22 112 58c5 9 7 11 10 11c5 0 4 -10 2 -16c-20 -48 -69 -108 -156 -108c-98 0 -170 84 -170 181c0 91 50 136 86 161c23 16 49 25 86 34c3 1 3 3 2 4
c-9 19 -12 41 -12 58c0 85 62 146 151 146c84 0 121 -41 135 -84c8 -24 6 -66 6 -122c0 -3 1 -11 6 -11c18 0 95 3 114 3c2 0 7 -5 7 -13c0 -18 -6 -28 -10 -28c-34 0 -88 3 -115 3c-1 0 -4 -4 -4 -8c0 -19 1 -177 2 -206c1 -30 4 -41 11 -51c14 -21 35 -27 58 -27
c21 0 42 8 52 13c8 6 11 4 11 0c0 -5 -8 -16 -22 -26c-25 -18 -54 -27 -83 -27c-46 0 -72 13 -90 45c-8 13 -12 40 -12 64z" />
    <glyph glyph-name="f_t.alt" horiz-adv-x="499" 
d="M64 67v239c0 9 -3 13 -6 14c-5 0 -17 0 -27 1c-7 1 -14 6 -14 9c0 2 6 5 13 10l24 15c6 4 10 10 10 14c0 51 4 114 17 155c17 53 44 100 104 131c19 11 46 19 69 19c47 0 82 -19 104 -57c10 -19 14 -46 14 -63c0 -34 -2 -131 -2 -187c0 -3 1 -9 6 -9c18 0 94 2 114 2
c2 0 7 -4 7 -13c0 -17 -6 -25 -11 -25c-33 0 -87 1 -114 1c-1 0 -4 -4 -4 -8c0 -19 1 -177 2 -206c1 -30 3 -41 11 -51c14 -21 35 -27 57 -27c21 0 42 8 53 13c8 6 11 4 11 0c0 -5 -8 -16 -22 -26c-25 -18 -54 -27 -83 -27c-46 0 -75 13 -93 45c-8 13 -12 40 -12 64l1 212
c0 9 -2 13 -8 12c-18 0 -129 1 -143 1c-3 0 -5 -7 -5 -9c-1 -40 2 -221 3 -249c3 -37 11 -45 21 -48c8 -3 19 -4 31 -7c12 -2 18 -5 18 -9c0 -5 -7 -7 -17 -7c-29 0 -47 4 -101 4c-23 0 -46 -3 -62 -4c-9 0 -15 2 -15 6s6 7 19 10c25 6 30 19 30 55zM222 649
c-50 0 -73 -41 -83 -143c-2 -32 -3 -78 -3 -107c0 -13 0 -28 1 -34c1 -5 5 -7 13 -7h138c3 0 7 5 8 11c3 31 5 119 6 164c0 34 -8 66 -16 78c-14 23 -33 38 -64 38z" />
    <glyph glyph-name="s_p" horiz-adv-x="712" 
d="M536 370c43 0 79 -23 102 -48c30 -34 41 -80 41 -118c0 -109 -64 -173 -135 -200c-23 -8 -44 -14 -71 -14c-18 0 -48 5 -57 8c-4 1 -6 -8 -7 -12c-3 -18 -3 -92 -1 -136c1 -41 3 -75 7 -84c6 -21 21 -25 49 -30c10 -2 14 -4 14 -9s-8 -7 -21 -7c-15 0 -51 4 -89 4
c-33 0 -66 -6 -78 -6s-18 2 -18 6c0 3 4 7 17 9c33 9 41 20 44 48c0 16 2 60 2 139c0 80 1 297 0 354c0 51 -1 168 -1 200c0 22 -2 37 -13 47c-7 6 -18 9 -34 9c-62 0 -101 -34 -101 -96c0 -23 6 -46 12 -59c2 -6 4 -7 10 -8c13 -2 26 -6 32 -8c2 -1 5 -6 5 -9
c1 -8 5 -29 6 -49c0 -11 -2 -16 -5 -16c-4 0 -6 5 -9 13c-10 26 -33 59 -77 59c-30 0 -56 -24 -56 -59c0 -44 37 -66 67 -84c64 -42 89 -68 89 -119c0 -43 -31 -71 -50 -83c-22 -16 -58 -24 -85 -24c-25 0 -51 6 -81 18c-7 3 -14 11 -15 16c0 14 -2 39 -3 50
c-2 13 1 18 4 18c2 0 5 -1 12 -20c16 -45 57 -68 91 -68c25 0 61 27 61 66c0 35 -24 56 -67 84c-47 29 -82 69 -82 111c0 35 16 63 40 81c18 14 47 27 84 27c4 0 7 -1 12 -1c2 0 4 2 3 4c-12 17 -18 44 -18 65c0 88 78 121 152 121c34 0 61 3 74 11c6 4 11 2 13 -9
c2 -8 3 -23 3 -43c0 -5 -1 -183 -1 -191c0 -4 3 -7 6 -4c45 32 80 46 123 46zM511 12c13 0 29 5 44 18c24 19 54 65 54 141c0 51 -18 101 -51 130c-15 14 -41 29 -73 29c-25 0 -47 -4 -66 -17c-8 -5 -9 -7 -10 -20c-3 -26 -3 -185 -1 -208c1 -7 4 -15 9 -25
c21 -35 66 -48 94 -48z" />
    <glyph glyph-name="s_t" unicode="&#xfb06;" horiz-adv-x="561" 
d="M347 100v213c0 5 -2 9 -5 9c-15 4 -24 6 -26 8s-4 4 -4 6c0 3 8 7 33 21c5 4 9 8 10 18c2 15 3 26 3 47c0 73 -29 106 -75 106c-57 0 -87 -45 -87 -106c0 -17 3 -32 9 -47c1 -4 3 -6 10 -9c11 -2 19 -5 25 -7c2 -1 5 -6 5 -9c1 -8 5 -29 6 -49c0 -11 -2 -16 -5 -16
c-4 0 -6 5 -9 13c-10 26 -33 59 -77 59c-30 0 -56 -24 -56 -59c0 -44 37 -66 67 -84c64 -42 89 -68 89 -119c0 -43 -31 -71 -50 -83c-22 -16 -58 -24 -85 -24c-25 0 -51 6 -81 18c-7 3 -14 11 -15 16c0 14 -2 39 -3 50c-2 13 1 18 4 18c2 0 5 -1 12 -20
c16 -45 57 -68 91 -68c25 0 61 27 61 66c0 35 -24 56 -67 84c-47 29 -82 69 -82 111c0 35 16 63 40 81c18 14 49 27 86 27h17c2 0 4 1 2 3c-8 18 -13 42 -13 56c0 78 55 127 126 127c67 0 99 -33 113 -76c7 -22 6 -66 5 -109c0 -8 2 -11 8 -11c20 0 90 4 110 4
c10 0 13 -1 13 -20s-3 -22 -12 -22c-35 0 -83 2 -111 2c-7 0 -9 -3 -9 -9c0 -19 -1 -178 0 -207c2 -30 6 -41 13 -51c15 -21 36 -26 59 -26c20 0 41 7 51 13s14 3 14 -1c0 -6 -8 -17 -22 -26c-24 -19 -56 -27 -85 -27c-47 0 -74 14 -93 46c-8 14 -10 39 -10 63z" />
    <glyph glyph-name="Eng" unicode="&#x14a;" horiz-adv-x="722" 
d="M18 622c0 4 5 7 20 7c29 0 88 -4 130 -4c5 0 9 -4 23 -21c66 -84 315 -361 402 -457c4 -4 7 0 7 8c0 35 -2 294 -5 381c-1 58 -20 69 -56 76c-11 2 -19 6 -19 10c0 5 10 6 20 6c18 0 48 -3 70 -3c29 0 56 3 67 3s16 -2 16 -5c0 -5 -8 -9 -17 -11c-40 -12 -42 -34 -46 -60
c-4 -55 -8 -358 -6 -456c0 -157 -14 -209 -36 -251c-22 -38 -55 -55 -69 -55c-23 0 -41 17 -44 29c-2 4 -2 11 3 12c19 2 56 9 78 26c28 24 39 47 39 106c0 26 -17 55 -21 61c-62 76 -312 360 -439 509c-5 5 -9 3 -9 -3c0 -30 -2 -355 -2 -403c1 -44 3 -65 11 -82
c7 -18 34 -28 51 -33c10 -3 19 -6 19 -12c0 -5 -10 -6 -20 -6c-17 0 -47 6 -79 6c-29 0 -62 -5 -69 -5c-15 0 -18 3 -18 7s8 7 19 10c32 7 48 18 53 75c4 39 12 344 12 435c0 58 -12 69 -20 76c-8 6 -23 10 -47 15c-14 2 -18 4 -18 9z" />
    <glyph glyph-name="uni019F" unicode="&#x19f;" horiz-adv-x="741" 
d="M354 627c-48 0 -106 -26 -146 -74c-45 -54 -66 -130 -69 -210c0 -3 1 -7 4 -7h452c4 0 6 2 5 7c-6 72 -33 139 -79 201c-33 43 -87 83 -167 83zM392 1c42 0 76 13 108 42c42 36 101 120 102 261c0 5 0 8 -5 8l-453 -2c-3 0 -4 -4 -4 -7c6 -75 37 -158 77 -207
c54 -70 117 -95 175 -95zM370 643c177 0 326 -154 326 -338c0 -161 -109 -259 -186 -293c-41 -18 -87 -30 -135 -30c-182 0 -330 153 -330 336c0 100 34 189 131 262c51 40 129 63 194 63z" />
    <glyph glyph-name="uni018F" unicode="&#x18f;" horiz-adv-x="616" 
d="M279 -18c-143 0 -240 95 -240 211c0 10 12 22 32 22c17 0 311 0 395 -1c3 0 10 7 12 11c2 14 5 53 5 82c0 152 -89 289 -240 289c-75 0 -137 -31 -180 -75c-8 -8 -14 -13 -18 -13c-2 0 -4 1 -4 4s2 8 8 16c62 77 145 115 243 115c175 0 279 -154 279 -319
c0 -94 -33 -213 -125 -284c-57 -48 -123 -58 -167 -58zM290 -3c89 0 156 79 178 187c1 4 -2 10 -6 10c-46 3 -215 1 -281 -2c-28 -1 -46 -12 -46 -47c0 -63 57 -148 155 -148z" />
    <glyph glyph-name="uni021C" unicode="&#x21c;" horiz-adv-x="463" 
d="M168 622c-23 0 -58 -1 -87 -37c-16 -16 -26 -36 -36 -64c-5 -14 -7 -19 -11 -19c-3 0 -6 3 -6 16c0 25 8 54 12 73c3 14 8 20 11 20c9 3 16 3 32 8c29 9 59 24 109 24c118 0 168 -66 168 -136c0 -43 -24 -78 -38 -92c-21 -20 -41 -33 -66 -48c-4 -4 -4 -5 1 -7
c33 -7 98 -24 134 -70c18 -23 31 -56 31 -98c0 -84 -54 -166 -150 -220c-55 -31 -131 -51 -182 -51c-33 0 -49 3 -61 6s-17 7 -17 10c0 4 4 5 13 5c9 -1 22 -1 44 -1c53 0 120 26 152 44c70 40 109 109 109 183c0 40 -8 79 -36 109c-16 17 -51 34 -94 34
c-26 0 -60 -13 -78 -20c-6 -2 -16 -2 -16 2c0 5 8 12 19 18c15 10 45 22 66 33c77 40 84 100 84 146c0 84 -50 132 -107 132z" />
    <glyph glyph-name="eng" unicode="&#x14b;" horiz-adv-x="434" 
d="M379 211v-160c-3 -167 -32 -257 -94 -315c-11 -10 -38 -27 -56 -27c-11 0 -22 3 -29 11c-5 5 -8 14 -8 28c0 4 4 10 7 9c13 -7 45 -14 54 -14c42 0 53 40 54 232c-1 71 1 149 -2 220c-2 81 -8 101 -29 120c-14 13 -37 19 -51 19c-25 0 -48 -8 -71 -27
c-10 -8 -13 -20 -13 -30c0 -15 0 -72 1 -132c1 -61 2 -88 3 -101c3 -22 16 -27 33 -31c12 -4 16 -6 16 -11c0 -6 -10 -6 -19 -6s-60 4 -82 4c-14 0 -36 -2 -58 -2c-11 0 -18 2 -18 7s8 8 20 10c26 5 28 16 29 40c2 67 3 147 3 232c0 16 -2 24 -25 37c-7 4 -9 8 -9 11
c0 2 5 5 14 8c25 6 70 27 84 35c4 3 9 -2 9 -8c0 -13 -1 -34 -2 -50c0 -4 2 -6 10 0c23 17 44 30 65 39c21 10 35 12 53 12c41 0 65 -19 79 -34c23 -25 32 -69 32 -126z" />
    </font>
</defs>
</svg>
